<mxfile host="app.diagrams.net" agent="Mozilla/5.0 (X11; Linux x86_64) AppleWebKit/537.36 (KHTML, like Gecko) Chrome/133.0.0.0 Safari/537.36" version="26.0.14">
  <diagram name="Page-1" id="q388QcBlxF1JxIfVs0ia">
    <mxGraphModel dx="1602" dy="2314" grid="1" gridSize="10" guides="1" tooltips="1" connect="1" arrows="1" fold="1" page="1" pageScale="1" pageWidth="1600" pageHeight="1200" math="0" shadow="0">
      <root>
        <mxCell id="0" />
        <mxCell id="S5ZDTjxf2J-4e3x-WdZ--83" value="Background" style="locked=1;" parent="0" />
        <mxCell id="S5ZDTjxf2J-4e3x-WdZ--84" value="" style="rounded=1;whiteSpace=wrap;html=1;align=left;verticalAlign=top;fontSize=30;fontStyle=1;arcSize=5;spacing=19;fillColor=light-dark(#BAC8D3,#D6EAD0);strokeColor=none;opacity=20;" parent="S5ZDTjxf2J-4e3x-WdZ--83" vertex="1">
          <mxGeometry x="160" y="280" width="1540" height="180" as="geometry" />
        </mxCell>
        <mxCell id="S5ZDTjxf2J-4e3x-WdZ--137" value="" style="group" parent="S5ZDTjxf2J-4e3x-WdZ--83" vertex="1" connectable="0">
          <mxGeometry x="175" y="302.5" width="115" height="45" as="geometry" />
        </mxCell>
        <mxCell id="S5ZDTjxf2J-4e3x-WdZ--85" value="lychen" style="text;html=1;align=center;verticalAlign=middle;whiteSpace=wrap;rounded=0;fontSize=20;fontStyle=1;fontColor=default;" parent="S5ZDTjxf2J-4e3x-WdZ--137" vertex="1">
          <mxGeometry x="55" y="52.5" width="60" height="30" as="geometry" />
        </mxCell>
        <mxCell id="S5ZDTjxf2J-4e3x-WdZ--86" value="" style="shape=image;verticalLabelPosition=bottom;labelBackgroundColor=default;verticalAlign=middle;aspect=fixed;imageAspect=0;image=data:image/png,iVBORw0KGgoAAAANSUhEUgAAASwAAAEsCAYAAAB5fY51AAAACXBIWXMAAAsTAAALEwEAmpwYAAAAAXNSR0IArs4c6QAAAARnQU1BAACxjwv8YQUAACO6SURBVHgB7Z1tUlRXu/7vtTZN+OOH9P/TqShK91MVxdRTFRyBMAJhBOIIgiMQRyCOQBwBOAJwBLRVT8WDVp3eIJ58fEjVE6M0e62z7r1pREDo7v22Xq5fFTEViSHQfe379bqJAAAAAAAAAAAAAAAAAABQCIIAGIJu921LjsklIcR9LXSLNLWOf6sjBMVa04bqqdft9t2YACgYCBYYiO6Ht3ORiJ5o0nODfL4msaZ7yVMIFygSCBa4lO4fb1tREr0YVKjOoenp9M07KwRAAUCwwHfhqEqKaN2oTpPy0TFp4iKiLZAXCBa4kO7euyUp9Qsqjlj1Pt1rt+8dEAAjIgmAM3T3380WLFZMK2pcWycAcgDBAt/Q7W43pdClCAvXwbr7vy8TACMCwQLfIMcml0+NKhT/51P0hEWRABgBCBb4FkkPqVyacnzyNwJgBCBY4ITu/tulMqOrEzQhLQQjAcECJ0Ri7AFVQ5NHJgiAIYFggRM0qVmqCBmJXwmAIYFgga9UkQ72/1OKKhNH4A8QLJDCKzhULS0CYEggWAAAZ4BggZT2TxXv+QnCig4YGggW+IqgmCpCCNoiAIYEggW+osUGVYRSR68JgCGBYIETlE5eUTXE7al/dqhmeEWIHVSxKuQOsJcB37D7cadbwXjD0vTUnZdUMqkQjU3Myij6lccozNO5dcbW+QzC1NV0LMyvmj28OAqUygpxBRkQLPANvJ4jSRZtLXOa2IhVm0oi9Zz/IXogFC0Y0ZktwHyQiTWJLa2OXrVv/VJZ2gzOA8EC59jbf7c5siXy1RQeXaWWOGOTy+lhjPK+7mPS6GsDfvX1AMEC5+AhUplE2wVFJ6fQq9NTM4+pIIY9jFE0OLRRPRAscCElpIYdE1ndowKoW6jOgUMblQHBAt8lE63oWd5IywjLlu79vZjXz52tmyOiZ9YI1bfEqqfmEW2VCwQLXEp65kuJJ1qLJRoFQSvTN+48pRxkNaprKyS09cZ/ipLH7alfVgmUAgQLDMSHP97fT5JkxbT85wb5/Cyq0o/yRhzpqTFpUtMKnSRygxSxNCBYYChSV4eE5oSQD0jrphCZkJgIjGeYOkLKjvry18vc6Z9DUdWFQLRKAYIFrCPrUkq+3OO0ZxbSw+KBYAGrKPDatBUobQrxN+9uESgE7BICa9jd/+9lKeSmL2LFmP+fF9hVLA4IFrCC3Q87Kybgf0b+0YrGJ8tcdQoKpISgdlKxEvSEPAapYTEgwgK1EoJYMTyZTyA3ECxQG6GIFcPT+bjFmB8IFqiFkMSqD6Ks/KCGBSonRLHq05CN1vXr/9glMBKIsECldPd+XwhVrJie7i0RGBkIFqiMdIJdjgXd4hd6sF1McDFICUElpGKl5KZTS8wloXqf/n/eXctQQYQFKiFSY88gVseMTTi9I1knECxQOlxk11otEEiRQk4TGAkIFiiVdPYo4CL7hQhEmqMCwQKlkRXZJfbozqC1bhEYiTEChZFu5TcaLVKyZeL+ppTRj2xyd/bzlFa75i8HJMQBHVHsqw84161MKtgiAAoCgjUifLCTGjQnKfrVtFpnvzna2Y9blb7w35X8Cf3PabCtyrsD82d0+Nowu3aqnnrtuoihbgXKAGMNA5JFTxMLgqL75pu2UIFnU3ZtWCcvXdvy5+FQE12uE7gQTXqtNTXziMDQQLAuIfUV/+Haw+zsea2npWLzseJC5FXtvBX7yKs1GUUbkY5i/idf1Jd504V7YvUIRQGXhEIFgnUBxza9D8zfLtnmfmnzteFU4Mcnt6sQi6uu8uzu76yZXx6SjUi9PH195jmBoYFgncK6i8KXYKNw7X18v15N3Wqwk/emNrhtPte6IU0ZybmbP/38msDQYKyBMqHa23+3yX7iLogVI0gvyYbcNJGEFVFEZUV2TqcGECtG6WSgz6uao8//eUNgJIKOsLKrxmnr3eluVt3RVmV2MSPUfnY/7nRtqmdxKmsK7vMERiLYCCu90JJE2z603vvRVnf/X5WnPxV6W3VGKlRrsUEWISRZ9fW4RnCCxVEVp3/ZhRZ/zkkZWpIa293935epIioUq9h0SBdpFIS26oGkvuhXBEYmKMHq7r+b5Za7K3WqUZAUPTPF5tLPZe1+eLda2Y6g1KujpLvdvZ0Fy9LBNV+3GqoimBoWp4Ce3r37HhyVzBf9BuHRhahxbb1C0Y+np+60aQRsq1+Zn0cbgpWPICIsj490XkbL1LW68f67F+kaUQGk82njk9sVR6grNALpzxzRlXd4H2GFfPDgFDGlk/KfXo3idJl2U5PoRQ2p9EjRlYWrQaVEuyHitWBBrM4x8H5iujsZ/TAXybHf6qr5jbJzl9YpiTYta6gsGeF9SSA33goWxOoqROoQoYyICaHj/j/VWrRENh1e+4S4+boWbt2YGbirlkVWfOTCIrHC3mCheGkvkxXYIVaXo5uaaC59Yp1ywRGkyRaEjAZOX78+oCz6+oVeM4ILsSoQ7wSL6y2UBFdg9xKVpOZ/l+7c1Vhfu5RjsYKFTMF41SU8sTYBXiBILF32+yfbCtbN1elViFU5eCVYOCXlFyxE2UjKt/SX1a3cVmDrmAGXs8HweFN0D3AwNBjS5W51lBbfo2jsgdZ6iewjlpFcgm1MuXghWGkqaFIDz3YDgTPoVdX7+ymuOZePF0X31CKGFMQKVA2iqopxvobV3X+7hOssoHo4qvp0D2JVLc5HWMcHBwCoio6JqpYhVPXgtGBxdIWuIKgGcUBCr2JqvV6cFqywoytxYOp2HUpXa0Rskvv45LeUEXGtm1qIFgu6sGDNxnE6qpcsYnm5fpwVrDCjq+wpL6XcGjYl+fDH+/sqSRZICKtM7exnsAs9oBqcHWuw9YRTGfDhgiiKVoqqm7B4aZWYZsXlk+RhIw6UOnrUvvULPNgtwknByixE9DZ5j4mopFop6+hmtVea3QK3A+3EyZQwEvSb9rx2lV02Vo/KrJu0f0r/7Da2BM4gaMV2sUr9ymiiSZHJMqRoShn9yHXL9DcFR4fJn+ZFFJNIDtpT/+yQJzgZYdnm1V081ddNEG2dMLKHfJmkAtWYWBAU3RdCzw33c8q8z7SkDfUleeVy88A5wUp9xYXHjgw1Gr4drzith1IbvAibUkEWKTk2uWy6wPcLdqTgiGvVRRdU5wQrO2GlK7u9VykWuFN2u92mHD/cDjTSsiK64odyJKInFdjmxOZjxSXhclGwvOwOCkEbt27cGe1YaMGEmh5qoTdaN2Zq+Rn0oymS9LDq73vqhtFLnrqQKjq1S8hPf0/TlTg5VNbM+nAxXmmxmHYpQ0JT5f+/LFTs+SUb17qpxXMNDwlBekk25GZR5+DKxK3l57HPXtZWeOPftqdbe+q2qXOosNZQBFXm+HFOqOq3RuI7ltt8yIMsxinBklLeJ8/gU1a2ttBNp3JVCBnM4KTQYi4bFygPC4XqNDwesc41NLIUpwRLkPQtwop1T1sdxSSHY48CSg1Nw2HyNyoBy4XqG0wXft3W9NApwdJat8gnBFl/vrzdbqf7ixQKmla6+/8q7MHIDQxXhOoUzaymtW3d1+qagV+L/CFWh8qJdrI6HH8eUgFeUmM9j2jxG727t7PAhzJkIl0SqtO0ovHJF2QZTo017O7veLOQM8oZ9jrZ/bjDHawVCohh2v3fTKITLfhyX0CpZNGmBXBnBCubwjZPK09wbbk2nIXz8wgSW5qnw6WJinlHj7gBFP3IvmNC6JZmvzF/Z9ZitoK25cCGO4Ll1xvGyn21q/B/hxNciAUbGH3cqWHpxJurOFpoJ7fn2UGCQHhoWralAO/V5WdXEIK2yEGEkN7YlIChaEbj/8+KGUgIVg0Ifcp/3SH69RsQIFpaYTjgjmCNufkmvwghIzdHBBwVWpAfUw6YtSEt9OLyMwB+wJeQdGzkoWO6YQfsHMr/9HhgumW6lXNUH00am+DZtC2qEWcEix0Edvd3CNSIlk13z5bYCTcyhJQbStHrbOH8cvY+vn+gSC2ZskLlS8oyEr8SBGsY+Inj/kCeVm52POWYmCaFM9v5yc61qcNPz4edb7p14+dX5pdX6ZiP0OtVjploVf99S9eK7jF5gBZuzjKxmwGBkdGZNfGS6v3V5rmmPMOYHI2pw/F7FbtptKhmnIqwtFAd86Zx3rHBhifVKGhSXvqRlU3RdyX7pIvpRIu8s1iBnbIVuGUv48kckCmeWm2SdhGcgmDKfRjS8sVq1KDZ1tTMfJlrWEmvsWheVDEFgFOCpY70LvlB02aTtIswL5SHBK4k3QaQYjlN+6ZmHk/91503VDIcaSmlnFmkz4NbRfdk3LwYDskHjt1Tt8gVhF4g1NsvRvAoglhriMba9ev/qOWh2r55d8ukhlulpoaies/7szgVYWU5u/BjPcSi/ayr6O6/XUI6+C1pAV3QCrtuTN+YSYvodYnVydckqdQCvA0bGi4Ojm4RuVm0PkPfjtf6Qw9SyCeIrnio0zR9pNxo0NhG3eJ0EUokryTJ0txhbdiBxeXnejlQvU9tW7yGLoKjK/MmsM55snyOBUqILZO+bx19/s8bm39OfXb33/27rFlFRb177al/1prhOBdhca5ufiheDJCSA1FWGNFVthIjuGAeiY5KxJtBps4tJaZyMpC4brFiXN0lXDMfVmyP5yY7evDKhhfDWfh4gn+1q+PIiWtQRpwaurFlY3o3KryDWMbzxRYvNCcFS2mTqws77C6KQFLjhSnAz9uUcrAlNSV8PMF1UoHaMLWnzqD7euA8URStkQU4KVjHaWHHo7P1s7JxjcXBinP1qX++crVOaH9x3EFiW+4PuGsvI/SGiVM9WhXRyyYF+3P65p0VqhEetZCJXCenTqrxVLlak1G04UpxvCx0OfWrFbIEZ81Cut1uUzZ6XV/OKZ2g6WmdorW7v7NGTky1fxUpl64PlUlJh1qsOpjirEWytxeJBT1Ji90Vw5EVL9GS5WJ1dvUFYvWVSNBvVDwrZBFO27F5G2WliNXpqduV1LTq8FYalrIcD3zhpO5Y7M/QunN0Th+h8DbKSjE1rf0do8mmW1ciHM2ZF8GmrWLFQsXrL2U7HriOPJJFr0/FqqfmyTKcN7xNo6zxw22fd92GOZk+KOkEezYU2iI76RihWoZIXU0ZtStbL5N74dDt2brOd8lOpus11fv0apROWPp9IjlHQvxmbxqd2QfbcmnYdkpKBZdMKviSLMSbkwJ7H9+va62cM8YblUy8qGOS+lglyRsSyQH1Tp0PGzMvYEEtI+TT5oc8q1N7Y+trfbEisYjhzsEoXqzEgSKat/n7741g+V2ADwG9qnp/Pw15hmoYsqwiWi/q9c61Qt3Tj4osO5SBN4LFdPd2FqSkdQJuIWgFKeBgpIO9Y9dWTNpc1AhDrFTyuH3rl1K9tIrCK8FidvffPeMOGwFXsLZeYhOZUE0uF1V/TO8hmmaOa9977wSLMaK17dGeoc9ArK6gWKHKGhrs7+Vq99XLU/UqShZL6JyAYoFYXcJ5oRrdNManoVsvIywmm02hTRThLQQ1q0vp7v2+IKPoWd4Hro/bAd4KFhPKfJZb6FXeASRwDo6qosa19UIu30i9PH195jl5hteCxYTrSW4l1u2m2UJx+5ziQEZiwdcNAad3CQehPXV3TVEYRyZtx8bdNBvINhCK2ef0WawY7wWLgWhZgKlb2T6UWAdZZCWLqbWa77Hvu5fep4SnydLD6BkK8ZVTeirIrhbyh+iBVsSpVfO086bQIjZ/4eMMnXSNKfmyZcNEfcGrNUGk20EJFoPuYfWUtfl/0vqX9HDYN31/kbzO0YrdjzvdokZvhNALt27MvCLPCU6wmJI23MEFcGudvayoQNJu2vi1Z1rrJcpPbD5Wqhau1FVWFHaVKJhmRhA1rLO0f7obK8kFYAFXgJLhOSAqkN39/16WjWvdgsSKaZmPtSrMEvukJ9TSgdBisOVmYBUEKVgMi9b01O17bEVMoBS4ZlRUKph6zn98v25+XmXVIFuyIbtV+OlHKnpS5P8Dp7cUCMEKVp/MN11jkLEETL2hkIdBmsI3Jjcr8TvjIyDpAn15FDIYegpTI4wpEIIXLGZ6amZVRaptXqwxgaI4KKIudOqoa4XL7Hp5b/9dKcPGbIGE2unoQLCO6de1TLdljUBuTBSR21/p5KhrDW9w8/UvlZEeSinuU8FolQTT8YZgnYJFy7SGH6VDpoi2ciEF5Ras1KiOarzubdJDXkSmYpmjgtEinIgNgnUB6WQ8R1sBFTOLJjn8O1exnbuBBbpqjoyU0QuO9Kgwivdp42FZCgQI1ndIo62p2/OItoaH2+x5JsmLbvvnpCnHJwv5WvjuAJWAebAGc3wFgnUFJ9EWalsDI/iaTw7Str9NhWlNy4VEWROfy6o1NXmBmgIAgjUAqG0NhxC0RSPC0VWBQ6FFUViUVRaRiIqamrcaCNYQcLQ1feMOjz+sEPguiT7apRHJhiotxERZlJfPE6UtXPNsVwhRFgRrBNjel+e2kCZeTHvqnyOlhJZGV31yp13tdvsgPQRRElLIUgdebQCCNSJf00RxD2niN8Q0IjKJrE67pJRFzFDFVB6zZU/p1w0EKyd81pvTRNS3MkxqEtOoCG11t0toMUf52aJS0cs+p4YQrILo17cgXKPBPmW2r6ykdaKc3UKlk9I9q0xquN7d/5eXs1kQrIL5pjAfpnDFNAJSUuErK6UwNpFLCNo3726VWcc6pimpsV6VXU6VWCVY/PTicJatjNNfHf6Gp4V59txCR3EghCInhh9lJH6lvAhdhaUR2+Vsl7BaVCtWCBaL097+u03ZmPw3G/LzWa70V/Yn2t/ZNh8PyUFSzy10FAdCkxvrJVrn3wVUh+PPK4iymKaU0XoVHl9VUbtg7X54t8ridIlHEL+QK3WELJqTjiKE60LS+pUjHvtFFN6z8QZV3eVrQU/2Pu54kSLWKlhGhNaGWHDlEHfT5W/6aeEKydb2SpRukTs0iyhoswdblRbdJjJc4PePq9lKn9oE6zhMHfab14oakfNXnFm4+DADOooZckxMk0NIOVZIg0BFyWJFqWGflvlY4/KLqw/+WgQr28Yf7WKITysIGIU4Rrnl5ySULKSQnZpGahatauH3UN+/vljrnPKpRbDy7osJIZwOa88SuiOE+Xm2yCGKmMfqw2MOtV0lN0GDaXQ51dSqRbBMPp2rBiCokIljqzhd3wou2tLuHbUt0r0hfWDVt+LVMh9r8f67Fy6kiTXVsHK7LrbIU45HIYJKE7UpZJNrFOHecApe8Tqe24upBgTpJReaWph0t5TA0sQWuUez6FSq/7Cqcdg4vc3Y3f+9UDEukpoEq9LOiLOEYxzoXkp4TClF67qHjSVFz2wdNq1FsPJa6BKFVePxOdoqy+e8IkxEcq0Uw8Fzw8ZVP7D4oKyFolVP0V3kG5oMceiy/wL27kp1eT7nFVGunUv/586pohByoVLxslC0BNUAP1Vlo9cdNRVQPdVut+/GFCgn15AttGMxD5O11tTMwG16frPzaha5zYGi3vyoTqujwOtMkRDTmtRsuodpOq2C7xNq2Sw8xdb0dPrmnRWygFoEi0nvzpEY3h3RFCQ5x6fAYdGPxr8801oskUUEKljMgVLJo/atXzbIAvqCRpQsaB4DyvlwU1rNZ9Y49VKbYDG7H3f4nNPKwP8CxOocQ38PSyZgwUox4rCme8lT2zKAvY/vH2itV3KMFMWq9+lennuTRVDrWEPaDRmoA2a6ilIvQ6zOc/I9dBXPzqz355nSQUyLXD9v3fj51fTU7Xs5Os6lNRiGodYIq0/aGm5MmIKifMChqykspjm4eVp1hBBb6stfL+tWdtvhFMA8fTbrHhEYOsLaf7vE/mfkL7GpLXVM6h6b8CBWKvmz/xtSRj/2p/xNyrVr/nJAwjycjz53yny9pzXQJFofJdqqOzW0QrBAMWSipbepRoYVLNtSWouIzQN7S6ujV2XVxdi14RIfugsR5mu6NXV7nmoCk+4eka53uJwegtO00vSSHUP3d7pZk6pYkl5jcdj0MF38rjHVhWB5Bg+ZwkfeO1rcUc+Eq7h1IHY+VWr4B5wUjQdUExAsDzluTrwkBzBP7BaBQWkR24UXOMzJ9ShO84b5d4pe/B4GCJanqN74MtxMPYU92k0XkgpihM2TZl0mmhAsTxk13AduYCLTpaLO0quE3tCQFHLubAQgWB6ThvuWL0xLihzfJawTvVyIFYxQQ49QaFXPWTYIluckhz88ttrOx0G3UZswgv+kDtO9ulx/IViek97Aq+bSMKiHZjQuc6WGMopGSe9qedBAsAKgwkvDoAb45mCeIrhQNMoVoGYdF3cgWAGQXRqmNQLeIoV8MYqAdPd2Foaddu/zww8//kgVA8EKBKWTVwR8piUbk5vDiFa6UxhRIZ3GqoBgBUK6sGrhXJYWGBwtkFm+MzhIEZ6FTSZyPY9P1pcvf/5JFQPBCos1Ar7Dl2+2s6vOFwtXd+/3BTk+yUvyuUYT6nBQGSMwNGnYPTYxm3ZXFLXO3tUTQscqSd6QVHGVtrlXoZR6bWodBLynmV11ljwRv6WOj7ZIoZta8ziCbvIxyDzo/IdkRgKCNSBpCP3DtYfcUUk9tPmHrrKf+jmPHp16HZm/iWh3fyezCdHJy9otZo8mOtToHTh8VgsMCRfU+69PrbN/UtCfXEvXGY/bK2Ch4vBaNq51jUCtZh2Vod7wmU2IkJtFb9sPC3cLRU1PRuAXbKxJNQDBugT2IEqFyoTXBUUlLeJt+xqFS0OwQAFIKbeoBpASXgC3e6MkenEcTVEJtCgVrnezqvfX00qLl9LUMxQBkIf45k8/v6YagGCdIbUZVnq9Gp8mbSK4yQXTzZmv6sqKOtK7EnH1eUyjxNR4tkyqk3qvCyUPTH/i5EGiSLWOGyzZDcCadulsoM5DxhCsU5wcctCV7klxG3qzMtGS5g1ZTtToHPzGE5FYU58/vRogyj0XUXz44/190w1eMAWdBRuP2paFpqPnVBMQrGOySyK1XZ2pTrSi5ICSkEMskS6Dq8NPz/Om4sdpEX88ZvHSKlmy7bBt0bDI1zmqg+SATp1+r7fd34oaUennrto/2XXgs1IErZiaYZstpIuuG7J43box80hFqp166nvq9hpF0QrVCATLEKmxZzaE9NlFkgIM2a4iPOvkjuqpUoTqLPxASI/bSjXvm3DxCbe6iu19ghcsPuSptRrFXqMU6jJk8xe9Oj11517Vp+NPC5ftrq+DIQ50T9d+eT14wZJC1n5++wzNslNDwVeIQ8BEONNTM4+pRli4+qmi08Il1UrVon/hl0EBw9GVjd2dso9VKqFi8h0Wq+zcmRWcCBcfunUuTTRR6vWZ2jqDpwlasCyMrk6QNFbbCo/zWCZWp+FDt+Zrazt07LZTd5R6mmAFK7WUtXp2prz2uNDSW7tkIWjDVrE6TVrfStNE2iB7Mc2KT/NkEcEKViQj2yOYZmlpodC+ClacHCprooGryNLEO4s2pokspCxWdXheXUawgqV1PXfVhkHKsftUBsLbgxRWFIaHhdNEdTh+z540Ua+ykNomVkyQgtXtdpvmh2K9YJV1rFKppHJr27LhCezpqTsvyVHY+udrmlhbNzGWkZyzqWZ1ljAjrLHP1ovVMS0CA6F7+hF5QD1jELyuxFsAn+7VPRh6FWEKlpZOOG4KEi0qA+3XpLsWesPFVPAyzglXKTWuvlD9VckWQBGEufwsVRMzs/5gGiir5CnHu59p9Lj38f0DomRBs7VNjg536lIh5Yb68tdLF0TqNHBrAK4T257GFMWtGz/zbcn0viRbIRnxmpUkfs1uDIimicSaJtxsZZ/N0ZM60JobLLpjBKojhegcff7PG9dE6jQQLIsxL8RyXlgiOvDGE0tqb6Ory2hP3WaLl+DsrsPMi5Qrg5MlzUuxJ5YnqC8aF60DIkzBaignnky4cHM5fFDDt2I7uJwgBSsrZLowPCkgWJcgavQWB/UQbKusrrtqw6B6Kohi8qjIKLJ5Dw+UQLCClegjq2sfSHeuhjteBIIi3GGk3sSGzWmhqV8F2f0alEzQ3W3Pg9EIVrB4d4uvp5CdxC7vxQ3FqAOQQscEgiPocW91OP7c0ihrhcClCDQkgiRowbI0ygonusqB6RBCsAIk+IW6zJ3Snqe16QyW7/B45L4LhJAR6lcBgg1gg4qSRStSQ+GmAV0dRDqKCQQHBIuyQVJFSa2mZa54kdvC9ev/2CUQHBCsY9imtkaL2jg5/OSFAV1FIB0MFAjWKdIIp3rRirluVelMkSMGhpcAwQoUCNYZsrRMV5IespEa29JWXrdKDQwBcA8I1gVMT82ssjVteaeXTIFf6uXW1Ix1Z5QAsBkI1nfgQvzJhd4ChSu795bcq/P0txRymgBwEAjWFaSnl6Saz3fssm/2r9rZvTeMLjDZuTUABgcWyQNwfAhgjT/YS1tKuq+1niOtmyZial3mo60UvT62s7UGUztrCV6vrpuJz01KRnpmtggECQRrSE55adeW0uVFUtTUpMhlut3tJup/4YGUMERMZEg2kGdFqNFoEQgOCFaAaCI7BCvHPJikxq8EggOCFSKizAhLzA76mVKK+zQyeuD/DvAHCFaI6PKK1mK4gvgcjYggCcEKEAhWYFQwStDsfng7d9Undf9428oTJZlO5ywX3gkEBQQrNBq9FpVMJOVvV36Oip5QPpo0NoEoKzAgWKGhk9KjEq1p4bIoi2fZtNZLlBMpxAMCQQHBCg1RzdClFPJFd/9f5yIgFjLzotukQhBLBIICg6OBke4RaqqClqTG9t7+uy0t9BZp0TQF+VlTe5qj4r6AtF7Wvnl3i0AQQLACo+q1nFSgNHcDdSk6GYm0FrZFIAiQEgaG1LJFHsGC2O1yxxGEAAQrMKyZci8Q0cjdcQSOYMHKPqiS3f2daipYFcPWPbDt8R9EWAGRDWv6SdSIXhDwHghWSHhwQPV7pLWsASbsgdtAsAJCRpHXDgfp7BfWdbwGghUSynunzpZsXEMB3mMgWAGhRQjnvfQyUkN/gWAFhG8zWN/jeJgUeAgEKyB8nMG6iLQAv//7MgHvgGCFhLDEy70CJEVPUID3DwhWSOigzmM15fjklb5cwC0w6R4I7DQqG4f/prA4UL1PbZwD8wdEWKHAR0vDA1GWZ0CwQsHjKfdL0YTiu0dAsIDvNDGX5Q8QLOA9mMvyBwhWKIhAU0Lqm/xhxMEHIFggCGRjEhd2PACCBYIgO34BXAeCBYJAkFgg4DwQLBAKzf/93/+ZJuA0ECwQDEf6EKftHQeCFQqaYgocHXCn1BcgWCAYtCJEWI4DwQqFMURYpvKOWSzHgWCFwucJOBZoCJbrQLACod1uG8ESQYuWINEi4DQQrJAQGlEWcBoIVkAIkh0KGE0EwXYcCFZAaK1jChpEmK4DwQoIRckbAsBhIFghEdEWBYwgCjol9gEIVkC0f7obB90plJhFcx0IVmBooTYoUKSIEGE5DgQrMEzh/TUFytHno10CTgPBCo3eRKgRVtxuc0oMXAaCFRg88S5IbFFgaNJbBJwHghUgCSUvKTBCFGkfgWCFSJoWhtUtVL1Prwg4DwQrQNJFaKFXKRC00Bvt9j1MuXsABCtQ1OH4cwoE8yJfI+AFEKxAObabCSHKim/dmEE66AkQrIBRvcbTAGpZKwS8AYIVMAHUsuLpqTvBdUR9BoIVOGktS3i7Y7dCwCsEgeDpfng7J4XcJL/g6KpNwCsQYQFq37y75VsBXvXUPAHvgGCBlOmp24+NaPnhZiBoBXuDfgLBAieoKFl0vZ6lSa9N37jzlICXQLDACWzwp7RYdHjUIda9vx8T8BYIFviG9tTtjiKad1C0Yq5bYQXHbyBY4BwnouVOengsVqhb+Q7GGsB36f7xtiWV3DSFoRbZS8eI1SLEKgwQYYHvkta0pJoXQlrpUiqEXlO9T4isAgIRFhiI3Y87T0yktUJWYOprUq1MX58JxnECZECwwMBwihgp8URrsUQ1wVbHuqcfIaoKEwgWGJq9j+8faFKrVda2WKiiKFq5+dPPwV79ARAskIMPf7y/r1WyVGbEBaECp4FggdxwqkgJzQkSD83HHOVCHJjorSOk3FBf/nqJuSpwGggWKByOvJTWs1rrOdK6KYRJHbVsmnip+fWzTOFcKCNOomM+58AIVEcK0Tn6/J83ECkAAAAAAAAAAAAAAAAAAICS+T++ehDAlhPU9gAAAABJRU5ErkJggg==;align=left;" parent="S5ZDTjxf2J-4e3x-WdZ--137" vertex="1">
          <mxGeometry y="45" width="45" height="45" as="geometry" />
        </mxCell>
        <mxCell id="1" value="Apps" style="locked=1;" parent="0" />
        <mxCell id="S5ZDTjxf2J-4e3x-WdZ--1" value="&lt;b&gt;&lt;font style=&quot;font-size: 17px;&quot;&gt;Tera&lt;/font&gt;&lt;/b&gt;&lt;div&gt;&lt;font style=&quot;font-size: 13px;&quot;&gt;tera.lychen.fr&lt;/font&gt;&lt;/div&gt;" style="rounded=1;whiteSpace=wrap;html=1;fillColor=#d5e8d4;strokeColor=#82b366;strokeWidth=2;fillStyle=auto;align=center;verticalAlign=middle;perimeterSpacing=0;container=0;spacing=15;fontFamily=Helvetica;fontSize=12;fontColor=default;" parent="1" vertex="1">
          <mxGeometry x="480" y="320" width="100" height="100" as="geometry" />
        </mxCell>
        <mxCell id="S5ZDTjxf2J-4e3x-WdZ--3" value="&lt;b&gt;&lt;font style=&quot;font-size: 17px;&quot;&gt;Humu&lt;/font&gt;&lt;/b&gt;&lt;div&gt;&lt;font style=&quot;font-size: 13px;&quot;&gt;humu.lychen.fr&lt;/font&gt;&lt;/div&gt;" style="rounded=1;whiteSpace=wrap;html=1;fillColor=#d5e8d4;strokeColor=#82b366;strokeWidth=2;fillStyle=auto;align=center;verticalAlign=middle;perimeterSpacing=0;container=0;spacing=15;fontFamily=Helvetica;fontSize=12;fontColor=default;" parent="1" vertex="1">
          <mxGeometry x="720" y="320" width="100" height="100" as="geometry" />
        </mxCell>
        <mxCell id="S5ZDTjxf2J-4e3x-WdZ--5" value="&lt;b&gt;&lt;font style=&quot;font-size: 17px;&quot;&gt;Kiro&lt;/font&gt;&lt;/b&gt;&lt;div&gt;&lt;font style=&quot;font-size: 13px;&quot;&gt;kiro.lychen.fr&lt;/font&gt;&lt;/div&gt;" style="rounded=1;whiteSpace=wrap;html=1;fillColor=#d5e8d4;strokeColor=#82b366;strokeWidth=2;fillStyle=auto;align=center;verticalAlign=middle;perimeterSpacing=0;container=0;spacing=15;fontFamily=Helvetica;fontSize=12;fontColor=default;" parent="1" vertex="1">
          <mxGeometry x="360" y="320" width="100" height="100" as="geometry" />
        </mxCell>
        <mxCell id="S5ZDTjxf2J-4e3x-WdZ--6" value="&lt;b&gt;&lt;font style=&quot;font-size: 17px;&quot;&gt;Meli&lt;/font&gt;&lt;/b&gt;&lt;div&gt;&lt;font style=&quot;font-size: 13px;&quot;&gt;meli.lychen.fr&lt;/font&gt;&lt;/div&gt;" style="rounded=1;whiteSpace=wrap;html=1;fillColor=#d5e8d4;strokeColor=#82b366;strokeWidth=2;fillStyle=auto;align=center;verticalAlign=middle;perimeterSpacing=0;container=0;spacing=15;fontFamily=Helvetica;fontSize=12;fontColor=default;" parent="1" vertex="1">
          <mxGeometry x="840" y="320" width="100" height="100" as="geometry" />
        </mxCell>
        <mxCell id="S5ZDTjxf2J-4e3x-WdZ--9" value="&lt;b&gt;&lt;font style=&quot;font-size: 17px;&quot;&gt;Eko&lt;/font&gt;&lt;/b&gt;&lt;div&gt;&lt;font style=&quot;font-size: 13px;&quot;&gt;eko.lychen.fr&lt;/font&gt;&lt;/div&gt;" style="rounded=1;whiteSpace=wrap;html=1;fillColor=#d5e8d4;strokeColor=#82b366;strokeWidth=2;fillStyle=auto;align=center;verticalAlign=middle;perimeterSpacing=0;container=0;spacing=15;fontFamily=Helvetica;fontSize=12;fontColor=default;" parent="1" vertex="1">
          <mxGeometry x="1440" y="320" width="100" height="100" as="geometry" />
        </mxCell>
        <mxCell id="S5ZDTjxf2J-4e3x-WdZ--10" value="&lt;b&gt;&lt;font style=&quot;font-size: 17px;&quot;&gt;Myko&lt;/font&gt;&lt;/b&gt;&lt;div&gt;&lt;font style=&quot;font-size: 13px;&quot;&gt;myko.lychen.fr&lt;/font&gt;&lt;/div&gt;" style="rounded=1;whiteSpace=wrap;html=1;fillColor=#d5e8d4;strokeColor=#82b366;strokeWidth=2;fillStyle=auto;align=center;verticalAlign=middle;perimeterSpacing=0;container=0;spacing=15;fontFamily=Helvetica;fontSize=12;fontColor=default;" parent="1" vertex="1">
          <mxGeometry x="1320" y="320" width="100" height="100" as="geometry" />
        </mxCell>
        <mxCell id="S5ZDTjxf2J-4e3x-WdZ--11" value="&lt;b&gt;&lt;font style=&quot;font-size: 17px;&quot;&gt;Luna&lt;/font&gt;&lt;/b&gt;&lt;div&gt;&lt;font style=&quot;font-size: 13px;&quot;&gt;luna.lychen.fr&lt;/font&gt;&lt;/div&gt;" style="rounded=1;whiteSpace=wrap;html=1;fillColor=#d5e8d4;strokeColor=#82b366;strokeWidth=2;fillStyle=auto;align=center;verticalAlign=middle;perimeterSpacing=0;container=0;spacing=15;fontFamily=Helvetica;fontSize=12;fontColor=default;" parent="1" vertex="1">
          <mxGeometry x="960" y="320" width="100" height="100" as="geometry" />
        </mxCell>
        <mxCell id="S5ZDTjxf2J-4e3x-WdZ--13" value="&lt;b&gt;&lt;font style=&quot;font-size: 17px;&quot;&gt;Vara&lt;/font&gt;&lt;/b&gt;&lt;div&gt;&lt;font style=&quot;font-size: 13px;&quot;&gt;vara.lychen.fr&lt;/font&gt;&lt;/div&gt;" style="rounded=1;whiteSpace=wrap;html=1;fillColor=#d5e8d4;strokeColor=#82b366;strokeWidth=2;fillStyle=auto;align=center;verticalAlign=middle;perimeterSpacing=0;container=0;spacing=15;fontFamily=Helvetica;fontSize=12;fontColor=default;" parent="1" vertex="1">
          <mxGeometry x="1080" y="320" width="100" height="100" as="geometry" />
        </mxCell>
        <mxCell id="S5ZDTjxf2J-4e3x-WdZ--14" value="&lt;b&gt;&lt;font style=&quot;font-size: 17px;&quot;&gt;Novi&lt;/font&gt;&lt;/b&gt;&lt;div&gt;&lt;font style=&quot;font-size: 13px;&quot;&gt;novi.lychen.fr&lt;/font&gt;&lt;/div&gt;" style="rounded=1;whiteSpace=wrap;html=1;fillColor=#d5e8d4;strokeColor=#82b366;strokeWidth=2;fillStyle=auto;align=center;verticalAlign=middle;perimeterSpacing=0;container=0;spacing=15;fontFamily=Helvetica;fontSize=12;fontColor=default;" parent="1" vertex="1">
          <mxGeometry x="600" y="320" width="100" height="100" as="geometry" />
        </mxCell>
        <mxCell id="S5ZDTjxf2J-4e3x-WdZ--15" value="&lt;b&gt;&lt;font style=&quot;font-size: 17px;&quot;&gt;Kolo&lt;/font&gt;&lt;/b&gt;&lt;div&gt;&lt;font style=&quot;font-size: 13px;&quot;&gt;kolo.lychen.fr&lt;/font&gt;&lt;/div&gt;" style="rounded=1;whiteSpace=wrap;html=1;fillColor=#d5e8d4;strokeColor=#82b366;strokeWidth=2;fillStyle=auto;align=center;verticalAlign=middle;perimeterSpacing=0;container=0;spacing=15;fontFamily=Helvetica;fontSize=12;fontColor=default;" parent="1" vertex="1">
          <mxGeometry x="1200" y="320" width="100" height="100" as="geometry" />
        </mxCell>
        <mxCell id="S5ZDTjxf2J-4e3x-WdZ--52" value="&lt;b&gt;&lt;font style=&quot;font-size: 17px;&quot;&gt;Robust&lt;/font&gt;&lt;/b&gt;&lt;div&gt;&lt;span style=&quot;font-size: 13px; background-color: transparent; color: light-dark(rgb(0, 0, 0), rgb(255, 255, 255));&quot;&gt;robust.lychen.fr&lt;/span&gt;&lt;/div&gt;" style="rounded=1;whiteSpace=wrap;html=1;fillColor=#b1ddf0;strokeColor=#10739e;strokeWidth=2;fillStyle=auto;align=center;verticalAlign=middle;perimeterSpacing=0;container=0;spacing=15;fontFamily=Helvetica;fontSize=12;" parent="1" vertex="1">
          <mxGeometry x="1560" y="320" width="100" height="100" as="geometry" />
        </mxCell>
        <object label="Producer" id="S5ZDTjxf2J-4e3x-WdZ--30">
          <mxCell style="" parent="0" />
        </object>
        <mxCell id="S5ZDTjxf2J-4e3x-WdZ--142" value="" style="edgeStyle=orthogonalEdgeStyle;rounded=1;orthogonalLoop=1;jettySize=auto;html=1;flowAnimation=1;strokeWidth=3;shadow=0;jumpStyle=none;curved=1;flowAnimationDuration=1000;exitX=0.5;exitY=1;exitDx=0;exitDy=0;strokeColor=#d79b00;align=center;verticalAlign=middle;fontFamily=Helvetica;fontSize=11;fontColor=default;labelBackgroundColor=default;startArrow=oval;startFill=1;endArrow=none;startSize=6;dashed=1;fillColor=#ffe6cc;endFill=0;entryX=0.5;entryY=0;entryDx=0;entryDy=0;" parent="S5ZDTjxf2J-4e3x-WdZ--30" source="S5ZDTjxf2J-4e3x-WdZ--140" target="S5ZDTjxf2J-4e3x-WdZ--11" edge="1">
          <mxGeometry relative="1" as="geometry">
            <mxPoint x="570" y="-60" as="sourcePoint" />
            <mxPoint x="1045" y="190" as="targetPoint" />
          </mxGeometry>
        </mxCell>
        <mxCell id="S5ZDTjxf2J-4e3x-WdZ--126" style="edgeStyle=orthogonalEdgeStyle;rounded=1;orthogonalLoop=1;jettySize=auto;html=1;flowAnimation=1;strokeWidth=3;shadow=0;jumpStyle=none;curved=1;flowAnimationDuration=1000;exitX=0.5;exitY=1;exitDx=0;exitDy=0;entryX=0.5;entryY=0;entryDx=0;entryDy=0;strokeColor=#d79b00;align=center;verticalAlign=middle;fontFamily=Helvetica;fontSize=11;fontColor=default;labelBackgroundColor=default;startArrow=oval;startFill=1;endArrow=none;startSize=6;dashed=1;fillColor=#ffe6cc;endFill=0;" parent="S5ZDTjxf2J-4e3x-WdZ--30" source="S5ZDTjxf2J-4e3x-WdZ--116" target="S5ZDTjxf2J-4e3x-WdZ--1" edge="1">
          <mxGeometry relative="1" as="geometry">
            <mxPoint x="445" y="210" as="sourcePoint" />
            <mxPoint x="495" y="330" as="targetPoint" />
          </mxGeometry>
        </mxCell>
        <mxCell id="S5ZDTjxf2J-4e3x-WdZ--127" style="edgeStyle=orthogonalEdgeStyle;rounded=1;orthogonalLoop=1;jettySize=auto;html=1;flowAnimation=1;strokeWidth=3;shadow=0;jumpStyle=none;curved=1;flowAnimationDuration=1000;entryX=0.5;entryY=0;entryDx=0;entryDy=0;strokeColor=#d79b00;align=center;verticalAlign=middle;fontFamily=Helvetica;fontSize=11;fontColor=default;labelBackgroundColor=default;startArrow=oval;startFill=1;endArrow=none;startSize=6;dashed=1;fillColor=#ffe6cc;endFill=0;exitX=0.5;exitY=1;exitDx=0;exitDy=0;" parent="S5ZDTjxf2J-4e3x-WdZ--30" source="S5ZDTjxf2J-4e3x-WdZ--117" target="S5ZDTjxf2J-4e3x-WdZ--14" edge="1">
          <mxGeometry relative="1" as="geometry">
            <mxPoint x="665" y="195" as="sourcePoint" />
            <mxPoint x="635" y="450" as="targetPoint" />
          </mxGeometry>
        </mxCell>
        <mxCell id="S5ZDTjxf2J-4e3x-WdZ--128" style="edgeStyle=orthogonalEdgeStyle;rounded=1;orthogonalLoop=1;jettySize=auto;html=1;flowAnimation=1;strokeWidth=3;shadow=0;jumpStyle=none;curved=1;flowAnimationDuration=1000;entryX=0.5;entryY=0;entryDx=0;entryDy=0;strokeColor=#d79b00;align=center;verticalAlign=middle;fontFamily=Helvetica;fontSize=11;fontColor=default;labelBackgroundColor=default;startArrow=oval;startFill=1;endArrow=none;startSize=6;dashed=1;fillColor=#ffe6cc;endFill=0;exitX=0.5;exitY=1;exitDx=0;exitDy=0;" parent="S5ZDTjxf2J-4e3x-WdZ--30" source="S5ZDTjxf2J-4e3x-WdZ--115" target="S5ZDTjxf2J-4e3x-WdZ--5" edge="1">
          <mxGeometry relative="1" as="geometry">
            <mxPoint x="195" y="220" as="sourcePoint" />
            <mxPoint x="385" y="450" as="targetPoint" />
          </mxGeometry>
        </mxCell>
        <mxCell id="S5ZDTjxf2J-4e3x-WdZ--129" style="edgeStyle=orthogonalEdgeStyle;rounded=1;orthogonalLoop=1;jettySize=auto;html=1;flowAnimation=1;strokeWidth=3;shadow=0;jumpStyle=none;curved=1;flowAnimationDuration=1000;exitX=0.5;exitY=1;exitDx=0;exitDy=0;strokeColor=#d79b00;align=center;verticalAlign=middle;fontFamily=Helvetica;fontSize=11;fontColor=default;labelBackgroundColor=default;startArrow=oval;startFill=1;endArrow=none;startSize=6;dashed=1;fillColor=#ffe6cc;endFill=0;entryX=0.5;entryY=0;entryDx=0;entryDy=0;" parent="S5ZDTjxf2J-4e3x-WdZ--30" source="S5ZDTjxf2J-4e3x-WdZ--103" target="S5ZDTjxf2J-4e3x-WdZ--6" edge="1">
          <mxGeometry relative="1" as="geometry">
            <mxPoint x="965" y="160" as="sourcePoint" />
            <mxPoint x="1035" y="330" as="targetPoint" />
          </mxGeometry>
        </mxCell>
        <mxCell id="S5ZDTjxf2J-4e3x-WdZ--130" value="" style="edgeStyle=orthogonalEdgeStyle;rounded=1;orthogonalLoop=1;jettySize=auto;html=1;flowAnimation=1;strokeWidth=3;shadow=0;jumpStyle=none;curved=1;flowAnimationDuration=1000;exitX=0.5;exitY=1;exitDx=0;exitDy=0;strokeColor=#d79b00;align=center;verticalAlign=middle;fontFamily=Helvetica;fontSize=11;fontColor=default;labelBackgroundColor=default;startArrow=oval;startFill=1;endArrow=none;startSize=6;dashed=1;fillColor=#ffe6cc;endFill=0;entryX=0.5;entryY=0;entryDx=0;entryDy=0;" parent="S5ZDTjxf2J-4e3x-WdZ--30" source="S5ZDTjxf2J-4e3x-WdZ--104" target="S5ZDTjxf2J-4e3x-WdZ--13" edge="1">
          <mxGeometry relative="1" as="geometry">
            <mxPoint x="1265" y="160" as="sourcePoint" />
            <mxPoint x="1305" y="330" as="targetPoint" />
          </mxGeometry>
        </mxCell>
        <mxCell id="S5ZDTjxf2J-4e3x-WdZ--131" style="edgeStyle=orthogonalEdgeStyle;rounded=1;orthogonalLoop=1;jettySize=auto;html=1;flowAnimation=1;strokeWidth=3;shadow=0;jumpStyle=none;curved=1;flowAnimationDuration=1000;exitX=0.5;exitY=1;exitDx=0;exitDy=0;strokeColor=#d79b00;align=center;verticalAlign=middle;fontFamily=Helvetica;fontSize=11;fontColor=default;labelBackgroundColor=default;startArrow=oval;startFill=1;endArrow=none;startSize=6;dashed=1;fillColor=#ffe6cc;endFill=0;entryX=0.5;entryY=0;entryDx=0;entryDy=0;" parent="S5ZDTjxf2J-4e3x-WdZ--30" source="S5ZDTjxf2J-4e3x-WdZ--119" target="S5ZDTjxf2J-4e3x-WdZ--3" edge="1">
          <mxGeometry relative="1" as="geometry">
            <mxPoint x="835" y="270" as="sourcePoint" />
            <mxPoint x="915" y="460" as="targetPoint" />
          </mxGeometry>
        </mxCell>
        <mxCell id="S5ZDTjxf2J-4e3x-WdZ--132" value="" style="edgeStyle=orthogonalEdgeStyle;rounded=1;orthogonalLoop=1;jettySize=auto;html=1;flowAnimation=1;strokeWidth=3;shadow=0;jumpStyle=none;curved=1;flowAnimationDuration=1000;strokeColor=#d79b00;align=center;verticalAlign=middle;fontFamily=Helvetica;fontSize=11;fontColor=default;labelBackgroundColor=default;startArrow=oval;startFill=1;endArrow=none;startSize=6;dashed=1;fillColor=#ffe6cc;endFill=0;entryDx=0;entryDy=0;exitDx=0;exitDy=0;entryX=0.5;entryY=0;exitX=0.5;exitY=1;" parent="S5ZDTjxf2J-4e3x-WdZ--30" source="S5ZDTjxf2J-4e3x-WdZ--122" target="S5ZDTjxf2J-4e3x-WdZ--15" edge="1">
          <mxGeometry relative="1" as="geometry">
            <mxPoint x="1125" y="240" as="sourcePoint" />
            <mxPoint x="1175" y="460" as="targetPoint" />
          </mxGeometry>
        </mxCell>
        <mxCell id="S5ZDTjxf2J-4e3x-WdZ--135" value="" style="edgeStyle=orthogonalEdgeStyle;rounded=1;orthogonalLoop=1;jettySize=auto;html=1;flowAnimation=1;strokeWidth=3;shadow=0;jumpStyle=none;curved=1;flowAnimationDuration=1000;exitX=0.5;exitY=1;exitDx=0;exitDy=0;strokeColor=#d79b00;align=center;verticalAlign=middle;fontFamily=Helvetica;fontSize=11;fontColor=default;labelBackgroundColor=default;startArrow=oval;startFill=1;endArrow=none;startSize=6;dashed=1;fillColor=#ffe6cc;endFill=0;entryX=0.5;entryY=0;entryDx=0;entryDy=0;" parent="S5ZDTjxf2J-4e3x-WdZ--30" source="S5ZDTjxf2J-4e3x-WdZ--133" target="S5ZDTjxf2J-4e3x-WdZ--10" edge="1">
          <mxGeometry relative="1" as="geometry">
            <mxPoint x="1385" y="160" as="sourcePoint" />
            <mxPoint x="1315" y="340" as="targetPoint" />
            <Array as="points">
              <mxPoint x="1465" y="210" />
              <mxPoint x="1420" y="210" />
              <mxPoint x="1420" y="320" />
            </Array>
          </mxGeometry>
        </mxCell>
        <mxCell id="S5ZDTjxf2J-4e3x-WdZ--103" value="&lt;span style=&quot;font-size: 15px;&quot;&gt;&lt;b&gt;Gérer un rucher et bénéficier des services de pollinisation&lt;/b&gt;&lt;/span&gt;" style="rounded=1;whiteSpace=wrap;html=1;fillColor=#ffe6cc;strokeColor=none;" parent="S5ZDTjxf2J-4e3x-WdZ--30" vertex="1">
          <mxGeometry x="810" y="30" width="190" height="80" as="geometry" />
        </mxCell>
        <mxCell id="S5ZDTjxf2J-4e3x-WdZ--104" value="&lt;span style=&quot;font-size: 15px;&quot;&gt;&lt;b&gt;Gérer la biodiversité sur son espace de culture&lt;/b&gt;&lt;/span&gt;" style="rounded=1;whiteSpace=wrap;html=1;fillColor=#ffe6cc;strokeColor=none;" parent="S5ZDTjxf2J-4e3x-WdZ--30" vertex="1">
          <mxGeometry x="1090" y="85" width="200" height="60" as="geometry" />
        </mxCell>
        <mxCell id="S5ZDTjxf2J-4e3x-WdZ--115" value="&lt;span style=&quot;font-size: 15px;&quot;&gt;&lt;b&gt;Gérer les paniers d’AMAP, les distributions et la communication avec les amapien·ne·s&lt;/b&gt;&lt;/span&gt;" style="rounded=1;whiteSpace=wrap;html=1;fillColor=#ffe6cc;strokeColor=none;" parent="S5ZDTjxf2J-4e3x-WdZ--30" vertex="1">
          <mxGeometry x="160" y="-10" width="210" height="90" as="geometry" />
        </mxCell>
        <mxCell id="S5ZDTjxf2J-4e3x-WdZ--117" value="&lt;span style=&quot;font-size: 15px;&quot;&gt;&lt;b&gt;Partager, analyser et approfondir les données avec les chercheurs&lt;/b&gt;&lt;/span&gt;" style="rounded=1;whiteSpace=wrap;html=1;fillColor=#ffe6cc;strokeColor=none;" parent="S5ZDTjxf2J-4e3x-WdZ--30" vertex="1">
          <mxGeometry x="530" y="85" width="210" height="90" as="geometry" />
        </mxCell>
        <mxCell id="S5ZDTjxf2J-4e3x-WdZ--116" value="&lt;span style=&quot;font-size: 15px;&quot;&gt;&lt;b&gt;Gérer sa production, constituer un historique et faciliter la planification&lt;/b&gt;&lt;/span&gt;" style="rounded=1;whiteSpace=wrap;html=1;fillColor=#ffe6cc;strokeColor=none;" parent="S5ZDTjxf2J-4e3x-WdZ--30" vertex="1">
          <mxGeometry x="310" y="100" width="210" height="80" as="geometry" />
        </mxCell>
        <mxCell id="S5ZDTjxf2J-4e3x-WdZ--119" value="&lt;span style=&quot;font-size: 15px;&quot;&gt;&lt;b&gt;Accéder aux ressources en biomasse du territoire&lt;/b&gt;&lt;/span&gt;" style="rounded=1;whiteSpace=wrap;html=1;fillColor=#ffe6cc;strokeColor=none;" parent="S5ZDTjxf2J-4e3x-WdZ--30" vertex="1">
          <mxGeometry x="670" y="200" width="210" height="60" as="geometry" />
        </mxCell>
        <mxCell id="S5ZDTjxf2J-4e3x-WdZ--122" value="&lt;span style=&quot;font-size: 15px;&quot;&gt;&lt;b&gt;Gérer la vente directe et les magasins de producteurs&lt;/b&gt;&lt;/span&gt;" style="rounded=1;whiteSpace=wrap;html=1;fillColor=#ffe6cc;strokeColor=none;" parent="S5ZDTjxf2J-4e3x-WdZ--30" vertex="1">
          <mxGeometry x="1220" y="160" width="190" height="60" as="geometry" />
        </mxCell>
        <mxCell id="S5ZDTjxf2J-4e3x-WdZ--133" value="&lt;span style=&quot;font-size: 15px;&quot;&gt;&lt;b&gt;Gérer sa production, constitution d&#39;un historique, aide à la planification&lt;/b&gt;&lt;/span&gt;" style="rounded=1;whiteSpace=wrap;html=1;fillColor=#ffe6cc;strokeColor=none;" parent="S5ZDTjxf2J-4e3x-WdZ--30" vertex="1">
          <mxGeometry x="1360" y="20" width="210" height="80" as="geometry" />
        </mxCell>
        <mxCell id="S5ZDTjxf2J-4e3x-WdZ--140" value="&lt;span style=&quot;font-size: 15px;&quot;&gt;&lt;b&gt;Accéder au calendrier lunaire et aux pratiques anciennes&lt;/b&gt;&lt;/span&gt;" style="rounded=1;whiteSpace=wrap;html=1;fillColor=#ffe6cc;strokeColor=none;" parent="S5ZDTjxf2J-4e3x-WdZ--30" vertex="1">
          <mxGeometry x="930" y="180" width="210" height="60" as="geometry" />
        </mxCell>
        <mxCell id="S5ZDTjxf2J-4e3x-WdZ--194" style="edgeStyle=orthogonalEdgeStyle;rounded=1;orthogonalLoop=1;jettySize=auto;html=1;flowAnimation=1;strokeWidth=3;shadow=0;jumpStyle=none;curved=1;flowAnimationDuration=1000;exitX=0.5;exitY=1;exitDx=0;exitDy=0;entryX=0.5;entryY=0;entryDx=0;entryDy=0;strokeColor=#d79b00;align=center;verticalAlign=middle;fontFamily=Helvetica;fontSize=11;fontColor=default;labelBackgroundColor=default;startArrow=oval;startFill=1;endArrow=none;startSize=6;dashed=1;fillColor=#ffe6cc;endFill=0;" parent="S5ZDTjxf2J-4e3x-WdZ--30" source="S5ZDTjxf2J-4e3x-WdZ--62" target="S5ZDTjxf2J-4e3x-WdZ--115" edge="1">
          <mxGeometry relative="1" as="geometry">
            <mxPoint x="451" y="170" as="sourcePoint" />
            <mxPoint x="540" y="330" as="targetPoint" />
          </mxGeometry>
        </mxCell>
        <mxCell id="S5ZDTjxf2J-4e3x-WdZ--195" style="edgeStyle=orthogonalEdgeStyle;rounded=1;orthogonalLoop=1;jettySize=auto;html=1;flowAnimation=1;strokeWidth=3;shadow=0;jumpStyle=none;curved=1;flowAnimationDuration=1000;exitX=0.5;exitY=1;exitDx=0;exitDy=0;strokeColor=#d79b00;align=center;verticalAlign=middle;fontFamily=Helvetica;fontSize=11;fontColor=default;labelBackgroundColor=default;startArrow=oval;startFill=1;endArrow=none;startSize=6;dashed=1;fillColor=#ffe6cc;endFill=0;" parent="S5ZDTjxf2J-4e3x-WdZ--30" source="S5ZDTjxf2J-4e3x-WdZ--62" target="S5ZDTjxf2J-4e3x-WdZ--116" edge="1">
          <mxGeometry relative="1" as="geometry">
            <mxPoint x="530" y="-60" as="sourcePoint" />
            <mxPoint x="325" y="-20" as="targetPoint" />
          </mxGeometry>
        </mxCell>
        <mxCell id="S5ZDTjxf2J-4e3x-WdZ--196" style="edgeStyle=orthogonalEdgeStyle;rounded=1;orthogonalLoop=1;jettySize=auto;html=1;flowAnimation=1;strokeWidth=3;shadow=0;jumpStyle=none;curved=1;flowAnimationDuration=1000;exitX=0.5;exitY=1;exitDx=0;exitDy=0;strokeColor=#d79b00;align=center;verticalAlign=middle;fontFamily=Helvetica;fontSize=11;fontColor=default;labelBackgroundColor=default;startArrow=oval;startFill=1;endArrow=none;startSize=6;dashed=1;fillColor=#ffe6cc;endFill=0;entryX=0.5;entryY=0;entryDx=0;entryDy=0;" parent="S5ZDTjxf2J-4e3x-WdZ--30" source="S5ZDTjxf2J-4e3x-WdZ--62" target="S5ZDTjxf2J-4e3x-WdZ--117" edge="1">
          <mxGeometry relative="1" as="geometry">
            <mxPoint x="530" y="-60" as="sourcePoint" />
            <mxPoint x="451" y="90" as="targetPoint" />
          </mxGeometry>
        </mxCell>
        <mxCell id="S5ZDTjxf2J-4e3x-WdZ--197" style="edgeStyle=orthogonalEdgeStyle;rounded=1;orthogonalLoop=1;jettySize=auto;html=1;flowAnimation=1;strokeWidth=3;shadow=0;jumpStyle=none;curved=1;flowAnimationDuration=1000;exitX=0.5;exitY=1;exitDx=0;exitDy=0;strokeColor=#d79b00;align=center;verticalAlign=middle;fontFamily=Helvetica;fontSize=11;fontColor=default;labelBackgroundColor=default;startArrow=oval;startFill=1;endArrow=none;startSize=6;dashed=1;fillColor=#ffe6cc;endFill=0;entryX=0.5;entryY=0;entryDx=0;entryDy=0;" parent="S5ZDTjxf2J-4e3x-WdZ--30" source="S5ZDTjxf2J-4e3x-WdZ--62" target="S5ZDTjxf2J-4e3x-WdZ--119" edge="1">
          <mxGeometry relative="1" as="geometry">
            <mxPoint x="530" y="-60" as="sourcePoint" />
            <mxPoint x="675" y="110" as="targetPoint" />
            <Array as="points">
              <mxPoint x="510" />
              <mxPoint x="775" />
            </Array>
          </mxGeometry>
        </mxCell>
        <mxCell id="S5ZDTjxf2J-4e3x-WdZ--198" style="edgeStyle=orthogonalEdgeStyle;rounded=1;orthogonalLoop=1;jettySize=auto;html=1;flowAnimation=1;strokeWidth=3;shadow=0;jumpStyle=none;curved=1;flowAnimationDuration=1000;exitX=0.5;exitY=1;exitDx=0;exitDy=0;strokeColor=#d79b00;align=center;verticalAlign=middle;fontFamily=Helvetica;fontSize=11;fontColor=default;labelBackgroundColor=default;startArrow=oval;startFill=1;endArrow=none;startSize=6;dashed=1;fillColor=#ffe6cc;endFill=0;entryX=0.5;entryY=0;entryDx=0;entryDy=0;" parent="S5ZDTjxf2J-4e3x-WdZ--30" source="S5ZDTjxf2J-4e3x-WdZ--62" target="S5ZDTjxf2J-4e3x-WdZ--103" edge="1">
          <mxGeometry relative="1" as="geometry">
            <mxPoint x="530" y="-60" as="sourcePoint" />
            <mxPoint x="645" y="95" as="targetPoint" />
          </mxGeometry>
        </mxCell>
        <mxCell id="S5ZDTjxf2J-4e3x-WdZ--200" value="&lt;span style=&quot;font-size: 15px;&quot;&gt;&lt;b&gt;S’intégrer dans l’écosystème local : demander de l’aide et proposer des dons&lt;/b&gt;&lt;/span&gt;" style="rounded=1;whiteSpace=wrap;html=1;fillColor=#ffe6cc;strokeColor=none;" parent="S5ZDTjxf2J-4e3x-WdZ--30" vertex="1">
          <mxGeometry x="1470" y="130" width="230" height="80" as="geometry" />
        </mxCell>
        <mxCell id="S5ZDTjxf2J-4e3x-WdZ--201" value="" style="edgeStyle=orthogonalEdgeStyle;rounded=1;orthogonalLoop=1;jettySize=auto;html=1;flowAnimation=1;strokeWidth=3;shadow=0;jumpStyle=none;curved=1;flowAnimationDuration=1000;exitX=0.5;exitY=1;exitDx=0;exitDy=0;strokeColor=#d79b00;align=center;verticalAlign=middle;fontFamily=Helvetica;fontSize=11;fontColor=default;labelBackgroundColor=default;startArrow=oval;startFill=1;endArrow=none;startSize=6;dashed=1;fillColor=#ffe6cc;endFill=0;entryX=0.5;entryY=0;entryDx=0;entryDy=0;" parent="S5ZDTjxf2J-4e3x-WdZ--30" source="S5ZDTjxf2J-4e3x-WdZ--200" target="S5ZDTjxf2J-4e3x-WdZ--52" edge="1">
          <mxGeometry relative="1" as="geometry">
            <mxPoint x="1435" y="110" as="sourcePoint" />
            <mxPoint x="1380" y="330" as="targetPoint" />
          </mxGeometry>
        </mxCell>
        <mxCell id="S5ZDTjxf2J-4e3x-WdZ--202" style="edgeStyle=orthogonalEdgeStyle;rounded=1;orthogonalLoop=1;jettySize=auto;html=1;flowAnimation=1;strokeWidth=3;shadow=0;jumpStyle=none;curved=1;flowAnimationDuration=1000;exitX=0.5;exitY=1;exitDx=0;exitDy=0;strokeColor=#d79b00;align=center;verticalAlign=middle;fontFamily=Helvetica;fontSize=11;fontColor=default;labelBackgroundColor=default;startArrow=oval;startFill=1;endArrow=none;startSize=6;dashed=1;fillColor=#ffe6cc;endFill=0;entryX=0.5;entryY=0;entryDx=0;entryDy=0;" parent="S5ZDTjxf2J-4e3x-WdZ--30" source="S5ZDTjxf2J-4e3x-WdZ--62" target="S5ZDTjxf2J-4e3x-WdZ--140" edge="1">
          <mxGeometry relative="1" as="geometry">
            <mxPoint x="530" y="-60" as="sourcePoint" />
            <mxPoint x="925" y="40" as="targetPoint" />
            <Array as="points">
              <mxPoint x="510" y="-10" />
              <mxPoint x="1060" y="-10" />
              <mxPoint x="1060" y="180" />
            </Array>
          </mxGeometry>
        </mxCell>
        <mxCell id="S5ZDTjxf2J-4e3x-WdZ--203" style="edgeStyle=orthogonalEdgeStyle;rounded=1;orthogonalLoop=1;jettySize=auto;html=1;flowAnimation=1;strokeWidth=3;shadow=0;jumpStyle=none;curved=1;flowAnimationDuration=1000;exitX=0.5;exitY=1;exitDx=0;exitDy=0;strokeColor=#d79b00;align=center;verticalAlign=middle;fontFamily=Helvetica;fontSize=11;fontColor=default;labelBackgroundColor=default;startArrow=oval;startFill=1;endArrow=none;startSize=6;dashed=1;fillColor=#ffe6cc;endFill=0;entryX=0.5;entryY=0;entryDx=0;entryDy=0;" parent="S5ZDTjxf2J-4e3x-WdZ--30" source="S5ZDTjxf2J-4e3x-WdZ--62" target="S5ZDTjxf2J-4e3x-WdZ--104" edge="1">
          <mxGeometry relative="1" as="geometry">
            <mxPoint x="530" y="-60" as="sourcePoint" />
            <mxPoint x="1045" y="190" as="targetPoint" />
          </mxGeometry>
        </mxCell>
        <mxCell id="S5ZDTjxf2J-4e3x-WdZ--205" style="edgeStyle=orthogonalEdgeStyle;rounded=1;orthogonalLoop=1;jettySize=auto;html=1;flowAnimation=1;strokeWidth=3;shadow=0;jumpStyle=none;curved=1;flowAnimationDuration=1000;exitX=0.5;exitY=1;exitDx=0;exitDy=0;strokeColor=#d79b00;align=center;verticalAlign=middle;fontFamily=Helvetica;fontSize=11;fontColor=default;labelBackgroundColor=default;startArrow=oval;startFill=1;endArrow=none;startSize=6;dashed=1;fillColor=#ffe6cc;endFill=0;entryX=0.5;entryY=0;entryDx=0;entryDy=0;" parent="S5ZDTjxf2J-4e3x-WdZ--30" source="S5ZDTjxf2J-4e3x-WdZ--62" target="S5ZDTjxf2J-4e3x-WdZ--122" edge="1">
          <mxGeometry relative="1" as="geometry">
            <mxPoint x="530" y="-60" as="sourcePoint" />
            <mxPoint x="1205" y="95" as="targetPoint" />
            <Array as="points">
              <mxPoint x="520" />
              <mxPoint x="1320" />
            </Array>
          </mxGeometry>
        </mxCell>
        <mxCell id="S5ZDTjxf2J-4e3x-WdZ--207" style="edgeStyle=orthogonalEdgeStyle;rounded=1;orthogonalLoop=1;jettySize=auto;html=1;flowAnimation=1;strokeWidth=3;shadow=0;jumpStyle=none;curved=1;flowAnimationDuration=1000;exitX=0.5;exitY=1;exitDx=0;exitDy=0;strokeColor=#d79b00;align=center;verticalAlign=middle;fontFamily=Helvetica;fontSize=11;fontColor=default;labelBackgroundColor=default;startArrow=oval;startFill=1;endArrow=none;startSize=6;dashed=1;fillColor=#ffe6cc;endFill=0;entryX=0.5;entryY=0;entryDx=0;entryDy=0;" parent="S5ZDTjxf2J-4e3x-WdZ--30" source="S5ZDTjxf2J-4e3x-WdZ--62" target="S5ZDTjxf2J-4e3x-WdZ--133" edge="1">
          <mxGeometry relative="1" as="geometry">
            <mxPoint x="530" y="-60" as="sourcePoint" />
            <mxPoint x="1205" y="95" as="targetPoint" />
          </mxGeometry>
        </mxCell>
        <mxCell id="S5ZDTjxf2J-4e3x-WdZ--208" style="edgeStyle=orthogonalEdgeStyle;rounded=1;orthogonalLoop=1;jettySize=auto;html=1;flowAnimation=1;strokeWidth=3;shadow=0;jumpStyle=none;curved=1;flowAnimationDuration=1000;exitX=0.5;exitY=1;exitDx=0;exitDy=0;strokeColor=#d79b00;align=center;verticalAlign=middle;fontFamily=Helvetica;fontSize=11;fontColor=default;labelBackgroundColor=default;startArrow=oval;startFill=1;endArrow=none;startSize=6;dashed=1;fillColor=#ffe6cc;endFill=0;entryX=0.5;entryY=0;entryDx=0;entryDy=0;" parent="S5ZDTjxf2J-4e3x-WdZ--30" source="S5ZDTjxf2J-4e3x-WdZ--62" target="S5ZDTjxf2J-4e3x-WdZ--200" edge="1">
          <mxGeometry relative="1" as="geometry">
            <mxPoint x="530" y="-60" as="sourcePoint" />
            <mxPoint x="1435" y="30" as="targetPoint" />
            <Array as="points">
              <mxPoint x="520" y="-30" />
              <mxPoint x="1590" y="-30" />
              <mxPoint x="1590" y="130" />
            </Array>
          </mxGeometry>
        </mxCell>
        <mxCell id="S5ZDTjxf2J-4e3x-WdZ--143" value="Citizen" style="" parent="0" visible="0" />
        <mxCell id="S5ZDTjxf2J-4e3x-WdZ--159" value="" style="edgeStyle=orthogonalEdgeStyle;rounded=1;orthogonalLoop=1;jettySize=auto;html=1;flowAnimation=1;strokeWidth=3;shadow=0;jumpStyle=none;curved=1;flowAnimationDuration=1000;strokeColor=#6c8ebf;align=center;verticalAlign=middle;fontFamily=Helvetica;fontSize=11;fontColor=default;labelBackgroundColor=default;startArrow=oval;startFill=1;endArrow=none;startSize=6;dashed=1;fillColor=#dae8fc;endFill=0;exitX=0.5;exitY=1;exitDx=0;exitDy=0;" parent="S5ZDTjxf2J-4e3x-WdZ--143" source="S5ZDTjxf2J-4e3x-WdZ--156" target="S5ZDTjxf2J-4e3x-WdZ--5" edge="1">
          <mxGeometry relative="1" as="geometry">
            <mxPoint x="730" y="-60" as="sourcePoint" />
            <mxPoint x="335" y="40" as="targetPoint" />
          </mxGeometry>
        </mxCell>
        <mxCell id="S5ZDTjxf2J-4e3x-WdZ--167" value="" style="edgeStyle=orthogonalEdgeStyle;rounded=1;orthogonalLoop=1;jettySize=auto;html=1;flowAnimation=1;strokeWidth=3;shadow=0;jumpStyle=none;curved=1;flowAnimationDuration=1000;strokeColor=#6c8ebf;align=center;verticalAlign=middle;fontFamily=Helvetica;fontSize=11;fontColor=default;labelBackgroundColor=default;startArrow=oval;startFill=1;endArrow=none;startSize=6;dashed=1;fillColor=#dae8fc;endFill=0;exitX=0.5;exitY=1;exitDx=0;exitDy=0;entryX=0.5;entryY=0;entryDx=0;entryDy=0;" parent="S5ZDTjxf2J-4e3x-WdZ--143" source="S5ZDTjxf2J-4e3x-WdZ--161" target="S5ZDTjxf2J-4e3x-WdZ--14" edge="1">
          <mxGeometry relative="1" as="geometry">
            <mxPoint x="730" y="-60" as="sourcePoint" />
            <mxPoint x="615" y="130" as="targetPoint" />
          </mxGeometry>
        </mxCell>
        <mxCell id="S5ZDTjxf2J-4e3x-WdZ--168" value="" style="edgeStyle=orthogonalEdgeStyle;rounded=1;orthogonalLoop=1;jettySize=auto;html=1;flowAnimation=1;strokeWidth=3;shadow=0;jumpStyle=none;curved=1;flowAnimationDuration=1000;strokeColor=#6c8ebf;align=center;verticalAlign=middle;fontFamily=Helvetica;fontSize=11;fontColor=default;labelBackgroundColor=default;startArrow=oval;startFill=1;endArrow=none;startSize=6;dashed=1;fillColor=#dae8fc;endFill=0;exitX=0.5;exitY=1;exitDx=0;exitDy=0;" parent="S5ZDTjxf2J-4e3x-WdZ--143" source="S5ZDTjxf2J-4e3x-WdZ--158" target="S5ZDTjxf2J-4e3x-WdZ--1" edge="1">
          <mxGeometry relative="1" as="geometry">
            <mxPoint x="730" y="-60" as="sourcePoint" />
            <mxPoint x="515" y="10" as="targetPoint" />
          </mxGeometry>
        </mxCell>
        <mxCell id="S5ZDTjxf2J-4e3x-WdZ--169" value="" style="edgeStyle=orthogonalEdgeStyle;rounded=1;orthogonalLoop=1;jettySize=auto;html=1;flowAnimation=1;strokeWidth=3;shadow=0;jumpStyle=none;curved=1;flowAnimationDuration=1000;strokeColor=#6c8ebf;align=center;verticalAlign=middle;fontFamily=Helvetica;fontSize=11;fontColor=default;labelBackgroundColor=default;startArrow=oval;startFill=1;endArrow=none;startSize=6;dashed=1;fillColor=#dae8fc;endFill=0;exitX=0.5;exitY=1;exitDx=0;exitDy=0;entryX=0.5;entryY=0;entryDx=0;entryDy=0;" parent="S5ZDTjxf2J-4e3x-WdZ--143" source="S5ZDTjxf2J-4e3x-WdZ--162" target="S5ZDTjxf2J-4e3x-WdZ--3" edge="1">
          <mxGeometry relative="1" as="geometry">
            <mxPoint x="730" y="-60" as="sourcePoint" />
            <mxPoint x="645" y="130" as="targetPoint" />
          </mxGeometry>
        </mxCell>
        <mxCell id="S5ZDTjxf2J-4e3x-WdZ--172" value="" style="edgeStyle=orthogonalEdgeStyle;rounded=1;orthogonalLoop=1;jettySize=auto;html=1;flowAnimation=1;strokeWidth=3;shadow=0;jumpStyle=none;curved=1;flowAnimationDuration=1000;strokeColor=#6c8ebf;align=center;verticalAlign=middle;fontFamily=Helvetica;fontSize=11;fontColor=default;labelBackgroundColor=default;startArrow=oval;startFill=1;endArrow=none;startSize=6;dashed=1;fillColor=#dae8fc;endFill=0;exitX=0.5;exitY=1;exitDx=0;exitDy=0;entryX=0.5;entryY=0;entryDx=0;entryDy=0;" parent="S5ZDTjxf2J-4e3x-WdZ--143" source="S5ZDTjxf2J-4e3x-WdZ--170" target="S5ZDTjxf2J-4e3x-WdZ--6" edge="1">
          <mxGeometry relative="1" as="geometry">
            <mxPoint x="730" y="-60" as="sourcePoint" />
            <mxPoint x="1005" y="130" as="targetPoint" />
          </mxGeometry>
        </mxCell>
        <mxCell id="S5ZDTjxf2J-4e3x-WdZ--177" value="" style="edgeStyle=orthogonalEdgeStyle;rounded=1;orthogonalLoop=1;jettySize=auto;html=1;flowAnimation=1;strokeWidth=3;shadow=0;jumpStyle=none;curved=1;flowAnimationDuration=1000;strokeColor=#6c8ebf;align=center;verticalAlign=middle;fontFamily=Helvetica;fontSize=11;fontColor=default;labelBackgroundColor=default;startArrow=oval;startFill=1;endArrow=none;startSize=6;dashed=1;fillColor=#dae8fc;endFill=0;exitX=0.5;exitY=1;exitDx=0;exitDy=0;entryX=0.5;entryY=0;entryDx=0;entryDy=0;" parent="S5ZDTjxf2J-4e3x-WdZ--143" source="S5ZDTjxf2J-4e3x-WdZ--173" target="S5ZDTjxf2J-4e3x-WdZ--13" edge="1">
          <mxGeometry relative="1" as="geometry">
            <mxPoint x="730" y="-60" as="sourcePoint" />
            <mxPoint x="1105" y="40" as="targetPoint" />
          </mxGeometry>
        </mxCell>
        <mxCell id="S5ZDTjxf2J-4e3x-WdZ--181" value="" style="edgeStyle=orthogonalEdgeStyle;rounded=1;orthogonalLoop=1;jettySize=auto;html=1;flowAnimation=1;strokeWidth=3;shadow=0;jumpStyle=none;curved=1;flowAnimationDuration=1000;strokeColor=#6c8ebf;align=center;verticalAlign=middle;fontFamily=Helvetica;fontSize=11;fontColor=default;labelBackgroundColor=default;startArrow=oval;startFill=1;endArrow=none;startSize=6;dashed=1;fillColor=#dae8fc;endFill=0;exitX=0.5;exitY=1;exitDx=0;exitDy=0;entryX=0.5;entryY=0;entryDx=0;entryDy=0;" parent="S5ZDTjxf2J-4e3x-WdZ--143" source="S5ZDTjxf2J-4e3x-WdZ--179" target="S5ZDTjxf2J-4e3x-WdZ--10" edge="1">
          <mxGeometry relative="1" as="geometry">
            <mxPoint x="1105" y="100" as="sourcePoint" />
            <mxPoint x="1140" y="330" as="targetPoint" />
          </mxGeometry>
        </mxCell>
        <mxCell id="S5ZDTjxf2J-4e3x-WdZ--184" value="" style="edgeStyle=orthogonalEdgeStyle;rounded=1;orthogonalLoop=1;jettySize=auto;html=1;flowAnimation=1;strokeWidth=3;shadow=0;jumpStyle=none;curved=1;flowAnimationDuration=1000;strokeColor=#6c8ebf;align=center;verticalAlign=middle;fontFamily=Helvetica;fontSize=11;fontColor=default;labelBackgroundColor=default;startArrow=oval;startFill=1;endArrow=none;startSize=6;dashed=1;fillColor=#dae8fc;endFill=0;exitX=0.5;exitY=1;exitDx=0;exitDy=0;entryX=0.5;entryY=0;entryDx=0;entryDy=0;" parent="S5ZDTjxf2J-4e3x-WdZ--143" source="S5ZDTjxf2J-4e3x-WdZ--182" target="S5ZDTjxf2J-4e3x-WdZ--15" edge="1">
          <mxGeometry relative="1" as="geometry">
            <mxPoint x="1405" y="160" as="sourcePoint" />
            <mxPoint x="1380" y="330" as="targetPoint" />
          </mxGeometry>
        </mxCell>
        <mxCell id="S5ZDTjxf2J-4e3x-WdZ--187" value="" style="edgeStyle=orthogonalEdgeStyle;rounded=1;orthogonalLoop=1;jettySize=auto;html=1;flowAnimation=1;strokeWidth=3;shadow=0;jumpStyle=none;curved=1;flowAnimationDuration=1000;strokeColor=#6c8ebf;align=center;verticalAlign=middle;fontFamily=Helvetica;fontSize=11;fontColor=default;labelBackgroundColor=default;startArrow=oval;startFill=1;endArrow=none;startSize=6;dashed=1;fillColor=#dae8fc;endFill=0;exitX=0.5;exitY=1;exitDx=0;exitDy=0;entryX=0.5;entryY=0;entryDx=0;entryDy=0;" parent="S5ZDTjxf2J-4e3x-WdZ--143" source="S5ZDTjxf2J-4e3x-WdZ--186" target="S5ZDTjxf2J-4e3x-WdZ--52" edge="1">
          <mxGeometry relative="1" as="geometry">
            <mxPoint x="1405" y="160" as="sourcePoint" />
            <mxPoint x="1380" y="330" as="targetPoint" />
          </mxGeometry>
        </mxCell>
        <mxCell id="S5ZDTjxf2J-4e3x-WdZ--148" value="" style="edgeStyle=orthogonalEdgeStyle;rounded=1;orthogonalLoop=1;jettySize=auto;html=1;flowAnimation=1;strokeWidth=3;shadow=0;jumpStyle=none;curved=1;flowAnimationDuration=1000;strokeColor=#6c8ebf;align=center;verticalAlign=middle;fontFamily=Helvetica;fontSize=11;fontColor=default;labelBackgroundColor=default;startArrow=oval;startFill=1;endArrow=none;startSize=6;dashed=1;fillColor=#dae8fc;endFill=0;exitX=0.5;exitY=1;exitDx=0;exitDy=0;entryX=0.5;entryY=0;entryDx=0;entryDy=0;" parent="S5ZDTjxf2J-4e3x-WdZ--143" source="S5ZDTjxf2J-4e3x-WdZ--57" target="S5ZDTjxf2J-4e3x-WdZ--156" edge="1">
          <mxGeometry relative="1" as="geometry">
            <mxPoint x="930" y="-60" as="sourcePoint" />
            <mxPoint x="730" y="-10" as="targetPoint" />
          </mxGeometry>
        </mxCell>
        <mxCell id="S5ZDTjxf2J-4e3x-WdZ--156" value="&lt;span style=&quot;font-size: 15px;&quot;&gt;&lt;b&gt;Gérer sa vie d&#39;amapien·ne :&amp;nbsp;distributions, paniers, aide du producteur, communication&lt;/b&gt;&lt;/span&gt;" style="rounded=1;whiteSpace=wrap;html=1;fillColor=#dae8fc;strokeColor=none;" parent="S5ZDTjxf2J-4e3x-WdZ--143" vertex="1">
          <mxGeometry x="160" y="30" width="210" height="90" as="geometry" />
        </mxCell>
        <mxCell id="S5ZDTjxf2J-4e3x-WdZ--158" value="&lt;span style=&quot;font-size: 15px;&quot;&gt;&lt;b&gt;Identifier et trouver un espace de culture, co-produire, jardiner, constituer un historique&lt;/b&gt;&lt;/span&gt;" style="rounded=1;whiteSpace=wrap;html=1;fillColor=#dae8fc;strokeColor=none;" parent="S5ZDTjxf2J-4e3x-WdZ--143" vertex="1">
          <mxGeometry x="400" width="210" height="90" as="geometry" />
        </mxCell>
        <mxCell id="S5ZDTjxf2J-4e3x-WdZ--161" value="&lt;span style=&quot;font-size: 15px;&quot;&gt;&lt;b&gt;Partager, analyser et exploiter les données avec les&amp;nbsp;chercheur·euse·s&lt;/b&gt;&lt;/span&gt;" style="rounded=1;whiteSpace=wrap;html=1;fillColor=#dae8fc;strokeColor=none;" parent="S5ZDTjxf2J-4e3x-WdZ--143" vertex="1">
          <mxGeometry x="550" y="155" width="210" height="90" as="geometry" />
        </mxCell>
        <mxCell id="S5ZDTjxf2J-4e3x-WdZ--162" value="&lt;span style=&quot;font-size: 15px;&quot;&gt;&lt;b&gt;Gérer sa zone de compostage et&amp;nbsp;partager les données avec le territoire&lt;/b&gt;&lt;/span&gt;" style="rounded=1;whiteSpace=wrap;html=1;fillColor=#dae8fc;strokeColor=none;" parent="S5ZDTjxf2J-4e3x-WdZ--143" vertex="1">
          <mxGeometry x="660" y="20" width="230" height="90" as="geometry" />
        </mxCell>
        <mxCell id="S5ZDTjxf2J-4e3x-WdZ--164" value="" style="edgeStyle=orthogonalEdgeStyle;rounded=1;orthogonalLoop=1;jettySize=auto;html=1;flowAnimation=1;strokeWidth=3;shadow=0;jumpStyle=none;curved=1;flowAnimationDuration=1000;strokeColor=#6c8ebf;align=center;verticalAlign=middle;fontFamily=Helvetica;fontSize=11;fontColor=default;labelBackgroundColor=default;startArrow=oval;startFill=1;endArrow=none;startSize=6;dashed=1;fillColor=#dae8fc;endFill=0;exitX=0.5;exitY=1;exitDx=0;exitDy=0;entryX=0.5;entryY=0;entryDx=0;entryDy=0;" parent="S5ZDTjxf2J-4e3x-WdZ--143" source="S5ZDTjxf2J-4e3x-WdZ--57" target="S5ZDTjxf2J-4e3x-WdZ--158" edge="1">
          <mxGeometry relative="1" as="geometry">
            <mxPoint x="915" y="-40" as="sourcePoint" />
            <mxPoint x="450" y="60" as="targetPoint" />
          </mxGeometry>
        </mxCell>
        <mxCell id="S5ZDTjxf2J-4e3x-WdZ--165" value="" style="edgeStyle=orthogonalEdgeStyle;rounded=1;orthogonalLoop=1;jettySize=auto;html=1;flowAnimation=1;strokeWidth=3;shadow=0;jumpStyle=none;curved=1;flowAnimationDuration=1000;strokeColor=#6c8ebf;align=center;verticalAlign=middle;fontFamily=Helvetica;fontSize=11;fontColor=default;labelBackgroundColor=default;startArrow=oval;startFill=1;endArrow=none;startSize=6;dashed=1;fillColor=#dae8fc;endFill=0;exitX=0.5;exitY=1;exitDx=0;exitDy=0;" parent="S5ZDTjxf2J-4e3x-WdZ--143" source="S5ZDTjxf2J-4e3x-WdZ--57" target="S5ZDTjxf2J-4e3x-WdZ--161" edge="1">
          <mxGeometry relative="1" as="geometry">
            <mxPoint x="1195" y="-5" as="sourcePoint" />
            <mxPoint x="730" y="95" as="targetPoint" />
            <Array as="points">
              <mxPoint x="720" y="-30" />
              <mxPoint x="635" y="-30" />
            </Array>
          </mxGeometry>
        </mxCell>
        <mxCell id="S5ZDTjxf2J-4e3x-WdZ--166" value="" style="edgeStyle=orthogonalEdgeStyle;rounded=1;orthogonalLoop=1;jettySize=auto;html=1;flowAnimation=1;strokeWidth=3;shadow=0;jumpStyle=none;curved=1;flowAnimationDuration=1000;strokeColor=#6c8ebf;align=center;verticalAlign=middle;fontFamily=Helvetica;fontSize=11;fontColor=default;labelBackgroundColor=default;startArrow=oval;startFill=1;endArrow=none;startSize=6;dashed=1;fillColor=#dae8fc;endFill=0;exitX=0.5;exitY=1;exitDx=0;exitDy=0;entryX=0.5;entryY=0;entryDx=0;entryDy=0;" parent="S5ZDTjxf2J-4e3x-WdZ--143" source="S5ZDTjxf2J-4e3x-WdZ--57" target="S5ZDTjxf2J-4e3x-WdZ--162" edge="1">
          <mxGeometry relative="1" as="geometry">
            <mxPoint x="1255" y="80" as="sourcePoint" />
            <mxPoint x="790" y="180" as="targetPoint" />
          </mxGeometry>
        </mxCell>
        <mxCell id="S5ZDTjxf2J-4e3x-WdZ--170" value="&lt;span style=&quot;font-size: 15px;&quot;&gt;&lt;b&gt;T&lt;/b&gt;&lt;/span&gt;&lt;b style=&quot;font-size: 15px;&quot;&gt;rouver une zone d&#39;installation, g&lt;/b&gt;&lt;span style=&quot;font-size: 15px;&quot;&gt;&lt;b&gt;érer son rucher et proposer un service de pollinisation et&amp;nbsp;&lt;/b&gt;&lt;/span&gt;" style="rounded=1;whiteSpace=wrap;html=1;fillColor=#dae8fc;strokeColor=none;" parent="S5ZDTjxf2J-4e3x-WdZ--143" vertex="1">
          <mxGeometry x="800" y="170" width="220" height="90" as="geometry" />
        </mxCell>
        <mxCell id="S5ZDTjxf2J-4e3x-WdZ--171" value="" style="edgeStyle=orthogonalEdgeStyle;rounded=1;orthogonalLoop=1;jettySize=auto;html=1;flowAnimation=1;strokeWidth=3;shadow=0;jumpStyle=none;curved=1;flowAnimationDuration=1000;strokeColor=#6c8ebf;align=center;verticalAlign=middle;fontFamily=Helvetica;fontSize=11;fontColor=default;labelBackgroundColor=default;startArrow=oval;startFill=1;endArrow=none;startSize=6;dashed=1;fillColor=#dae8fc;endFill=0;exitX=0.5;exitY=1;exitDx=0;exitDy=0;entryX=0.5;entryY=0;entryDx=0;entryDy=0;" parent="S5ZDTjxf2J-4e3x-WdZ--143" source="S5ZDTjxf2J-4e3x-WdZ--57" target="S5ZDTjxf2J-4e3x-WdZ--170" edge="1">
          <mxGeometry relative="1" as="geometry">
            <mxPoint x="730" y="-60" as="sourcePoint" />
            <mxPoint x="810" y="10" as="targetPoint" />
            <Array as="points">
              <mxPoint x="720" y="-10" />
              <mxPoint x="920" y="-10" />
              <mxPoint x="920" y="180" />
            </Array>
          </mxGeometry>
        </mxCell>
        <mxCell id="S5ZDTjxf2J-4e3x-WdZ--173" value="&lt;span style=&quot;font-size: 15px;&quot;&gt;&lt;b&gt;Se renseigner sur la biodiversité locale, participer aux actions locales&lt;/b&gt;&lt;/span&gt;" style="rounded=1;whiteSpace=wrap;html=1;fillColor=#dae8fc;strokeColor=none;" parent="S5ZDTjxf2J-4e3x-WdZ--143" vertex="1">
          <mxGeometry x="1060" y="30" width="230" height="60" as="geometry" />
        </mxCell>
        <mxCell id="S5ZDTjxf2J-4e3x-WdZ--176" value="" style="edgeStyle=orthogonalEdgeStyle;rounded=1;orthogonalLoop=1;jettySize=auto;html=1;flowAnimation=1;strokeWidth=3;shadow=0;jumpStyle=none;curved=1;flowAnimationDuration=1000;strokeColor=#6c8ebf;align=center;verticalAlign=middle;fontFamily=Helvetica;fontSize=11;fontColor=default;labelBackgroundColor=default;startArrow=oval;startFill=1;endArrow=none;startSize=6;dashed=1;fillColor=#dae8fc;endFill=0;exitX=0.5;exitY=1;exitDx=0;exitDy=0;entryX=0.5;entryY=0;entryDx=0;entryDy=0;" parent="S5ZDTjxf2J-4e3x-WdZ--143" source="S5ZDTjxf2J-4e3x-WdZ--57" target="S5ZDTjxf2J-4e3x-WdZ--173" edge="1">
          <mxGeometry relative="1" as="geometry">
            <mxPoint x="730" y="-60" as="sourcePoint" />
            <mxPoint x="645" y="130" as="targetPoint" />
          </mxGeometry>
        </mxCell>
        <mxCell id="S5ZDTjxf2J-4e3x-WdZ--179" value="&lt;span style=&quot;font-size: 15px;&quot;&gt;&lt;b&gt;Gérer sa production, constituer un historique et faciliter la planification&lt;/b&gt;&lt;/span&gt;" style="rounded=1;whiteSpace=wrap;html=1;fillColor=#dae8fc;strokeColor=none;" parent="S5ZDTjxf2J-4e3x-WdZ--143" vertex="1">
          <mxGeometry x="1350" y="60" width="230" height="70" as="geometry" />
        </mxCell>
        <mxCell id="S5ZDTjxf2J-4e3x-WdZ--180" value="" style="edgeStyle=orthogonalEdgeStyle;rounded=1;orthogonalLoop=1;jettySize=auto;html=1;flowAnimation=1;strokeWidth=3;shadow=0;jumpStyle=none;curved=1;flowAnimationDuration=1000;strokeColor=#6c8ebf;align=center;verticalAlign=middle;fontFamily=Helvetica;fontSize=11;fontColor=default;labelBackgroundColor=default;startArrow=oval;startFill=1;endArrow=none;startSize=6;dashed=1;fillColor=#dae8fc;endFill=0;exitX=0.5;exitY=1;exitDx=0;exitDy=0;entryX=0.5;entryY=0;entryDx=0;entryDy=0;" parent="S5ZDTjxf2J-4e3x-WdZ--143" source="S5ZDTjxf2J-4e3x-WdZ--57" target="S5ZDTjxf2J-4e3x-WdZ--179" edge="1">
          <mxGeometry relative="1" as="geometry">
            <mxPoint x="730" y="-60" as="sourcePoint" />
            <mxPoint x="1105" y="40" as="targetPoint" />
          </mxGeometry>
        </mxCell>
        <mxCell id="S5ZDTjxf2J-4e3x-WdZ--182" value="&lt;span style=&quot;font-size: 15px;&quot;&gt;&lt;b&gt;Visualiser les producteurs locaux et leurs points de vente&lt;/b&gt;&lt;/span&gt;" style="rounded=1;whiteSpace=wrap;html=1;fillColor=#dae8fc;strokeColor=none;" parent="S5ZDTjxf2J-4e3x-WdZ--143" vertex="1">
          <mxGeometry x="1210" y="140" width="220" height="80" as="geometry" />
        </mxCell>
        <mxCell id="S5ZDTjxf2J-4e3x-WdZ--185" value="" style="edgeStyle=orthogonalEdgeStyle;rounded=1;orthogonalLoop=1;jettySize=auto;html=1;flowAnimation=1;strokeWidth=3;shadow=0;jumpStyle=none;curved=1;flowAnimationDuration=1000;strokeColor=#6c8ebf;align=center;verticalAlign=middle;fontFamily=Helvetica;fontSize=11;fontColor=default;labelBackgroundColor=default;startArrow=oval;startFill=1;endArrow=none;startSize=6;dashed=1;fillColor=#dae8fc;endFill=0;exitX=0.5;exitY=1;exitDx=0;exitDy=0;entryX=0.5;entryY=0;entryDx=0;entryDy=0;" parent="S5ZDTjxf2J-4e3x-WdZ--143" source="S5ZDTjxf2J-4e3x-WdZ--57" target="S5ZDTjxf2J-4e3x-WdZ--182" edge="1">
          <mxGeometry relative="1" as="geometry">
            <mxPoint x="1260" y="250" as="sourcePoint" />
            <mxPoint x="1260" y="330" as="targetPoint" />
            <Array as="points">
              <mxPoint x="720" y="-20" />
              <mxPoint x="1330" y="-20" />
              <mxPoint x="1330" y="140" />
            </Array>
          </mxGeometry>
        </mxCell>
        <mxCell id="S5ZDTjxf2J-4e3x-WdZ--186" value="&lt;span style=&quot;font-size: 15px;&quot;&gt;&lt;b&gt;S’intégrer dans l’écosystème local : demander de l’aide et proposer des dons&lt;/b&gt;&lt;/span&gt;" style="rounded=1;whiteSpace=wrap;html=1;fillColor=#dae8fc;strokeColor=none;" parent="S5ZDTjxf2J-4e3x-WdZ--143" vertex="1">
          <mxGeometry x="1470" y="150" width="230" height="80" as="geometry" />
        </mxCell>
        <mxCell id="S5ZDTjxf2J-4e3x-WdZ--190" value="" style="edgeStyle=orthogonalEdgeStyle;rounded=1;orthogonalLoop=1;jettySize=auto;html=1;flowAnimation=1;strokeWidth=3;shadow=0;jumpStyle=none;curved=1;flowAnimationDuration=1000;strokeColor=#6c8ebf;align=center;verticalAlign=middle;fontFamily=Helvetica;fontSize=11;fontColor=default;labelBackgroundColor=default;startArrow=oval;startFill=1;endArrow=none;startSize=6;dashed=1;fillColor=#dae8fc;endFill=0;exitX=0.5;exitY=1;exitDx=0;exitDy=0;entryX=0.5;entryY=0;entryDx=0;entryDy=0;" parent="S5ZDTjxf2J-4e3x-WdZ--143" source="S5ZDTjxf2J-4e3x-WdZ--57" target="S5ZDTjxf2J-4e3x-WdZ--186" edge="1">
          <mxGeometry relative="1" as="geometry">
            <mxPoint x="1260" y="250" as="sourcePoint" />
            <mxPoint x="1260" y="330" as="targetPoint" />
            <Array as="points">
              <mxPoint x="720" y="-20" />
              <mxPoint x="1605" y="-20" />
            </Array>
          </mxGeometry>
        </mxCell>
        <mxCell id="S5ZDTjxf2J-4e3x-WdZ--191" value="&lt;span style=&quot;font-size: 15px;&quot;&gt;&lt;b&gt;Accéder au calendrier lunaire et aux pratiques anciennes&lt;/b&gt;&lt;/span&gt;" style="rounded=1;whiteSpace=wrap;html=1;fillColor=#dae8fc;strokeColor=none;" parent="S5ZDTjxf2J-4e3x-WdZ--143" vertex="1">
          <mxGeometry x="950" y="100" width="210" height="60" as="geometry" />
        </mxCell>
        <mxCell id="S5ZDTjxf2J-4e3x-WdZ--192" value="" style="edgeStyle=orthogonalEdgeStyle;rounded=1;orthogonalLoop=1;jettySize=auto;html=1;flowAnimation=1;strokeWidth=3;shadow=0;jumpStyle=none;curved=1;flowAnimationDuration=1000;strokeColor=#6c8ebf;align=center;verticalAlign=middle;fontFamily=Helvetica;fontSize=11;fontColor=default;labelBackgroundColor=default;startArrow=oval;startFill=1;endArrow=none;startSize=6;dashed=1;fillColor=#dae8fc;endFill=0;exitX=0.5;exitY=1;exitDx=0;exitDy=0;entryX=0.5;entryY=0;entryDx=0;entryDy=0;" parent="S5ZDTjxf2J-4e3x-WdZ--143" source="S5ZDTjxf2J-4e3x-WdZ--191" target="S5ZDTjxf2J-4e3x-WdZ--11" edge="1">
          <mxGeometry relative="1" as="geometry">
            <mxPoint x="905" y="260" as="sourcePoint" />
            <mxPoint x="900" y="330" as="targetPoint" />
            <Array as="points">
              <mxPoint x="1055" y="260" />
              <mxPoint x="1010" y="260" />
            </Array>
          </mxGeometry>
        </mxCell>
        <mxCell id="S5ZDTjxf2J-4e3x-WdZ--193" value="" style="edgeStyle=orthogonalEdgeStyle;rounded=1;orthogonalLoop=1;jettySize=auto;html=1;flowAnimation=1;strokeWidth=3;shadow=0;jumpStyle=none;curved=1;flowAnimationDuration=1000;strokeColor=#6c8ebf;align=center;verticalAlign=middle;fontFamily=Helvetica;fontSize=11;fontColor=default;labelBackgroundColor=default;startArrow=oval;startFill=1;endArrow=none;startSize=6;dashed=1;fillColor=#dae8fc;endFill=0;exitX=0.5;exitY=1;exitDx=0;exitDy=0;" parent="S5ZDTjxf2J-4e3x-WdZ--143" source="S5ZDTjxf2J-4e3x-WdZ--57" target="S5ZDTjxf2J-4e3x-WdZ--191" edge="1">
          <mxGeometry relative="1" as="geometry">
            <mxPoint x="1065" y="180" as="sourcePoint" />
            <mxPoint x="1020" y="330" as="targetPoint" />
          </mxGeometry>
        </mxCell>
        <object label="Association" id="S5ZDTjxf2J-4e3x-WdZ--41">
          <mxCell style="" parent="0" visible="0" />
        </object>
        <mxCell id="S5ZDTjxf2J-4e3x-WdZ--220" value="" style="edgeStyle=orthogonalEdgeStyle;rounded=1;orthogonalLoop=1;jettySize=auto;html=1;flowAnimation=1;strokeWidth=3;shadow=0;jumpStyle=none;curved=1;flowAnimationDuration=1000;strokeColor=#b85450;align=center;verticalAlign=middle;fontFamily=Helvetica;fontSize=11;fontColor=default;labelBackgroundColor=default;startArrow=oval;startFill=1;endArrow=none;startSize=6;dashed=1;fillColor=#f8cecc;endFill=0;exitX=0.5;exitY=1;exitDx=0;exitDy=0;entryX=0.5;entryY=0;entryDx=0;entryDy=0;" parent="S5ZDTjxf2J-4e3x-WdZ--41" source="S5ZDTjxf2J-4e3x-WdZ--219" target="S5ZDTjxf2J-4e3x-WdZ--5" edge="1">
          <mxGeometry relative="1" as="geometry">
            <mxPoint x="920" y="-60" as="sourcePoint" />
            <mxPoint x="410" y="320" as="targetPoint" />
          </mxGeometry>
        </mxCell>
        <mxCell id="S5ZDTjxf2J-4e3x-WdZ--222" value="" style="edgeStyle=orthogonalEdgeStyle;rounded=1;orthogonalLoop=1;jettySize=auto;html=1;flowAnimation=1;strokeWidth=3;shadow=0;jumpStyle=none;curved=1;flowAnimationDuration=1000;strokeColor=#b85450;align=center;verticalAlign=middle;fontFamily=Helvetica;fontSize=11;fontColor=default;labelBackgroundColor=default;startArrow=oval;startFill=1;endArrow=none;startSize=6;dashed=1;fillColor=#f8cecc;endFill=0;entryX=0.5;entryY=0;entryDx=0;entryDy=0;exitX=0.5;exitY=1;exitDx=0;exitDy=0;" parent="S5ZDTjxf2J-4e3x-WdZ--41" source="S5ZDTjxf2J-4e3x-WdZ--216" target="S5ZDTjxf2J-4e3x-WdZ--13" edge="1">
          <mxGeometry relative="1" as="geometry">
            <mxPoint x="920" y="-60" as="sourcePoint" />
            <mxPoint x="425" y="80" as="targetPoint" />
          </mxGeometry>
        </mxCell>
        <mxCell id="S5ZDTjxf2J-4e3x-WdZ--224" value="" style="edgeStyle=orthogonalEdgeStyle;rounded=1;orthogonalLoop=1;jettySize=auto;html=1;flowAnimation=1;strokeWidth=3;shadow=0;jumpStyle=none;curved=1;flowAnimationDuration=1000;strokeColor=#b85450;align=center;verticalAlign=middle;fontFamily=Helvetica;fontSize=11;fontColor=default;labelBackgroundColor=default;startArrow=oval;startFill=1;endArrow=none;startSize=6;dashed=1;fillColor=#f8cecc;endFill=0;entryX=0.5;entryY=0;entryDx=0;entryDy=0;exitX=0.5;exitY=1;exitDx=0;exitDy=0;" parent="S5ZDTjxf2J-4e3x-WdZ--41" source="S5ZDTjxf2J-4e3x-WdZ--218" target="S5ZDTjxf2J-4e3x-WdZ--52" edge="1">
          <mxGeometry relative="1" as="geometry">
            <mxPoint x="920" y="-60" as="sourcePoint" />
            <mxPoint x="1495" y="140" as="targetPoint" />
          </mxGeometry>
        </mxCell>
        <mxCell id="S5ZDTjxf2J-4e3x-WdZ--225" value="" style="edgeStyle=orthogonalEdgeStyle;rounded=1;orthogonalLoop=1;jettySize=auto;html=1;flowAnimation=1;strokeWidth=3;shadow=0;jumpStyle=none;curved=1;flowAnimationDuration=1000;strokeColor=#b85450;align=center;verticalAlign=middle;fontFamily=Helvetica;fontSize=11;fontColor=default;labelBackgroundColor=default;startArrow=oval;startFill=1;endArrow=none;startSize=6;dashed=1;fillColor=#f8cecc;endFill=0;exitX=0.5;exitY=1;exitDx=0;exitDy=0;entryX=0.5;entryY=0;entryDx=0;entryDy=0;" parent="S5ZDTjxf2J-4e3x-WdZ--41" source="S5ZDTjxf2J-4e3x-WdZ--217" target="S5ZDTjxf2J-4e3x-WdZ--52" edge="1">
          <mxGeometry relative="1" as="geometry">
            <mxPoint x="1495" y="220" as="sourcePoint" />
            <mxPoint x="1610" y="250" as="targetPoint" />
          </mxGeometry>
        </mxCell>
        <mxCell id="S5ZDTjxf2J-4e3x-WdZ--229" value="" style="edgeStyle=orthogonalEdgeStyle;rounded=1;orthogonalLoop=1;jettySize=auto;html=1;flowAnimation=1;strokeWidth=3;shadow=0;jumpStyle=none;curved=1;flowAnimationDuration=1000;strokeColor=#b85450;align=center;verticalAlign=middle;fontFamily=Helvetica;fontSize=11;fontColor=default;labelBackgroundColor=default;startArrow=oval;startFill=1;endArrow=none;startSize=6;dashed=1;fillColor=#f8cecc;endFill=0;exitX=0.5;exitY=1;exitDx=0;exitDy=0;entryX=0.5;entryY=0;entryDx=0;entryDy=0;" parent="S5ZDTjxf2J-4e3x-WdZ--41" source="S5ZDTjxf2J-4e3x-WdZ--227" target="S5ZDTjxf2J-4e3x-WdZ--5" edge="1">
          <mxGeometry relative="1" as="geometry">
            <mxPoint x="920" y="-60" as="sourcePoint" />
            <mxPoint x="645" y="100" as="targetPoint" />
          </mxGeometry>
        </mxCell>
        <mxCell id="S5ZDTjxf2J-4e3x-WdZ--230" value="" style="edgeStyle=orthogonalEdgeStyle;rounded=1;orthogonalLoop=1;jettySize=auto;html=1;flowAnimation=1;strokeWidth=3;shadow=0;jumpStyle=none;curved=1;flowAnimationDuration=1000;strokeColor=#b85450;align=center;verticalAlign=middle;fontFamily=Helvetica;fontSize=11;fontColor=default;labelBackgroundColor=default;startArrow=oval;startFill=1;endArrow=none;startSize=6;dashed=1;fillColor=#f8cecc;endFill=0;exitX=0.5;exitY=1;exitDx=0;exitDy=0;entryX=0.5;entryY=0;entryDx=0;entryDy=0;" parent="S5ZDTjxf2J-4e3x-WdZ--41" source="S5ZDTjxf2J-4e3x-WdZ--227" target="S5ZDTjxf2J-4e3x-WdZ--1" edge="1">
          <mxGeometry relative="1" as="geometry">
            <mxPoint x="645" y="180" as="sourcePoint" />
            <mxPoint x="420" y="330" as="targetPoint" />
          </mxGeometry>
        </mxCell>
        <mxCell id="S5ZDTjxf2J-4e3x-WdZ--231" value="" style="edgeStyle=orthogonalEdgeStyle;rounded=1;orthogonalLoop=1;jettySize=auto;html=1;flowAnimation=1;strokeWidth=3;shadow=0;jumpStyle=none;curved=1;flowAnimationDuration=1000;strokeColor=#b85450;align=center;verticalAlign=middle;fontFamily=Helvetica;fontSize=11;fontColor=default;labelBackgroundColor=default;startArrow=oval;startFill=1;endArrow=none;startSize=6;dashed=1;fillColor=#f8cecc;endFill=0;exitX=0.5;exitY=1;exitDx=0;exitDy=0;" parent="S5ZDTjxf2J-4e3x-WdZ--41" source="S5ZDTjxf2J-4e3x-WdZ--227" target="S5ZDTjxf2J-4e3x-WdZ--10" edge="1">
          <mxGeometry relative="1" as="geometry">
            <mxPoint x="645" y="180" as="sourcePoint" />
            <mxPoint x="540" y="330" as="targetPoint" />
            <Array as="points">
              <mxPoint x="635" y="260" />
              <mxPoint x="1370" y="260" />
            </Array>
          </mxGeometry>
        </mxCell>
        <mxCell id="S5ZDTjxf2J-4e3x-WdZ--232" value="" style="edgeStyle=orthogonalEdgeStyle;rounded=1;orthogonalLoop=1;jettySize=auto;html=1;flowAnimation=1;strokeWidth=3;shadow=0;jumpStyle=none;curved=1;flowAnimationDuration=1000;strokeColor=#b85450;align=center;verticalAlign=middle;fontFamily=Helvetica;fontSize=11;fontColor=default;labelBackgroundColor=default;startArrow=oval;startFill=1;endArrow=none;startSize=6;dashed=1;fillColor=#f8cecc;endFill=0;exitX=0.5;exitY=1;exitDx=0;exitDy=0;entryX=0.5;entryY=0;entryDx=0;entryDy=0;" parent="S5ZDTjxf2J-4e3x-WdZ--41" source="S5ZDTjxf2J-4e3x-WdZ--227" target="S5ZDTjxf2J-4e3x-WdZ--6" edge="1">
          <mxGeometry relative="1" as="geometry">
            <mxPoint x="645" y="180" as="sourcePoint" />
            <mxPoint x="1380" y="330" as="targetPoint" />
          </mxGeometry>
        </mxCell>
        <mxCell id="S5ZDTjxf2J-4e3x-WdZ--234" value="" style="edgeStyle=orthogonalEdgeStyle;rounded=1;orthogonalLoop=1;jettySize=auto;html=1;flowAnimation=1;strokeWidth=3;shadow=0;jumpStyle=none;curved=1;flowAnimationDuration=1000;strokeColor=#b85450;align=center;verticalAlign=middle;fontFamily=Helvetica;fontSize=11;fontColor=default;labelBackgroundColor=default;startArrow=oval;startFill=1;endArrow=none;startSize=6;dashed=1;fillColor=#f8cecc;endFill=0;entryX=0.5;entryY=0;entryDx=0;entryDy=0;exitX=0.5;exitY=1;exitDx=0;exitDy=0;" parent="S5ZDTjxf2J-4e3x-WdZ--41" source="S5ZDTjxf2J-4e3x-WdZ--227" target="S5ZDTjxf2J-4e3x-WdZ--15" edge="1">
          <mxGeometry relative="1" as="geometry">
            <mxPoint x="945" y="180" as="sourcePoint" />
            <mxPoint x="1140" y="330" as="targetPoint" />
            <Array as="points">
              <mxPoint x="635" y="270" />
              <mxPoint x="1250" y="270" />
            </Array>
          </mxGeometry>
        </mxCell>
        <mxCell id="S5ZDTjxf2J-4e3x-WdZ--237" value="" style="edgeStyle=orthogonalEdgeStyle;rounded=1;orthogonalLoop=1;jettySize=auto;html=1;flowAnimation=1;strokeWidth=3;shadow=0;jumpStyle=none;curved=1;flowAnimationDuration=1000;strokeColor=#b85450;align=center;verticalAlign=middle;fontFamily=Helvetica;fontSize=11;fontColor=default;labelBackgroundColor=default;startArrow=oval;startFill=1;endArrow=none;startSize=6;dashed=1;fillColor=#f8cecc;endFill=0;exitX=0.5;exitY=1;exitDx=0;exitDy=0;entryX=0.5;entryY=0;entryDx=0;entryDy=0;" parent="S5ZDTjxf2J-4e3x-WdZ--41" source="S5ZDTjxf2J-4e3x-WdZ--235" target="S5ZDTjxf2J-4e3x-WdZ--52" edge="1">
          <mxGeometry relative="1" as="geometry">
            <mxPoint x="1115" y="90" as="sourcePoint" />
            <mxPoint x="1620" y="330" as="targetPoint" />
          </mxGeometry>
        </mxCell>
        <mxCell id="S5ZDTjxf2J-4e3x-WdZ--242" value="" style="edgeStyle=orthogonalEdgeStyle;rounded=1;orthogonalLoop=1;jettySize=auto;html=1;flowAnimation=1;strokeWidth=3;shadow=0;jumpStyle=none;curved=1;flowAnimationDuration=1000;strokeColor=#b85450;align=center;verticalAlign=middle;fontFamily=Helvetica;fontSize=11;fontColor=default;labelBackgroundColor=default;startArrow=oval;startFill=1;endArrow=none;startSize=6;dashed=1;fillColor=#f8cecc;endFill=0;exitX=0.5;exitY=1;exitDx=0;exitDy=0;entryX=0.5;entryY=0;entryDx=0;entryDy=0;" parent="S5ZDTjxf2J-4e3x-WdZ--41" source="S5ZDTjxf2J-4e3x-WdZ--240" target="S5ZDTjxf2J-4e3x-WdZ--52" edge="1">
          <mxGeometry relative="1" as="geometry">
            <mxPoint x="1215" y="70" as="sourcePoint" />
            <mxPoint x="1620" y="330" as="targetPoint" />
          </mxGeometry>
        </mxCell>
        <mxCell id="S5ZDTjxf2J-4e3x-WdZ--215" value="" style="edgeStyle=orthogonalEdgeStyle;rounded=1;orthogonalLoop=1;jettySize=auto;html=1;flowAnimation=1;strokeWidth=3;shadow=0;jumpStyle=none;curved=1;flowAnimationDuration=1000;strokeColor=#b85450;align=center;verticalAlign=middle;fontFamily=Helvetica;fontSize=11;fontColor=default;labelBackgroundColor=default;startArrow=oval;startFill=1;endArrow=none;startSize=6;dashed=1;fillColor=#f8cecc;endFill=0;entryX=0.5;entryY=0;entryDx=0;entryDy=0;exitX=0.5;exitY=1;exitDx=0;exitDy=0;" parent="S5ZDTjxf2J-4e3x-WdZ--41" source="S5ZDTjxf2J-4e3x-WdZ--65" target="S5ZDTjxf2J-4e3x-WdZ--219" edge="1">
          <mxGeometry relative="1" as="geometry">
            <mxPoint x="830" y="-20" as="sourcePoint" />
            <mxPoint x="780" y="-10" as="targetPoint" />
          </mxGeometry>
        </mxCell>
        <mxCell id="S5ZDTjxf2J-4e3x-WdZ--216" value="&lt;span style=&quot;font-size: 15px;&quot;&gt;&lt;b&gt;Informer et animer autour de la biodiversité du territoire&lt;/b&gt;&lt;/span&gt;" style="rounded=1;whiteSpace=wrap;html=1;fillColor=#fad9d5;strokeColor=none;" parent="S5ZDTjxf2J-4e3x-WdZ--41" vertex="1">
          <mxGeometry x="810" y="90" width="250" height="60" as="geometry" />
        </mxCell>
        <mxCell id="S5ZDTjxf2J-4e3x-WdZ--217" value="&lt;span style=&quot;font-size: 15px;&quot;&gt;&lt;b&gt;Accéder aux données statistiques du territoire&lt;/b&gt;&lt;/span&gt;" style="rounded=1;whiteSpace=wrap;html=1;fillColor=#fad9d5;strokeColor=none;" parent="S5ZDTjxf2J-4e3x-WdZ--41" vertex="1">
          <mxGeometry x="1080" y="10" width="250" height="50" as="geometry" />
        </mxCell>
        <mxCell id="S5ZDTjxf2J-4e3x-WdZ--218" value="&lt;span style=&quot;font-size: 15px;&quot;&gt;&lt;b&gt;Inciter les acteurs à s’engager&lt;/b&gt;&lt;/span&gt;" style="rounded=1;whiteSpace=wrap;html=1;fillColor=#fad9d5;strokeColor=none;" parent="S5ZDTjxf2J-4e3x-WdZ--41" vertex="1">
          <mxGeometry x="1450" width="250" height="50" as="geometry" />
        </mxCell>
        <mxCell id="S5ZDTjxf2J-4e3x-WdZ--219" value="&lt;span style=&quot;font-size: 15px;&quot;&gt;&lt;b&gt;Gérer une AMAP&lt;/b&gt;&lt;/span&gt;" style="rounded=1;whiteSpace=wrap;html=1;fillColor=#fad9d5;strokeColor=none;" parent="S5ZDTjxf2J-4e3x-WdZ--41" vertex="1">
          <mxGeometry x="230" y="70" width="250" height="40" as="geometry" />
        </mxCell>
        <mxCell id="S5ZDTjxf2J-4e3x-WdZ--221" value="" style="edgeStyle=orthogonalEdgeStyle;rounded=1;orthogonalLoop=1;jettySize=auto;html=1;flowAnimation=1;strokeWidth=3;shadow=0;jumpStyle=none;curved=1;flowAnimationDuration=1000;strokeColor=#b85450;align=center;verticalAlign=middle;fontFamily=Helvetica;fontSize=11;fontColor=default;labelBackgroundColor=default;startArrow=oval;startFill=1;endArrow=none;startSize=6;dashed=1;fillColor=#f8cecc;endFill=0;entryX=0.5;entryY=0;entryDx=0;entryDy=0;exitX=0.5;exitY=1;exitDx=0;exitDy=0;" parent="S5ZDTjxf2J-4e3x-WdZ--41" source="S5ZDTjxf2J-4e3x-WdZ--65" target="S5ZDTjxf2J-4e3x-WdZ--216" edge="1">
          <mxGeometry relative="1" as="geometry">
            <mxPoint x="980" y="-30" as="sourcePoint" />
            <mxPoint x="425" y="80" as="targetPoint" />
          </mxGeometry>
        </mxCell>
        <mxCell id="S5ZDTjxf2J-4e3x-WdZ--223" value="" style="edgeStyle=orthogonalEdgeStyle;rounded=1;orthogonalLoop=1;jettySize=auto;html=1;flowAnimation=1;strokeWidth=3;shadow=0;jumpStyle=none;curved=1;flowAnimationDuration=1000;strokeColor=#b85450;align=center;verticalAlign=middle;fontFamily=Helvetica;fontSize=11;fontColor=default;labelBackgroundColor=default;startArrow=oval;startFill=1;endArrow=none;startSize=6;dashed=1;fillColor=#f8cecc;endFill=0;entryX=0.5;entryY=0;entryDx=0;entryDy=0;exitX=0.5;exitY=1;exitDx=0;exitDy=0;" parent="S5ZDTjxf2J-4e3x-WdZ--41" source="S5ZDTjxf2J-4e3x-WdZ--65" target="S5ZDTjxf2J-4e3x-WdZ--218" edge="1">
          <mxGeometry relative="1" as="geometry">
            <mxPoint x="920" y="-60" as="sourcePoint" />
            <mxPoint x="815" y="80" as="targetPoint" />
          </mxGeometry>
        </mxCell>
        <mxCell id="S5ZDTjxf2J-4e3x-WdZ--226" value="" style="edgeStyle=orthogonalEdgeStyle;rounded=1;orthogonalLoop=1;jettySize=auto;html=1;flowAnimation=1;strokeWidth=3;shadow=0;jumpStyle=none;curved=1;flowAnimationDuration=1000;strokeColor=#b85450;align=center;verticalAlign=middle;fontFamily=Helvetica;fontSize=11;fontColor=default;labelBackgroundColor=default;startArrow=oval;startFill=1;endArrow=none;startSize=6;dashed=1;fillColor=#f8cecc;endFill=0;entryX=0.5;entryY=0;entryDx=0;entryDy=0;exitX=0.5;exitY=1;exitDx=0;exitDy=0;" parent="S5ZDTjxf2J-4e3x-WdZ--41" source="S5ZDTjxf2J-4e3x-WdZ--65" target="S5ZDTjxf2J-4e3x-WdZ--217" edge="1">
          <mxGeometry relative="1" as="geometry">
            <mxPoint x="920" y="-60" as="sourcePoint" />
            <mxPoint x="1495" y="140" as="targetPoint" />
          </mxGeometry>
        </mxCell>
        <mxCell id="S5ZDTjxf2J-4e3x-WdZ--227" value="&lt;span style=&quot;font-size: 15px;&quot;&gt;&lt;b&gt;Accéder aux surplus pour les redistribuer aux personnes dans le besoin&lt;/b&gt;&lt;/span&gt;" style="rounded=1;whiteSpace=wrap;html=1;fillColor=#fad9d5;strokeColor=none;" parent="S5ZDTjxf2J-4e3x-WdZ--41" vertex="1">
          <mxGeometry x="510" y="90" width="250" height="80" as="geometry" />
        </mxCell>
        <mxCell id="S5ZDTjxf2J-4e3x-WdZ--228" value="" style="edgeStyle=orthogonalEdgeStyle;rounded=1;orthogonalLoop=1;jettySize=auto;html=1;flowAnimation=1;strokeWidth=3;shadow=0;jumpStyle=none;curved=1;flowAnimationDuration=1000;strokeColor=#b85450;align=center;verticalAlign=middle;fontFamily=Helvetica;fontSize=11;fontColor=default;labelBackgroundColor=default;startArrow=oval;startFill=1;endArrow=none;startSize=6;dashed=1;fillColor=#f8cecc;endFill=0;exitX=0.5;exitY=1;exitDx=0;exitDy=0;" parent="S5ZDTjxf2J-4e3x-WdZ--41" source="S5ZDTjxf2J-4e3x-WdZ--65" target="S5ZDTjxf2J-4e3x-WdZ--227" edge="1">
          <mxGeometry relative="1" as="geometry">
            <mxPoint x="920" y="-60" as="sourcePoint" />
            <mxPoint x="365" y="80" as="targetPoint" />
          </mxGeometry>
        </mxCell>
        <mxCell id="S5ZDTjxf2J-4e3x-WdZ--235" value="&lt;span style=&quot;font-size: 15px;&quot;&gt;&lt;b&gt;Gérer le maillage territorial : partenariats et liens entre les acteurs&lt;/b&gt;&lt;/span&gt;" style="rounded=1;whiteSpace=wrap;html=1;fillColor=#fad9d5;strokeColor=none;" parent="S5ZDTjxf2J-4e3x-WdZ--41" vertex="1">
          <mxGeometry x="1310" y="80" width="250" height="70" as="geometry" />
        </mxCell>
        <mxCell id="S5ZDTjxf2J-4e3x-WdZ--236" value="" style="edgeStyle=orthogonalEdgeStyle;rounded=1;orthogonalLoop=1;jettySize=auto;html=1;flowAnimation=1;strokeWidth=3;shadow=0;jumpStyle=none;curved=1;flowAnimationDuration=1000;strokeColor=#b85450;align=center;verticalAlign=middle;fontFamily=Helvetica;fontSize=11;fontColor=default;labelBackgroundColor=default;startArrow=oval;startFill=1;endArrow=none;startSize=6;dashed=1;fillColor=#f8cecc;endFill=0;entryX=0.5;entryY=0;entryDx=0;entryDy=0;exitX=0.5;exitY=1;exitDx=0;exitDy=0;" parent="S5ZDTjxf2J-4e3x-WdZ--41" source="S5ZDTjxf2J-4e3x-WdZ--65" target="S5ZDTjxf2J-4e3x-WdZ--235" edge="1">
          <mxGeometry relative="1" as="geometry">
            <mxPoint x="920" y="-60" as="sourcePoint" />
            <mxPoint x="1585" y="10" as="targetPoint" />
            <Array as="points">
              <mxPoint x="910" y="-30" />
              <mxPoint x="1355" y="-30" />
            </Array>
          </mxGeometry>
        </mxCell>
        <mxCell id="S5ZDTjxf2J-4e3x-WdZ--240" value="&lt;span style=&quot;font-size: 15px;&quot;&gt;&lt;b&gt;Informer et animer autour de la sécurité alimentaire&lt;/b&gt;&lt;/span&gt;" style="rounded=1;whiteSpace=wrap;html=1;fillColor=#fad9d5;strokeColor=none;" parent="S5ZDTjxf2J-4e3x-WdZ--41" vertex="1">
          <mxGeometry x="1050" y="170" width="250" height="50" as="geometry" />
        </mxCell>
        <mxCell id="S5ZDTjxf2J-4e3x-WdZ--243" value="" style="edgeStyle=orthogonalEdgeStyle;rounded=1;orthogonalLoop=1;jettySize=auto;html=1;flowAnimation=1;strokeWidth=3;shadow=0;jumpStyle=none;curved=1;flowAnimationDuration=1000;strokeColor=#b85450;align=center;verticalAlign=middle;fontFamily=Helvetica;fontSize=11;fontColor=default;labelBackgroundColor=default;startArrow=oval;startFill=1;endArrow=none;startSize=6;dashed=1;fillColor=#f8cecc;endFill=0;exitX=0.5;exitY=1;exitDx=0;exitDy=0;entryX=0.5;entryY=0;entryDx=0;entryDy=0;" parent="S5ZDTjxf2J-4e3x-WdZ--41" source="S5ZDTjxf2J-4e3x-WdZ--65" target="S5ZDTjxf2J-4e3x-WdZ--240" edge="1">
          <mxGeometry relative="1" as="geometry">
            <mxPoint x="1295" y="260" as="sourcePoint" />
            <mxPoint x="1630" y="340" as="targetPoint" />
            <Array as="points">
              <mxPoint x="910" y="70" />
              <mxPoint x="1175" y="70" />
            </Array>
          </mxGeometry>
        </mxCell>
        <mxCell id="S5ZDTjxf2J-4e3x-WdZ--146" value="Company" style="" parent="0" visible="0" />
        <mxCell id="S5ZDTjxf2J-4e3x-WdZ--260" value="" style="edgeStyle=orthogonalEdgeStyle;rounded=1;orthogonalLoop=1;jettySize=auto;html=1;flowAnimation=1;strokeWidth=3;shadow=0;jumpStyle=none;curved=1;flowAnimationDuration=1000;strokeColor=#9673a6;align=center;verticalAlign=middle;fontFamily=Helvetica;fontSize=11;fontColor=default;labelBackgroundColor=default;startArrow=oval;startFill=1;endArrow=none;startSize=6;dashed=1;fillColor=#e1d5e7;endFill=0;exitX=0.5;exitY=1;exitDx=0;exitDy=0;entryX=0.5;entryY=0;entryDx=0;entryDy=0;" parent="S5ZDTjxf2J-4e3x-WdZ--146" source="S5ZDTjxf2J-4e3x-WdZ--249" target="S5ZDTjxf2J-4e3x-WdZ--52" edge="1">
          <mxGeometry relative="1" as="geometry">
            <mxPoint x="1120" y="-60" as="sourcePoint" />
            <mxPoint x="1525" y="20" as="targetPoint" />
          </mxGeometry>
        </mxCell>
        <mxCell id="S5ZDTjxf2J-4e3x-WdZ--261" value="" style="edgeStyle=orthogonalEdgeStyle;rounded=1;orthogonalLoop=1;jettySize=auto;html=1;flowAnimation=1;strokeWidth=3;shadow=0;jumpStyle=none;curved=1;flowAnimationDuration=1000;strokeColor=#9673a6;align=center;verticalAlign=middle;fontFamily=Helvetica;fontSize=11;fontColor=default;labelBackgroundColor=default;startArrow=oval;startFill=1;endArrow=none;startSize=6;dashed=1;fillColor=#e1d5e7;endFill=0;exitX=0.5;exitY=1;exitDx=0;exitDy=0;entryX=0.5;entryY=0;entryDx=0;entryDy=0;" parent="S5ZDTjxf2J-4e3x-WdZ--146" source="S5ZDTjxf2J-4e3x-WdZ--248" target="S5ZDTjxf2J-4e3x-WdZ--52" edge="1">
          <mxGeometry relative="1" as="geometry">
            <mxPoint x="1525" y="70" as="sourcePoint" />
            <mxPoint x="1620" y="330" as="targetPoint" />
          </mxGeometry>
        </mxCell>
        <mxCell id="S5ZDTjxf2J-4e3x-WdZ--262" value="" style="edgeStyle=orthogonalEdgeStyle;rounded=1;orthogonalLoop=1;jettySize=auto;html=1;flowAnimation=1;strokeWidth=3;shadow=0;jumpStyle=none;curved=1;flowAnimationDuration=1000;strokeColor=#9673a6;align=center;verticalAlign=middle;fontFamily=Helvetica;fontSize=11;fontColor=default;labelBackgroundColor=default;startArrow=oval;startFill=1;endArrow=none;startSize=6;dashed=1;fillColor=#e1d5e7;endFill=0;exitX=0.5;exitY=1;exitDx=0;exitDy=0;entryX=0.5;entryY=0;entryDx=0;entryDy=0;" parent="S5ZDTjxf2J-4e3x-WdZ--146" source="S5ZDTjxf2J-4e3x-WdZ--247" target="S5ZDTjxf2J-4e3x-WdZ--13" edge="1">
          <mxGeometry relative="1" as="geometry">
            <mxPoint x="1355" y="140" as="sourcePoint" />
            <mxPoint x="1620" y="330" as="targetPoint" />
          </mxGeometry>
        </mxCell>
        <mxCell id="S5ZDTjxf2J-4e3x-WdZ--263" value="" style="edgeStyle=orthogonalEdgeStyle;rounded=1;orthogonalLoop=1;jettySize=auto;html=1;flowAnimation=1;strokeWidth=3;shadow=0;jumpStyle=none;curved=1;flowAnimationDuration=1000;strokeColor=#9673a6;align=center;verticalAlign=middle;fontFamily=Helvetica;fontSize=11;fontColor=default;labelBackgroundColor=default;startArrow=oval;startFill=1;endArrow=none;startSize=6;dashed=1;fillColor=#e1d5e7;endFill=0;exitX=0.5;exitY=1;exitDx=0;exitDy=0;entryX=0.5;entryY=0;entryDx=0;entryDy=0;" parent="S5ZDTjxf2J-4e3x-WdZ--146" source="S5ZDTjxf2J-4e3x-WdZ--246" target="S5ZDTjxf2J-4e3x-WdZ--6" edge="1">
          <mxGeometry relative="1" as="geometry">
            <mxPoint x="1170" y="210" as="sourcePoint" />
            <mxPoint x="1140" y="330" as="targetPoint" />
          </mxGeometry>
        </mxCell>
        <mxCell id="S5ZDTjxf2J-4e3x-WdZ--264" value="" style="edgeStyle=orthogonalEdgeStyle;rounded=1;orthogonalLoop=1;jettySize=auto;html=1;flowAnimation=1;strokeWidth=3;shadow=0;jumpStyle=none;curved=1;flowAnimationDuration=1000;strokeColor=#9673a6;align=center;verticalAlign=middle;fontFamily=Helvetica;fontSize=11;fontColor=default;labelBackgroundColor=default;startArrow=oval;startFill=1;endArrow=none;startSize=6;dashed=1;fillColor=#e1d5e7;endFill=0;exitX=0.5;exitY=1;exitDx=0;exitDy=0;entryX=0.5;entryY=0;entryDx=0;entryDy=0;" parent="S5ZDTjxf2J-4e3x-WdZ--146" source="S5ZDTjxf2J-4e3x-WdZ--245" target="S5ZDTjxf2J-4e3x-WdZ--3" edge="1">
          <mxGeometry relative="1" as="geometry">
            <mxPoint x="895" y="160" as="sourcePoint" />
            <mxPoint x="900" y="330" as="targetPoint" />
          </mxGeometry>
        </mxCell>
        <mxCell id="S5ZDTjxf2J-4e3x-WdZ--265" value="" style="edgeStyle=orthogonalEdgeStyle;rounded=1;orthogonalLoop=1;jettySize=auto;html=1;flowAnimation=1;strokeWidth=3;shadow=0;jumpStyle=none;curved=1;flowAnimationDuration=1000;strokeColor=#9673a6;align=center;verticalAlign=middle;fontFamily=Helvetica;fontSize=11;fontColor=default;labelBackgroundColor=default;startArrow=oval;startFill=1;endArrow=none;startSize=6;dashed=1;fillColor=#e1d5e7;endFill=0;exitX=0.5;exitY=1;exitDx=0;exitDy=0;entryX=0.5;entryY=0;entryDx=0;entryDy=0;" parent="S5ZDTjxf2J-4e3x-WdZ--146" source="S5ZDTjxf2J-4e3x-WdZ--244" target="S5ZDTjxf2J-4e3x-WdZ--1" edge="1">
          <mxGeometry relative="1" as="geometry">
            <mxPoint x="665" y="230" as="sourcePoint" />
            <mxPoint x="780" y="330" as="targetPoint" />
          </mxGeometry>
        </mxCell>
        <mxCell id="S5ZDTjxf2J-4e3x-WdZ--244" value="&lt;span style=&quot;font-size: 15px;&quot;&gt;&lt;b&gt;Proposer son terrain aux jardinier·ère·s&lt;/b&gt;&lt;/span&gt;" style="rounded=1;whiteSpace=wrap;html=1;fillColor=#d0cee2;strokeColor=none;" parent="S5ZDTjxf2J-4e3x-WdZ--146" vertex="1">
          <mxGeometry x="330" y="90" width="250" height="50" as="geometry" />
        </mxCell>
        <mxCell id="S5ZDTjxf2J-4e3x-WdZ--245" value="&lt;span style=&quot;font-size: 15px;&quot;&gt;&lt;b&gt;Gérer ses biodéchets&lt;/b&gt;&lt;/span&gt;" style="rounded=1;whiteSpace=wrap;html=1;fillColor=#d0cee2;strokeColor=none;" parent="S5ZDTjxf2J-4e3x-WdZ--146" vertex="1">
          <mxGeometry x="530" y="170" width="250" height="50" as="geometry" />
        </mxCell>
        <mxCell id="S5ZDTjxf2J-4e3x-WdZ--246" value="&lt;span style=&quot;font-size: 15px;&quot;&gt;&lt;b&gt;Proposer son terrain aux apiculteur·rice·s&lt;/b&gt;&lt;/span&gt;" style="rounded=1;whiteSpace=wrap;html=1;fillColor=#d0cee2;strokeColor=none;" parent="S5ZDTjxf2J-4e3x-WdZ--146" vertex="1">
          <mxGeometry x="760" y="100" width="250" height="50" as="geometry" />
        </mxCell>
        <mxCell id="S5ZDTjxf2J-4e3x-WdZ--247" value="&lt;span style=&quot;font-size: 15px;&quot;&gt;&lt;b&gt;Développer la biodiversité sur son terrain&lt;/b&gt;&lt;/span&gt;" style="rounded=1;whiteSpace=wrap;html=1;fillColor=#d0cee2;strokeColor=none;" parent="S5ZDTjxf2J-4e3x-WdZ--146" vertex="1">
          <mxGeometry x="1030" y="160" width="240" height="50" as="geometry" />
        </mxCell>
        <mxCell id="S5ZDTjxf2J-4e3x-WdZ--248" value="&lt;span style=&quot;font-size: 15px;&quot;&gt;&lt;b&gt;Nouer des partenariats avec les acteurs locaux&lt;/b&gt;&lt;/span&gt;" style="rounded=1;whiteSpace=wrap;html=1;fillColor=#d0cee2;strokeColor=none;" parent="S5ZDTjxf2J-4e3x-WdZ--146" vertex="1">
          <mxGeometry x="1220" y="80" width="250" height="50" as="geometry" />
        </mxCell>
        <mxCell id="S5ZDTjxf2J-4e3x-WdZ--249" value="&lt;span style=&quot;font-size: 15px;&quot;&gt;&lt;b&gt;Mettre en avant ses engagements et actions concrètes&lt;/b&gt;&lt;/span&gt;" style="rounded=1;whiteSpace=wrap;html=1;fillColor=#d0cee2;strokeColor=none;" parent="S5ZDTjxf2J-4e3x-WdZ--146" vertex="1">
          <mxGeometry x="1390" y="10" width="250" height="50" as="geometry" />
        </mxCell>
        <mxCell id="S5ZDTjxf2J-4e3x-WdZ--254" value="" style="edgeStyle=orthogonalEdgeStyle;rounded=1;orthogonalLoop=1;jettySize=auto;html=1;flowAnimation=1;strokeWidth=3;shadow=0;jumpStyle=none;curved=1;flowAnimationDuration=1000;strokeColor=#9673a6;align=center;verticalAlign=middle;fontFamily=Helvetica;fontSize=11;fontColor=default;labelBackgroundColor=default;startArrow=oval;startFill=1;endArrow=none;startSize=6;dashed=1;fillColor=#e1d5e7;endFill=0;exitX=0.5;exitY=1;exitDx=0;exitDy=0;entryX=0.5;entryY=0;entryDx=0;entryDy=0;" parent="S5ZDTjxf2J-4e3x-WdZ--146" source="S5ZDTjxf2J-4e3x-WdZ--69" target="S5ZDTjxf2J-4e3x-WdZ--244" edge="1">
          <mxGeometry relative="1" as="geometry">
            <mxPoint x="1110" y="-70" as="sourcePoint" />
            <mxPoint x="455" y="90" as="targetPoint" />
          </mxGeometry>
        </mxCell>
        <mxCell id="S5ZDTjxf2J-4e3x-WdZ--255" value="" style="edgeStyle=orthogonalEdgeStyle;rounded=1;orthogonalLoop=1;jettySize=auto;html=1;flowAnimation=1;strokeWidth=3;shadow=0;jumpStyle=none;curved=1;flowAnimationDuration=1000;strokeColor=#9673a6;align=center;verticalAlign=middle;fontFamily=Helvetica;fontSize=11;fontColor=default;labelBackgroundColor=default;startArrow=oval;startFill=1;endArrow=none;startSize=6;dashed=1;fillColor=#e1d5e7;endFill=0;exitX=0.5;exitY=1;exitDx=0;exitDy=0;entryX=0.5;entryY=0;entryDx=0;entryDy=0;" parent="S5ZDTjxf2J-4e3x-WdZ--146" source="S5ZDTjxf2J-4e3x-WdZ--69" target="S5ZDTjxf2J-4e3x-WdZ--245" edge="1">
          <mxGeometry relative="1" as="geometry">
            <mxPoint x="1110" y="-70" as="sourcePoint" />
            <mxPoint x="655" y="170" as="targetPoint" />
          </mxGeometry>
        </mxCell>
        <mxCell id="S5ZDTjxf2J-4e3x-WdZ--256" value="" style="edgeStyle=orthogonalEdgeStyle;rounded=1;orthogonalLoop=1;jettySize=auto;html=1;flowAnimation=1;strokeWidth=3;shadow=0;jumpStyle=none;curved=1;flowAnimationDuration=1000;strokeColor=#9673a6;align=center;verticalAlign=middle;fontFamily=Helvetica;fontSize=11;fontColor=default;labelBackgroundColor=default;startArrow=oval;startFill=1;endArrow=none;startSize=6;dashed=1;fillColor=#e1d5e7;endFill=0;exitX=0.5;exitY=1;exitDx=0;exitDy=0;entryX=0.5;entryY=0;entryDx=0;entryDy=0;" parent="S5ZDTjxf2J-4e3x-WdZ--146" source="S5ZDTjxf2J-4e3x-WdZ--69" target="S5ZDTjxf2J-4e3x-WdZ--247" edge="1">
          <mxGeometry relative="1" as="geometry">
            <mxPoint x="1110" y="-70" as="sourcePoint" />
            <mxPoint x="1160" y="150" as="targetPoint" />
          </mxGeometry>
        </mxCell>
        <mxCell id="S5ZDTjxf2J-4e3x-WdZ--257" value="" style="edgeStyle=orthogonalEdgeStyle;rounded=1;orthogonalLoop=1;jettySize=auto;html=1;flowAnimation=1;strokeWidth=3;shadow=0;jumpStyle=none;curved=1;flowAnimationDuration=1000;strokeColor=#9673a6;align=center;verticalAlign=middle;fontFamily=Helvetica;fontSize=11;fontColor=default;labelBackgroundColor=default;startArrow=oval;startFill=1;endArrow=none;startSize=6;dashed=1;fillColor=#e1d5e7;endFill=0;exitX=0.5;exitY=1;exitDx=0;exitDy=0;entryX=0.5;entryY=0;entryDx=0;entryDy=0;" parent="S5ZDTjxf2J-4e3x-WdZ--146" source="S5ZDTjxf2J-4e3x-WdZ--69" target="S5ZDTjxf2J-4e3x-WdZ--248" edge="1">
          <mxGeometry relative="1" as="geometry">
            <mxPoint x="1110" y="-70" as="sourcePoint" />
            <mxPoint x="1285" y="80" as="targetPoint" />
          </mxGeometry>
        </mxCell>
        <mxCell id="S5ZDTjxf2J-4e3x-WdZ--258" value="" style="edgeStyle=orthogonalEdgeStyle;rounded=1;orthogonalLoop=1;jettySize=auto;html=1;flowAnimation=1;strokeWidth=3;shadow=0;jumpStyle=none;curved=1;flowAnimationDuration=1000;strokeColor=#9673a6;align=center;verticalAlign=middle;fontFamily=Helvetica;fontSize=11;fontColor=default;labelBackgroundColor=default;startArrow=oval;startFill=1;endArrow=none;startSize=6;dashed=1;fillColor=#e1d5e7;endFill=0;exitX=0.5;exitY=1;exitDx=0;exitDy=0;entryX=0.5;entryY=0;entryDx=0;entryDy=0;" parent="S5ZDTjxf2J-4e3x-WdZ--146" source="S5ZDTjxf2J-4e3x-WdZ--69" target="S5ZDTjxf2J-4e3x-WdZ--246" edge="1">
          <mxGeometry relative="1" as="geometry">
            <mxPoint x="1110" y="-70" as="sourcePoint" />
            <mxPoint x="825" y="80" as="targetPoint" />
          </mxGeometry>
        </mxCell>
        <mxCell id="S5ZDTjxf2J-4e3x-WdZ--259" value="" style="edgeStyle=orthogonalEdgeStyle;rounded=1;orthogonalLoop=1;jettySize=auto;html=1;flowAnimation=1;strokeWidth=3;shadow=0;jumpStyle=none;curved=1;flowAnimationDuration=1000;strokeColor=#9673a6;align=center;verticalAlign=middle;fontFamily=Helvetica;fontSize=11;fontColor=default;labelBackgroundColor=default;startArrow=oval;startFill=1;endArrow=none;startSize=6;dashed=1;fillColor=#e1d5e7;endFill=0;exitX=0.5;exitY=1;exitDx=0;exitDy=0;entryX=0.5;entryY=0;entryDx=0;entryDy=0;" parent="S5ZDTjxf2J-4e3x-WdZ--146" source="S5ZDTjxf2J-4e3x-WdZ--69" target="S5ZDTjxf2J-4e3x-WdZ--249" edge="1">
          <mxGeometry relative="1" as="geometry">
            <mxPoint x="1120" y="-60" as="sourcePoint" />
            <mxPoint x="1295" y="90" as="targetPoint" />
          </mxGeometry>
        </mxCell>
        <mxCell id="S5ZDTjxf2J-4e3x-WdZ--144" value="City" style="" parent="0" visible="0" />
        <mxCell id="S5ZDTjxf2J-4e3x-WdZ--273" value="" style="edgeStyle=orthogonalEdgeStyle;rounded=1;orthogonalLoop=1;jettySize=auto;html=1;flowAnimation=1;strokeWidth=3;shadow=0;jumpStyle=none;curved=1;flowAnimationDuration=1000;strokeColor=#666666;align=center;verticalAlign=middle;fontFamily=Helvetica;fontSize=11;fontColor=default;labelBackgroundColor=default;startArrow=oval;startFill=1;endArrow=none;startSize=6;dashed=1;fillColor=#f5f5f5;endFill=0;exitX=0.5;exitY=1;exitDx=0;exitDy=0;entryX=0.5;entryY=0;entryDx=0;entryDy=0;" parent="S5ZDTjxf2J-4e3x-WdZ--144" source="S5ZDTjxf2J-4e3x-WdZ--268" target="S5ZDTjxf2J-4e3x-WdZ--3" edge="1">
          <mxGeometry relative="1" as="geometry">
            <mxPoint x="1320" y="-60" as="sourcePoint" />
            <mxPoint x="950" y="140" as="targetPoint" />
          </mxGeometry>
        </mxCell>
        <mxCell id="S5ZDTjxf2J-4e3x-WdZ--274" value="" style="edgeStyle=orthogonalEdgeStyle;rounded=1;orthogonalLoop=1;jettySize=auto;html=1;flowAnimation=1;strokeWidth=3;shadow=0;jumpStyle=none;curved=1;flowAnimationDuration=1000;strokeColor=#666666;align=center;verticalAlign=middle;fontFamily=Helvetica;fontSize=11;fontColor=default;labelBackgroundColor=default;startArrow=oval;startFill=1;endArrow=none;startSize=6;dashed=1;fillColor=#f5f5f5;endFill=0;exitX=0.5;exitY=1;exitDx=0;exitDy=0;entryX=0.5;entryY=0;entryDx=0;entryDy=0;" parent="S5ZDTjxf2J-4e3x-WdZ--144" source="S5ZDTjxf2J-4e3x-WdZ--267" target="S5ZDTjxf2J-4e3x-WdZ--1" edge="1">
          <mxGeometry relative="1" as="geometry">
            <mxPoint x="950" y="200" as="sourcePoint" />
            <mxPoint x="780" y="330" as="targetPoint" />
          </mxGeometry>
        </mxCell>
        <mxCell id="S5ZDTjxf2J-4e3x-WdZ--277" value="" style="edgeStyle=orthogonalEdgeStyle;rounded=1;orthogonalLoop=1;jettySize=auto;html=1;flowAnimation=1;strokeWidth=3;shadow=0;jumpStyle=none;curved=1;flowAnimationDuration=1000;strokeColor=#666666;align=center;verticalAlign=middle;fontFamily=Helvetica;fontSize=11;fontColor=default;labelBackgroundColor=default;startArrow=oval;startFill=1;endArrow=none;startSize=6;dashed=1;fillColor=#f5f5f5;endFill=0;exitX=0.5;exitY=1;exitDx=0;exitDy=0;" parent="S5ZDTjxf2J-4e3x-WdZ--144" source="S5ZDTjxf2J-4e3x-WdZ--275" edge="1">
          <mxGeometry relative="1" as="geometry">
            <mxPoint x="950" y="200" as="sourcePoint" />
            <mxPoint x="770" y="320" as="targetPoint" />
          </mxGeometry>
        </mxCell>
        <mxCell id="S5ZDTjxf2J-4e3x-WdZ--278" value="" style="edgeStyle=orthogonalEdgeStyle;rounded=1;orthogonalLoop=1;jettySize=auto;html=1;flowAnimation=1;strokeWidth=3;shadow=0;jumpStyle=none;curved=1;flowAnimationDuration=1000;strokeColor=#666666;align=center;verticalAlign=middle;fontFamily=Helvetica;fontSize=11;fontColor=default;labelBackgroundColor=default;startArrow=oval;startFill=1;endArrow=none;startSize=6;dashed=1;fillColor=#f5f5f5;endFill=0;entryX=0.5;entryY=0;entryDx=0;entryDy=0;" parent="S5ZDTjxf2J-4e3x-WdZ--144" target="S5ZDTjxf2J-4e3x-WdZ--1" edge="1">
          <mxGeometry relative="1" as="geometry">
            <mxPoint x="440" y="80" as="sourcePoint" />
            <mxPoint x="425" y="70" as="targetPoint" />
            <Array as="points">
              <mxPoint x="415" y="240" />
              <mxPoint x="530" y="240" />
            </Array>
          </mxGeometry>
        </mxCell>
        <mxCell id="S5ZDTjxf2J-4e3x-WdZ--281" value="" style="edgeStyle=orthogonalEdgeStyle;rounded=1;orthogonalLoop=1;jettySize=auto;html=1;flowAnimation=1;strokeWidth=3;shadow=0;jumpStyle=none;curved=1;flowAnimationDuration=1000;strokeColor=#666666;align=center;verticalAlign=middle;fontFamily=Helvetica;fontSize=11;fontColor=default;labelBackgroundColor=default;startArrow=oval;startFill=1;endArrow=none;startSize=6;dashed=1;fillColor=#f5f5f5;endFill=0;exitX=0.5;exitY=1;exitDx=0;exitDy=0;entryX=0.5;entryY=0;entryDx=0;entryDy=0;" parent="S5ZDTjxf2J-4e3x-WdZ--144" source="S5ZDTjxf2J-4e3x-WdZ--279" target="S5ZDTjxf2J-4e3x-WdZ--13" edge="1">
          <mxGeometry relative="1" as="geometry">
            <mxPoint x="1320" y="-60" as="sourcePoint" />
            <mxPoint x="1205" y="150" as="targetPoint" />
          </mxGeometry>
        </mxCell>
        <mxCell id="S5ZDTjxf2J-4e3x-WdZ--282" value="" style="edgeStyle=orthogonalEdgeStyle;rounded=1;orthogonalLoop=1;jettySize=auto;html=1;flowAnimation=1;strokeWidth=3;shadow=0;jumpStyle=none;curved=1;flowAnimationDuration=1000;strokeColor=#666666;align=center;verticalAlign=middle;fontFamily=Helvetica;fontSize=11;fontColor=default;labelBackgroundColor=default;startArrow=oval;startFill=1;endArrow=none;startSize=6;dashed=1;fillColor=#f5f5f5;endFill=0;exitX=0.5;exitY=1;exitDx=0;exitDy=0;entryX=0.5;entryY=0;entryDx=0;entryDy=0;" parent="S5ZDTjxf2J-4e3x-WdZ--144" source="S5ZDTjxf2J-4e3x-WdZ--269" target="S5ZDTjxf2J-4e3x-WdZ--52" edge="1">
          <mxGeometry relative="1" as="geometry">
            <mxPoint x="1320" y="-60" as="sourcePoint" />
            <mxPoint x="1515" y="70" as="targetPoint" />
          </mxGeometry>
        </mxCell>
        <mxCell id="S5ZDTjxf2J-4e3x-WdZ--285" value="" style="edgeStyle=orthogonalEdgeStyle;rounded=1;orthogonalLoop=1;jettySize=auto;html=1;flowAnimation=1;strokeWidth=3;shadow=0;jumpStyle=none;curved=1;flowAnimationDuration=1000;strokeColor=#666666;align=center;verticalAlign=middle;fontFamily=Helvetica;fontSize=11;fontColor=default;labelBackgroundColor=default;startArrow=oval;startFill=1;endArrow=none;startSize=6;dashed=1;fillColor=#f5f5f5;endFill=0;exitX=0.5;exitY=1;exitDx=0;exitDy=0;entryX=0.5;entryY=0;entryDx=0;entryDy=0;" parent="S5ZDTjxf2J-4e3x-WdZ--144" source="S5ZDTjxf2J-4e3x-WdZ--283" target="S5ZDTjxf2J-4e3x-WdZ--52" edge="1">
          <mxGeometry relative="1" as="geometry">
            <mxPoint x="1320" y="-60" as="sourcePoint" />
            <mxPoint x="1375" y="70" as="targetPoint" />
          </mxGeometry>
        </mxCell>
        <mxCell id="S5ZDTjxf2J-4e3x-WdZ--287" value="" style="edgeStyle=orthogonalEdgeStyle;rounded=1;orthogonalLoop=1;jettySize=auto;html=1;flowAnimation=1;strokeWidth=3;shadow=0;jumpStyle=none;curved=1;flowAnimationDuration=1000;strokeColor=#666666;align=center;verticalAlign=middle;fontFamily=Helvetica;fontSize=11;fontColor=default;labelBackgroundColor=default;startArrow=oval;startFill=1;endArrow=none;startSize=6;dashed=1;fillColor=#f5f5f5;endFill=0;entryX=0.5;entryY=0;entryDx=0;entryDy=0;exitX=0.5;exitY=1;exitDx=0;exitDy=0;" parent="S5ZDTjxf2J-4e3x-WdZ--144" source="S5ZDTjxf2J-4e3x-WdZ--286" target="S5ZDTjxf2J-4e3x-WdZ--3" edge="1">
          <mxGeometry relative="1" as="geometry">
            <mxPoint x="680" y="230" as="sourcePoint" />
            <mxPoint x="540" y="330" as="targetPoint" />
          </mxGeometry>
        </mxCell>
        <mxCell id="S5ZDTjxf2J-4e3x-WdZ--288" value="" style="edgeStyle=orthogonalEdgeStyle;rounded=1;orthogonalLoop=1;jettySize=auto;html=1;flowAnimation=1;strokeWidth=3;shadow=0;jumpStyle=none;curved=1;flowAnimationDuration=1000;strokeColor=#666666;align=center;verticalAlign=middle;fontFamily=Helvetica;fontSize=11;fontColor=default;labelBackgroundColor=default;startArrow=oval;startFill=1;endArrow=none;startSize=6;dashed=1;fillColor=#f5f5f5;endFill=0;exitX=0.5;exitY=1;exitDx=0;exitDy=0;" parent="S5ZDTjxf2J-4e3x-WdZ--144" source="S5ZDTjxf2J-4e3x-WdZ--286" target="S5ZDTjxf2J-4e3x-WdZ--1" edge="1">
          <mxGeometry relative="1" as="geometry">
            <mxPoint x="655" y="220" as="sourcePoint" />
            <mxPoint x="780" y="330" as="targetPoint" />
          </mxGeometry>
        </mxCell>
        <mxCell id="S5ZDTjxf2J-4e3x-WdZ--289" value="" style="edgeStyle=orthogonalEdgeStyle;rounded=1;orthogonalLoop=1;jettySize=auto;html=1;flowAnimation=1;strokeWidth=3;shadow=0;jumpStyle=none;curved=1;flowAnimationDuration=1000;strokeColor=#666666;align=center;verticalAlign=middle;fontFamily=Helvetica;fontSize=11;fontColor=default;labelBackgroundColor=default;startArrow=oval;startFill=1;endArrow=none;startSize=6;dashed=1;fillColor=#f5f5f5;endFill=0;exitX=0.5;exitY=1;exitDx=0;exitDy=0;entryX=0.5;entryY=0;entryDx=0;entryDy=0;" parent="S5ZDTjxf2J-4e3x-WdZ--144" source="S5ZDTjxf2J-4e3x-WdZ--286" target="S5ZDTjxf2J-4e3x-WdZ--5" edge="1">
          <mxGeometry relative="1" as="geometry">
            <mxPoint x="655" y="220" as="sourcePoint" />
            <mxPoint x="540" y="330" as="targetPoint" />
          </mxGeometry>
        </mxCell>
        <mxCell id="S5ZDTjxf2J-4e3x-WdZ--290" value="" style="edgeStyle=orthogonalEdgeStyle;rounded=1;orthogonalLoop=1;jettySize=auto;html=1;flowAnimation=1;strokeWidth=3;shadow=0;jumpStyle=none;curved=1;flowAnimationDuration=1000;strokeColor=#666666;align=center;verticalAlign=middle;fontFamily=Helvetica;fontSize=11;fontColor=default;labelBackgroundColor=default;startArrow=oval;startFill=1;endArrow=none;startSize=6;dashed=1;fillColor=#f5f5f5;endFill=0;entryX=0.5;entryY=0;entryDx=0;entryDy=0;exitX=0.5;exitY=1;exitDx=0;exitDy=0;" parent="S5ZDTjxf2J-4e3x-WdZ--144" source="S5ZDTjxf2J-4e3x-WdZ--286" target="S5ZDTjxf2J-4e3x-WdZ--6" edge="1">
          <mxGeometry relative="1" as="geometry">
            <mxPoint x="655" y="220" as="sourcePoint" />
            <mxPoint x="780" y="330" as="targetPoint" />
          </mxGeometry>
        </mxCell>
        <mxCell id="S5ZDTjxf2J-4e3x-WdZ--291" value="" style="edgeStyle=orthogonalEdgeStyle;rounded=1;orthogonalLoop=1;jettySize=auto;html=1;flowAnimation=1;strokeWidth=3;shadow=0;jumpStyle=none;curved=1;flowAnimationDuration=1000;strokeColor=#666666;align=center;verticalAlign=middle;fontFamily=Helvetica;fontSize=11;fontColor=default;labelBackgroundColor=default;startArrow=oval;startFill=1;endArrow=none;startSize=6;dashed=1;fillColor=#f5f5f5;endFill=0;entryX=0.5;entryY=0;entryDx=0;entryDy=0;exitX=0.5;exitY=1;exitDx=0;exitDy=0;" parent="S5ZDTjxf2J-4e3x-WdZ--144" source="S5ZDTjxf2J-4e3x-WdZ--286" target="S5ZDTjxf2J-4e3x-WdZ--15" edge="1">
          <mxGeometry relative="1" as="geometry">
            <mxPoint x="655" y="220" as="sourcePoint" />
            <mxPoint x="900" y="330" as="targetPoint" />
          </mxGeometry>
        </mxCell>
        <mxCell id="S5ZDTjxf2J-4e3x-WdZ--292" value="" style="edgeStyle=orthogonalEdgeStyle;rounded=1;orthogonalLoop=1;jettySize=auto;html=1;flowAnimation=1;strokeWidth=3;shadow=0;jumpStyle=none;curved=1;flowAnimationDuration=1000;strokeColor=#666666;align=center;verticalAlign=middle;fontFamily=Helvetica;fontSize=11;fontColor=default;labelBackgroundColor=default;startArrow=oval;startFill=1;endArrow=none;startSize=6;dashed=1;fillColor=#f5f5f5;endFill=0;entryX=0.5;entryY=0;entryDx=0;entryDy=0;exitX=0.5;exitY=1;exitDx=0;exitDy=0;" parent="S5ZDTjxf2J-4e3x-WdZ--144" source="S5ZDTjxf2J-4e3x-WdZ--286" target="S5ZDTjxf2J-4e3x-WdZ--10" edge="1">
          <mxGeometry relative="1" as="geometry">
            <mxPoint x="695" y="190" as="sourcePoint" />
            <mxPoint x="1260" y="330" as="targetPoint" />
          </mxGeometry>
        </mxCell>
        <mxCell id="S5ZDTjxf2J-4e3x-WdZ--293" value="" style="edgeStyle=orthogonalEdgeStyle;rounded=1;orthogonalLoop=1;jettySize=auto;html=1;flowAnimation=1;strokeWidth=3;shadow=0;jumpStyle=none;curved=1;flowAnimationDuration=1000;strokeColor=#666666;align=center;verticalAlign=middle;fontFamily=Helvetica;fontSize=11;fontColor=default;labelBackgroundColor=default;startArrow=oval;startFill=1;endArrow=none;startSize=6;dashed=1;fillColor=#f5f5f5;endFill=0;entryX=0.5;entryY=0;entryDx=0;entryDy=0;exitX=0.5;exitY=1;exitDx=0;exitDy=0;" parent="S5ZDTjxf2J-4e3x-WdZ--144" source="S5ZDTjxf2J-4e3x-WdZ--286" target="S5ZDTjxf2J-4e3x-WdZ--9" edge="1">
          <mxGeometry relative="1" as="geometry">
            <mxPoint x="695" y="190" as="sourcePoint" />
            <mxPoint x="1380" y="330" as="targetPoint" />
          </mxGeometry>
        </mxCell>
        <mxCell id="S5ZDTjxf2J-4e3x-WdZ--294" value="" style="edgeStyle=orthogonalEdgeStyle;rounded=1;orthogonalLoop=1;jettySize=auto;html=1;flowAnimation=1;strokeWidth=3;shadow=0;jumpStyle=none;curved=1;flowAnimationDuration=1000;strokeColor=#666666;align=center;verticalAlign=middle;fontFamily=Helvetica;fontSize=11;fontColor=default;labelBackgroundColor=default;startArrow=oval;startFill=1;endArrow=none;startSize=6;dashed=1;fillColor=#f5f5f5;endFill=0;entryX=0.5;entryY=0;entryDx=0;entryDy=0;exitX=0.5;exitY=1;exitDx=0;exitDy=0;" parent="S5ZDTjxf2J-4e3x-WdZ--144" source="S5ZDTjxf2J-4e3x-WdZ--286" target="S5ZDTjxf2J-4e3x-WdZ--13" edge="1">
          <mxGeometry relative="1" as="geometry">
            <mxPoint x="695" y="190" as="sourcePoint" />
            <mxPoint x="1500" y="330" as="targetPoint" />
          </mxGeometry>
        </mxCell>
        <mxCell id="S5ZDTjxf2J-4e3x-WdZ--296" value="" style="edgeStyle=orthogonalEdgeStyle;rounded=1;orthogonalLoop=1;jettySize=auto;html=1;flowAnimation=1;strokeWidth=3;shadow=0;jumpStyle=none;curved=1;flowAnimationDuration=1000;strokeColor=#666666;align=center;verticalAlign=middle;fontFamily=Helvetica;fontSize=11;fontColor=default;labelBackgroundColor=default;startArrow=oval;startFill=1;endArrow=none;startSize=6;dashed=1;fillColor=#f5f5f5;endFill=0;entryX=0.5;entryY=0;entryDx=0;entryDy=0;exitX=0.5;exitY=1;exitDx=0;exitDy=0;" parent="S5ZDTjxf2J-4e3x-WdZ--144" source="S5ZDTjxf2J-4e3x-WdZ--286" target="S5ZDTjxf2J-4e3x-WdZ--52" edge="1">
          <mxGeometry relative="1" as="geometry">
            <mxPoint x="695" y="190" as="sourcePoint" />
            <mxPoint x="1500" y="330" as="targetPoint" />
          </mxGeometry>
        </mxCell>
        <mxCell id="S5ZDTjxf2J-4e3x-WdZ--151" value="" style="edgeStyle=orthogonalEdgeStyle;rounded=1;orthogonalLoop=1;jettySize=auto;html=1;flowAnimation=1;strokeWidth=3;shadow=0;jumpStyle=none;curved=1;flowAnimationDuration=1000;strokeColor=#666666;align=center;verticalAlign=middle;fontFamily=Helvetica;fontSize=11;fontColor=default;labelBackgroundColor=default;startArrow=oval;startFill=1;endArrow=none;startSize=6;dashed=1;fillColor=#f5f5f5;endFill=0;exitX=0.5;exitY=1;exitDx=0;exitDy=0;entryX=0.5;entryY=0;entryDx=0;entryDy=0;" parent="S5ZDTjxf2J-4e3x-WdZ--144" source="S5ZDTjxf2J-4e3x-WdZ--74" target="S5ZDTjxf2J-4e3x-WdZ--266" edge="1">
          <mxGeometry relative="1" as="geometry">
            <mxPoint x="1130" y="-60" as="sourcePoint" />
            <mxPoint x="1280" y="-20" as="targetPoint" />
            <Array as="points">
              <mxPoint x="1310" y="-40" />
              <mxPoint x="445" y="-40" />
            </Array>
          </mxGeometry>
        </mxCell>
        <mxCell id="S5ZDTjxf2J-4e3x-WdZ--266" value="&lt;span style=&quot;font-size: 15px;&quot;&gt;&lt;b&gt;Gérer les jardins partagés&lt;/b&gt;&lt;/span&gt;" style="rounded=1;whiteSpace=wrap;html=1;fillColor=#bac8d3;strokeColor=none;" parent="S5ZDTjxf2J-4e3x-WdZ--144" vertex="1">
          <mxGeometry x="320" y="30" width="250" height="50" as="geometry" />
        </mxCell>
        <mxCell id="S5ZDTjxf2J-4e3x-WdZ--267" value="&lt;span style=&quot;font-size: 15px;&quot;&gt;&lt;b&gt;Gérer les permis de végétaliser&lt;/b&gt;&lt;/span&gt;" style="rounded=1;whiteSpace=wrap;html=1;fillColor=#bac8d3;strokeColor=none;" parent="S5ZDTjxf2J-4e3x-WdZ--144" vertex="1">
          <mxGeometry x="160" y="130" width="250" height="50" as="geometry" />
        </mxCell>
        <mxCell id="S5ZDTjxf2J-4e3x-WdZ--268" value="&lt;span style=&quot;font-size: 15px;&quot;&gt;&lt;b&gt;Gérer les zones de compostage de quartier et au pied des immeubles&lt;/b&gt;&lt;/span&gt;" style="rounded=1;whiteSpace=wrap;html=1;fillColor=#bac8d3;strokeColor=none;" parent="S5ZDTjxf2J-4e3x-WdZ--144" vertex="1">
          <mxGeometry x="790" y="25" width="220" height="75" as="geometry" />
        </mxCell>
        <mxCell id="S5ZDTjxf2J-4e3x-WdZ--269" value="&lt;span style=&quot;font-size: 15px;&quot;&gt;&lt;b&gt;Visualiser le maillage du territoire&lt;/b&gt;&lt;/span&gt;" style="rounded=1;whiteSpace=wrap;html=1;fillColor=#bac8d3;strokeColor=none;" parent="S5ZDTjxf2J-4e3x-WdZ--144" vertex="1">
          <mxGeometry x="1450" width="250" height="50" as="geometry" />
        </mxCell>
        <mxCell id="S5ZDTjxf2J-4e3x-WdZ--270" value="" style="edgeStyle=orthogonalEdgeStyle;rounded=1;orthogonalLoop=1;jettySize=auto;html=1;flowAnimation=1;strokeWidth=3;shadow=0;jumpStyle=none;curved=1;flowAnimationDuration=1000;strokeColor=#666666;align=center;verticalAlign=middle;fontFamily=Helvetica;fontSize=11;fontColor=default;labelBackgroundColor=default;startArrow=oval;startFill=1;endArrow=none;startSize=6;dashed=1;fillColor=#f5f5f5;endFill=0;exitX=0.5;exitY=1;exitDx=0;exitDy=0;" parent="S5ZDTjxf2J-4e3x-WdZ--144" source="S5ZDTjxf2J-4e3x-WdZ--74" target="S5ZDTjxf2J-4e3x-WdZ--269" edge="1">
          <mxGeometry relative="1" as="geometry">
            <mxPoint x="1320" y="-60" as="sourcePoint" />
            <mxPoint x="425" y="70" as="targetPoint" />
          </mxGeometry>
        </mxCell>
        <mxCell id="S5ZDTjxf2J-4e3x-WdZ--271" value="" style="edgeStyle=orthogonalEdgeStyle;rounded=1;orthogonalLoop=1;jettySize=auto;html=1;flowAnimation=1;strokeWidth=3;shadow=0;jumpStyle=none;curved=1;flowAnimationDuration=1000;strokeColor=#666666;align=center;verticalAlign=middle;fontFamily=Helvetica;fontSize=11;fontColor=default;labelBackgroundColor=default;startArrow=oval;startFill=1;endArrow=none;startSize=6;dashed=1;fillColor=#f5f5f5;endFill=0;exitX=0.5;exitY=1;exitDx=0;exitDy=0;entryX=0.5;entryY=0;entryDx=0;entryDy=0;" parent="S5ZDTjxf2J-4e3x-WdZ--144" source="S5ZDTjxf2J-4e3x-WdZ--74" target="S5ZDTjxf2J-4e3x-WdZ--268" edge="1">
          <mxGeometry relative="1" as="geometry">
            <mxPoint x="1320" y="-60" as="sourcePoint" />
            <mxPoint x="1515" y="130" as="targetPoint" />
          </mxGeometry>
        </mxCell>
        <mxCell id="S5ZDTjxf2J-4e3x-WdZ--272" value="" style="edgeStyle=orthogonalEdgeStyle;rounded=1;orthogonalLoop=1;jettySize=auto;html=1;flowAnimation=1;strokeWidth=3;shadow=0;jumpStyle=none;curved=1;flowAnimationDuration=1000;strokeColor=#666666;align=center;verticalAlign=middle;fontFamily=Helvetica;fontSize=11;fontColor=default;labelBackgroundColor=default;startArrow=oval;startFill=1;endArrow=none;startSize=6;dashed=1;fillColor=#f5f5f5;endFill=0;exitX=0.5;exitY=1;exitDx=0;exitDy=0;entryX=0.5;entryY=0;entryDx=0;entryDy=0;" parent="S5ZDTjxf2J-4e3x-WdZ--144" source="S5ZDTjxf2J-4e3x-WdZ--74" target="S5ZDTjxf2J-4e3x-WdZ--267" edge="1">
          <mxGeometry relative="1" as="geometry">
            <mxPoint x="1320" y="-60" as="sourcePoint" />
            <mxPoint x="1125" y="60" as="targetPoint" />
            <Array as="points">
              <mxPoint x="1310" y="-50" />
              <mxPoint x="280" y="-50" />
              <mxPoint x="280" y="130" />
            </Array>
          </mxGeometry>
        </mxCell>
        <mxCell id="S5ZDTjxf2J-4e3x-WdZ--275" value="&lt;span style=&quot;font-size: 15px;&quot;&gt;&lt;b&gt;Organiser la collecte des biodéchets&lt;/b&gt;&lt;/span&gt;" style="rounded=1;whiteSpace=wrap;html=1;fillColor=#bac8d3;strokeColor=none;" parent="S5ZDTjxf2J-4e3x-WdZ--144" vertex="1">
          <mxGeometry x="1040" y="50" width="220" height="60" as="geometry" />
        </mxCell>
        <mxCell id="S5ZDTjxf2J-4e3x-WdZ--276" value="" style="edgeStyle=orthogonalEdgeStyle;rounded=1;orthogonalLoop=1;jettySize=auto;html=1;flowAnimation=1;strokeWidth=3;shadow=0;jumpStyle=none;curved=1;flowAnimationDuration=1000;strokeColor=#666666;align=center;verticalAlign=middle;fontFamily=Helvetica;fontSize=11;fontColor=default;labelBackgroundColor=default;startArrow=oval;startFill=1;endArrow=none;startSize=6;dashed=1;fillColor=#f5f5f5;endFill=0;exitX=0.5;exitY=1;exitDx=0;exitDy=0;entryX=0.5;entryY=0;entryDx=0;entryDy=0;" parent="S5ZDTjxf2J-4e3x-WdZ--144" source="S5ZDTjxf2J-4e3x-WdZ--74" target="S5ZDTjxf2J-4e3x-WdZ--275" edge="1">
          <mxGeometry relative="1" as="geometry">
            <mxPoint x="1320" y="-60" as="sourcePoint" />
            <mxPoint x="950" y="140" as="targetPoint" />
          </mxGeometry>
        </mxCell>
        <mxCell id="S5ZDTjxf2J-4e3x-WdZ--279" value="&lt;span style=&quot;font-size: 15px;&quot;&gt;&lt;b&gt;Gérer les espaces de biodiversité&lt;/b&gt;&lt;/span&gt;" style="rounded=1;whiteSpace=wrap;html=1;fillColor=#bac8d3;strokeColor=none;" parent="S5ZDTjxf2J-4e3x-WdZ--144" vertex="1">
          <mxGeometry x="1180" y="140" width="210" height="50" as="geometry" />
        </mxCell>
        <mxCell id="S5ZDTjxf2J-4e3x-WdZ--280" value="" style="edgeStyle=orthogonalEdgeStyle;rounded=1;orthogonalLoop=1;jettySize=auto;html=1;flowAnimation=1;strokeWidth=3;shadow=0;jumpStyle=none;curved=1;flowAnimationDuration=1000;strokeColor=#666666;align=center;verticalAlign=middle;fontFamily=Helvetica;fontSize=11;fontColor=default;labelBackgroundColor=default;startArrow=oval;startFill=1;endArrow=none;startSize=6;dashed=1;fillColor=#f5f5f5;endFill=0;exitX=0.5;exitY=1;exitDx=0;exitDy=0;" parent="S5ZDTjxf2J-4e3x-WdZ--144" source="S5ZDTjxf2J-4e3x-WdZ--74" target="S5ZDTjxf2J-4e3x-WdZ--279" edge="1">
          <mxGeometry relative="1" as="geometry">
            <mxPoint x="1320" y="-60" as="sourcePoint" />
            <mxPoint x="1030" y="220" as="targetPoint" />
          </mxGeometry>
        </mxCell>
        <mxCell id="S5ZDTjxf2J-4e3x-WdZ--283" value="&lt;span style=&quot;font-size: 15px;&quot;&gt;&lt;b&gt;Communiquer et animer le territoire en connectant les acteurs&lt;/b&gt;&lt;/span&gt;" style="rounded=1;whiteSpace=wrap;html=1;fillColor=#bac8d3;strokeColor=none;" parent="S5ZDTjxf2J-4e3x-WdZ--144" vertex="1">
          <mxGeometry x="1310" y="60" width="250" height="70" as="geometry" />
        </mxCell>
        <mxCell id="S5ZDTjxf2J-4e3x-WdZ--284" value="" style="edgeStyle=orthogonalEdgeStyle;rounded=1;orthogonalLoop=1;jettySize=auto;html=1;flowAnimation=1;strokeWidth=3;shadow=0;jumpStyle=none;curved=1;flowAnimationDuration=1000;strokeColor=#666666;align=center;verticalAlign=middle;fontFamily=Helvetica;fontSize=11;fontColor=default;labelBackgroundColor=default;startArrow=oval;startFill=1;endArrow=none;startSize=6;dashed=1;fillColor=#f5f5f5;endFill=0;exitX=0.5;exitY=1;exitDx=0;exitDy=0;entryX=0.5;entryY=0;entryDx=0;entryDy=0;" parent="S5ZDTjxf2J-4e3x-WdZ--144" source="S5ZDTjxf2J-4e3x-WdZ--74" target="S5ZDTjxf2J-4e3x-WdZ--283" edge="1">
          <mxGeometry relative="1" as="geometry">
            <mxPoint x="1320" y="-60" as="sourcePoint" />
            <mxPoint x="1515" y="10" as="targetPoint" />
          </mxGeometry>
        </mxCell>
        <mxCell id="S5ZDTjxf2J-4e3x-WdZ--286" value="&lt;span style=&quot;font-size: 15px;&quot;&gt;&lt;b&gt;Visualiser les données statistiques fournies par le propriétaire des données&lt;/b&gt;&lt;/span&gt;" style="rounded=1;whiteSpace=wrap;html=1;fillColor=#bac8d3;strokeColor=none;" parent="S5ZDTjxf2J-4e3x-WdZ--144" vertex="1">
          <mxGeometry x="560" y="110" width="250" height="70" as="geometry" />
        </mxCell>
        <mxCell id="S5ZDTjxf2J-4e3x-WdZ--295" value="" style="edgeStyle=orthogonalEdgeStyle;rounded=1;orthogonalLoop=1;jettySize=auto;html=1;flowAnimation=1;strokeWidth=3;shadow=0;jumpStyle=none;curved=1;flowAnimationDuration=1000;strokeColor=#666666;align=center;verticalAlign=middle;fontFamily=Helvetica;fontSize=11;fontColor=default;labelBackgroundColor=default;startArrow=oval;startFill=1;endArrow=none;startSize=6;dashed=1;fillColor=#f5f5f5;endFill=0;exitX=0.5;exitY=1;exitDx=0;exitDy=0;entryX=0.5;entryY=0;entryDx=0;entryDy=0;" parent="S5ZDTjxf2J-4e3x-WdZ--144" source="S5ZDTjxf2J-4e3x-WdZ--74" target="S5ZDTjxf2J-4e3x-WdZ--286" edge="1">
          <mxGeometry relative="1" as="geometry">
            <mxPoint x="1320" y="-60" as="sourcePoint" />
            <mxPoint x="455" y="40" as="targetPoint" />
            <Array as="points">
              <mxPoint x="1310" y="-30" />
              <mxPoint x="685" y="-30" />
            </Array>
          </mxGeometry>
        </mxCell>
        <mxCell id="S5ZDTjxf2J-4e3x-WdZ--145" value="Researcher" style="" parent="0" visible="0" />
        <mxCell id="S5ZDTjxf2J-4e3x-WdZ--300" value="" style="edgeStyle=orthogonalEdgeStyle;rounded=1;orthogonalLoop=1;jettySize=auto;html=1;flowAnimation=1;strokeWidth=3;shadow=0;jumpStyle=none;curved=1;flowAnimationDuration=1000;strokeColor=#d6b656;align=center;verticalAlign=middle;fontFamily=Helvetica;fontSize=11;fontColor=default;labelBackgroundColor=default;startArrow=oval;startFill=1;endArrow=none;startSize=6;dashed=1;fillColor=#fff2cc;endFill=0;exitX=0.5;exitY=1;exitDx=0;exitDy=0;" parent="S5ZDTjxf2J-4e3x-WdZ--145" source="S5ZDTjxf2J-4e3x-WdZ--299" target="S5ZDTjxf2J-4e3x-WdZ--6" edge="1">
          <mxGeometry relative="1" as="geometry">
            <mxPoint x="1520" y="-60" as="sourcePoint" />
            <mxPoint x="975" y="140" as="targetPoint" />
          </mxGeometry>
        </mxCell>
        <mxCell id="S5ZDTjxf2J-4e3x-WdZ--302" value="" style="edgeStyle=orthogonalEdgeStyle;rounded=1;orthogonalLoop=1;jettySize=auto;html=1;flowAnimation=1;strokeWidth=3;shadow=0;jumpStyle=none;curved=1;flowAnimationDuration=1000;strokeColor=#d6b656;align=center;verticalAlign=middle;fontFamily=Helvetica;fontSize=11;fontColor=default;labelBackgroundColor=default;startArrow=oval;startFill=1;endArrow=none;startSize=6;dashed=1;fillColor=#fff2cc;endFill=0;exitX=0.5;exitY=1;exitDx=0;exitDy=0;entryX=0.5;entryY=0;entryDx=0;entryDy=0;" parent="S5ZDTjxf2J-4e3x-WdZ--145" source="S5ZDTjxf2J-4e3x-WdZ--299" target="S5ZDTjxf2J-4e3x-WdZ--13" edge="1">
          <mxGeometry relative="1" as="geometry">
            <mxPoint x="1020" y="210" as="sourcePoint" />
            <mxPoint x="900" y="330" as="targetPoint" />
          </mxGeometry>
        </mxCell>
        <mxCell id="S5ZDTjxf2J-4e3x-WdZ--303" value="" style="edgeStyle=orthogonalEdgeStyle;rounded=1;orthogonalLoop=1;jettySize=auto;html=1;flowAnimation=1;strokeWidth=3;shadow=0;jumpStyle=none;curved=1;flowAnimationDuration=1000;strokeColor=#d6b656;align=center;verticalAlign=middle;fontFamily=Helvetica;fontSize=11;fontColor=default;labelBackgroundColor=default;startArrow=oval;startFill=1;endArrow=none;startSize=6;dashed=1;fillColor=#fff2cc;endFill=0;exitX=0.5;exitY=1;exitDx=0;exitDy=0;" parent="S5ZDTjxf2J-4e3x-WdZ--145" source="S5ZDTjxf2J-4e3x-WdZ--299" target="S5ZDTjxf2J-4e3x-WdZ--10" edge="1">
          <mxGeometry relative="1" as="geometry">
            <mxPoint x="905" y="200" as="sourcePoint" />
            <mxPoint x="1140" y="330" as="targetPoint" />
          </mxGeometry>
        </mxCell>
        <mxCell id="S5ZDTjxf2J-4e3x-WdZ--304" value="" style="edgeStyle=orthogonalEdgeStyle;rounded=1;orthogonalLoop=1;jettySize=auto;html=1;flowAnimation=1;strokeWidth=3;shadow=0;jumpStyle=none;curved=1;flowAnimationDuration=1000;strokeColor=#d6b656;align=center;verticalAlign=middle;fontFamily=Helvetica;fontSize=11;fontColor=default;labelBackgroundColor=default;startArrow=oval;startFill=1;endArrow=none;startSize=6;dashed=1;fillColor=#fff2cc;endFill=0;exitX=0.5;exitY=1;exitDx=0;exitDy=0;entryX=0.5;entryY=0;entryDx=0;entryDy=0;" parent="S5ZDTjxf2J-4e3x-WdZ--145" source="S5ZDTjxf2J-4e3x-WdZ--299" target="S5ZDTjxf2J-4e3x-WdZ--1" edge="1">
          <mxGeometry relative="1" as="geometry">
            <mxPoint x="905" y="200" as="sourcePoint" />
            <mxPoint x="1380" y="330" as="targetPoint" />
          </mxGeometry>
        </mxCell>
        <mxCell id="S5ZDTjxf2J-4e3x-WdZ--305" value="" style="edgeStyle=orthogonalEdgeStyle;rounded=1;orthogonalLoop=1;jettySize=auto;html=1;flowAnimation=1;strokeWidth=3;shadow=0;jumpStyle=none;curved=1;flowAnimationDuration=1000;strokeColor=#d6b656;align=center;verticalAlign=middle;fontFamily=Helvetica;fontSize=11;fontColor=default;labelBackgroundColor=default;startArrow=oval;startFill=1;endArrow=none;startSize=6;dashed=1;fillColor=#fff2cc;endFill=0;exitX=0.5;exitY=1;exitDx=0;exitDy=0;entryX=0.5;entryY=0;entryDx=0;entryDy=0;" parent="S5ZDTjxf2J-4e3x-WdZ--145" source="S5ZDTjxf2J-4e3x-WdZ--299" target="S5ZDTjxf2J-4e3x-WdZ--5" edge="1">
          <mxGeometry relative="1" as="geometry">
            <mxPoint x="905" y="200" as="sourcePoint" />
            <mxPoint x="540" y="330" as="targetPoint" />
          </mxGeometry>
        </mxCell>
        <mxCell id="S5ZDTjxf2J-4e3x-WdZ--306" value="" style="edgeStyle=orthogonalEdgeStyle;rounded=1;orthogonalLoop=1;jettySize=auto;html=1;flowAnimation=1;strokeWidth=3;shadow=0;jumpStyle=none;curved=1;flowAnimationDuration=1000;strokeColor=#d6b656;align=center;verticalAlign=middle;fontFamily=Helvetica;fontSize=11;fontColor=default;labelBackgroundColor=default;startArrow=oval;startFill=1;endArrow=none;startSize=6;dashed=1;fillColor=#fff2cc;endFill=0;exitX=0.5;exitY=1;exitDx=0;exitDy=0;entryX=0.5;entryY=0;entryDx=0;entryDy=0;" parent="S5ZDTjxf2J-4e3x-WdZ--145" source="S5ZDTjxf2J-4e3x-WdZ--299" target="S5ZDTjxf2J-4e3x-WdZ--3" edge="1">
          <mxGeometry relative="1" as="geometry">
            <mxPoint x="905" y="200" as="sourcePoint" />
            <mxPoint x="420" y="330" as="targetPoint" />
          </mxGeometry>
        </mxCell>
        <mxCell id="S5ZDTjxf2J-4e3x-WdZ--307" value="" style="edgeStyle=orthogonalEdgeStyle;rounded=1;orthogonalLoop=1;jettySize=auto;html=1;flowAnimation=1;strokeWidth=3;shadow=0;jumpStyle=none;curved=1;flowAnimationDuration=1000;strokeColor=#d6b656;align=center;verticalAlign=middle;fontFamily=Helvetica;fontSize=11;fontColor=default;labelBackgroundColor=default;startArrow=oval;startFill=1;endArrow=none;startSize=6;dashed=1;fillColor=#fff2cc;endFill=0;exitX=0.5;exitY=1;exitDx=0;exitDy=0;entryX=0.5;entryY=0;entryDx=0;entryDy=0;" parent="S5ZDTjxf2J-4e3x-WdZ--145" source="S5ZDTjxf2J-4e3x-WdZ--299" target="S5ZDTjxf2J-4e3x-WdZ--9" edge="1">
          <mxGeometry relative="1" as="geometry">
            <mxPoint x="905" y="200" as="sourcePoint" />
            <mxPoint x="780" y="330" as="targetPoint" />
          </mxGeometry>
        </mxCell>
        <mxCell id="S5ZDTjxf2J-4e3x-WdZ--308" value="" style="edgeStyle=orthogonalEdgeStyle;rounded=1;orthogonalLoop=1;jettySize=auto;html=1;flowAnimation=1;strokeWidth=3;shadow=0;jumpStyle=none;curved=1;flowAnimationDuration=1000;strokeColor=#d6b656;align=center;verticalAlign=middle;fontFamily=Helvetica;fontSize=11;fontColor=default;labelBackgroundColor=default;startArrow=oval;startFill=1;endArrow=none;startSize=6;dashed=1;fillColor=#fff2cc;endFill=0;exitX=0.5;exitY=1;exitDx=0;exitDy=0;entryX=0.5;entryY=0;entryDx=0;entryDy=0;" parent="S5ZDTjxf2J-4e3x-WdZ--145" source="S5ZDTjxf2J-4e3x-WdZ--299" target="S5ZDTjxf2J-4e3x-WdZ--52" edge="1">
          <mxGeometry relative="1" as="geometry">
            <mxPoint x="905" y="200" as="sourcePoint" />
            <mxPoint x="1500" y="330" as="targetPoint" />
          </mxGeometry>
        </mxCell>
        <mxCell id="S5ZDTjxf2J-4e3x-WdZ--309" value="" style="edgeStyle=orthogonalEdgeStyle;rounded=1;orthogonalLoop=1;jettySize=auto;html=1;flowAnimation=1;strokeWidth=3;shadow=0;jumpStyle=none;curved=1;flowAnimationDuration=1000;strokeColor=#d6b656;align=center;verticalAlign=middle;fontFamily=Helvetica;fontSize=11;fontColor=default;labelBackgroundColor=default;startArrow=oval;startFill=1;endArrow=none;startSize=6;dashed=1;fillColor=#fff2cc;endFill=0;exitX=0.5;exitY=1;exitDx=0;exitDy=0;entryX=0.5;entryY=0;entryDx=0;entryDy=0;" parent="S5ZDTjxf2J-4e3x-WdZ--145" source="S5ZDTjxf2J-4e3x-WdZ--299" target="S5ZDTjxf2J-4e3x-WdZ--15" edge="1">
          <mxGeometry relative="1" as="geometry">
            <mxPoint x="905" y="200" as="sourcePoint" />
            <mxPoint x="1620" y="330" as="targetPoint" />
          </mxGeometry>
        </mxCell>
        <mxCell id="S5ZDTjxf2J-4e3x-WdZ--312" value="" style="edgeStyle=orthogonalEdgeStyle;rounded=1;orthogonalLoop=1;jettySize=auto;html=1;flowAnimation=1;strokeWidth=3;shadow=0;jumpStyle=none;curved=1;flowAnimationDuration=1000;strokeColor=#d6b656;align=center;verticalAlign=middle;fontFamily=Helvetica;fontSize=11;fontColor=default;labelBackgroundColor=default;startArrow=oval;startFill=1;endArrow=none;startSize=6;dashed=1;fillColor=#fff2cc;endFill=0;exitX=0.5;exitY=1;exitDx=0;exitDy=0;" parent="S5ZDTjxf2J-4e3x-WdZ--145" source="S5ZDTjxf2J-4e3x-WdZ--310" target="S5ZDTjxf2J-4e3x-WdZ--14" edge="1">
          <mxGeometry relative="1" as="geometry">
            <mxPoint x="1520" y="-60" as="sourcePoint" />
            <mxPoint x="695" y="70" as="targetPoint" />
          </mxGeometry>
        </mxCell>
        <mxCell id="S5ZDTjxf2J-4e3x-WdZ--315" value="" style="edgeStyle=orthogonalEdgeStyle;rounded=1;orthogonalLoop=1;jettySize=auto;html=1;flowAnimation=1;strokeWidth=3;shadow=0;jumpStyle=none;curved=1;flowAnimationDuration=1000;strokeColor=#d6b656;align=center;verticalAlign=middle;fontFamily=Helvetica;fontSize=11;fontColor=default;labelBackgroundColor=default;startArrow=oval;startFill=1;endArrow=none;startSize=6;dashed=1;fillColor=#fff2cc;endFill=0;exitX=0.5;exitY=1;exitDx=0;exitDy=0;" parent="S5ZDTjxf2J-4e3x-WdZ--145" source="S5ZDTjxf2J-4e3x-WdZ--313" target="S5ZDTjxf2J-4e3x-WdZ--14" edge="1">
          <mxGeometry relative="1" as="geometry">
            <mxPoint x="1520" y="-60" as="sourcePoint" />
            <mxPoint x="1185" y="80" as="targetPoint" />
          </mxGeometry>
        </mxCell>
        <mxCell id="S5ZDTjxf2J-4e3x-WdZ--153" value="" style="edgeStyle=orthogonalEdgeStyle;rounded=1;orthogonalLoop=1;jettySize=auto;html=1;flowAnimation=1;strokeWidth=3;shadow=0;jumpStyle=none;curved=1;flowAnimationDuration=1000;strokeColor=#d6b656;align=center;verticalAlign=middle;fontFamily=Helvetica;fontSize=11;fontColor=default;labelBackgroundColor=default;startArrow=oval;startFill=1;endArrow=none;startSize=6;dashed=1;fillColor=#fff2cc;endFill=0;exitX=0.5;exitY=1;exitDx=0;exitDy=0;" parent="S5ZDTjxf2J-4e3x-WdZ--145" source="S5ZDTjxf2J-4e3x-WdZ--79" target="S5ZDTjxf2J-4e3x-WdZ--299" edge="1">
          <mxGeometry relative="1" as="geometry">
            <mxPoint x="1130" y="-60" as="sourcePoint" />
            <mxPoint x="1480" y="-20" as="targetPoint" />
          </mxGeometry>
        </mxCell>
        <mxCell id="S5ZDTjxf2J-4e3x-WdZ--299" value="&lt;span style=&quot;font-size: 15px;&quot;&gt;&lt;b&gt;Visualiser les données statistiques fournies par le propriétaire des données&lt;/b&gt;&lt;/span&gt;" style="rounded=1;whiteSpace=wrap;html=1;fillColor=#fff2cc;strokeColor=none;" parent="S5ZDTjxf2J-4e3x-WdZ--145" vertex="1">
          <mxGeometry x="1110" y="130" width="250" height="70" as="geometry" />
        </mxCell>
        <mxCell id="S5ZDTjxf2J-4e3x-WdZ--310" value="&lt;span style=&quot;font-size: 15px;&quot;&gt;&lt;b&gt;Informer et animer le territoire&lt;/b&gt;&lt;/span&gt;" style="rounded=1;whiteSpace=wrap;html=1;fillColor=#fff2cc;strokeColor=none;" parent="S5ZDTjxf2J-4e3x-WdZ--145" vertex="1">
          <mxGeometry x="800" y="100" width="250" height="40" as="geometry" />
        </mxCell>
        <mxCell id="S5ZDTjxf2J-4e3x-WdZ--311" value="" style="edgeStyle=orthogonalEdgeStyle;rounded=1;orthogonalLoop=1;jettySize=auto;html=1;flowAnimation=1;strokeWidth=3;shadow=0;jumpStyle=none;curved=1;flowAnimationDuration=1000;strokeColor=#d6b656;align=center;verticalAlign=middle;fontFamily=Helvetica;fontSize=11;fontColor=default;labelBackgroundColor=default;startArrow=oval;startFill=1;endArrow=none;startSize=6;dashed=1;fillColor=#fff2cc;endFill=0;exitX=0.5;exitY=1;exitDx=0;exitDy=0;entryX=0.5;entryY=0;entryDx=0;entryDy=0;" parent="S5ZDTjxf2J-4e3x-WdZ--145" source="S5ZDTjxf2J-4e3x-WdZ--79" target="S5ZDTjxf2J-4e3x-WdZ--310" edge="1">
          <mxGeometry relative="1" as="geometry">
            <mxPoint x="1520" y="-60" as="sourcePoint" />
            <mxPoint x="905" y="130" as="targetPoint" />
          </mxGeometry>
        </mxCell>
        <mxCell id="S5ZDTjxf2J-4e3x-WdZ--313" value="&lt;span style=&quot;font-size: 15px;&quot;&gt;&lt;b&gt;Organiser des collectes de données spécifiques&lt;/b&gt;&lt;/span&gt;" style="rounded=1;whiteSpace=wrap;html=1;fillColor=#fff2cc;strokeColor=none;" parent="S5ZDTjxf2J-4e3x-WdZ--145" vertex="1">
          <mxGeometry x="420" y="60" width="250" height="50" as="geometry" />
        </mxCell>
        <mxCell id="S5ZDTjxf2J-4e3x-WdZ--314" value="" style="edgeStyle=orthogonalEdgeStyle;rounded=1;orthogonalLoop=1;jettySize=auto;html=1;flowAnimation=1;strokeWidth=3;shadow=0;jumpStyle=none;curved=1;flowAnimationDuration=1000;strokeColor=#d6b656;align=center;verticalAlign=middle;fontFamily=Helvetica;fontSize=11;fontColor=default;labelBackgroundColor=default;startArrow=oval;startFill=1;endArrow=none;startSize=6;dashed=1;fillColor=#fff2cc;endFill=0;exitX=0.5;exitY=1;exitDx=0;exitDy=0;entryX=0.5;entryY=0;entryDx=0;entryDy=0;" parent="S5ZDTjxf2J-4e3x-WdZ--145" source="S5ZDTjxf2J-4e3x-WdZ--79" target="S5ZDTjxf2J-4e3x-WdZ--313" edge="1">
          <mxGeometry relative="1" as="geometry">
            <mxPoint x="1520" y="-60" as="sourcePoint" />
            <mxPoint x="905" y="130" as="targetPoint" />
          </mxGeometry>
        </mxCell>
        <mxCell id="S5ZDTjxf2J-4e3x-WdZ--53" value="Users" style="" parent="0" />
        <UserObject label="" link="data:action/json,{&quot;actions&quot;:[{&quot;show&quot;:{&quot;cells&quot;:[&quot;S5ZDTjxf2J-4e3x-WdZ--143&quot;]}},{&quot;hide&quot;:{&quot;cells&quot;:[&quot;S5ZDTjxf2J-4e3x-WdZ--41&quot;,&quot;S5ZDTjxf2J-4e3x-WdZ--145&quot;,&quot;S5ZDTjxf2J-4e3x-WdZ--146&quot;,&quot;S5ZDTjxf2J-4e3x-WdZ--144&quot;,&quot;S5ZDTjxf2J-4e3x-WdZ--30&quot;]}}]}" id="S5ZDTjxf2J-4e3x-WdZ--54">
          <mxCell style="group;rounded=1;" parent="S5ZDTjxf2J-4e3x-WdZ--53" vertex="1" connectable="0">
            <mxGeometry x="630" y="-210" width="160" height="140" as="geometry" />
          </mxCell>
        </UserObject>
        <mxCell id="S5ZDTjxf2J-4e3x-WdZ--55" value="" style="rounded=1;whiteSpace=wrap;html=1;fillColor=#dae8fc;strokeColor=#6c8ebf;strokeWidth=2;" parent="S5ZDTjxf2J-4e3x-WdZ--54" vertex="1">
          <mxGeometry x="50" width="60" height="60" as="geometry" />
        </mxCell>
        <mxCell id="S5ZDTjxf2J-4e3x-WdZ--56" value="" style="shape=image;verticalLabelPosition=bottom;labelBackgroundColor=default;verticalAlign=top;aspect=fixed;imageAspect=0;image=data:image/png,iVBORw0KGgoAAAANSUhEUgAAAEAAAABACAYAAACqaXHeAAAACXBIWXMAAA7DAAAOwwHHb6hkAAAAGXRFWHRTb2Z0d2FyZQB3d3cuaW5rc2NhcGUub3Jnm+48GgAAB11JREFUeJztm2msXVMUx/+7VdUSVI0vhupARGNIUVRVouamLW31AzF1+KIliEQaNQdFJOahaTWGkBCpKTRpKFpF8DqQIubWa5+2iqqnfX3v58Nex9meO5zp3uuDf/Kyzzl77fVfe9191h7Oek41BLCjpFMkjZV0hKQmSftJ2qlMkz8lrZXUImm5pJckLXLObaulnYUD2AW4AdhEfmwCZgI718JWV7RCYIKk+yXta482SXpN0kJJqyWtk/+lS2En+RGyv6SRks6R1Mfq1kqa5px7sWibCwHggFuBTvvlVgOXATvk0NkDmASsMZ2dwE1A4T9cbgCzg2H7CNCrQN29gMcC/Y8WpbsQAFcFv9C0GvJMD0bYFbXiSQXgBGC7GTWzDnw3GFc7cFyt+ZIYtNgMml+Pd9NizUvG+Xat+aoZM9oM2Qr0ryPvAOMEGFUv3lKGzDcjHmoA98PG3ZhpEegNbDEjTmgA/zDj3gL0rje/gLPMgLVAtwbwdwPWmQ1nZdWTx/B+Vq5wznXm0JMJxrncbgdn1ZPHAU1W/phDR160WLlvRakKyOOAPa3cmENHSQBNwHPAeuCICqLrrcy8UcrjgKhtRw4d/wDQHZguaZWkifJOPrVCk4g78/oj80alSNgCapSkGyUNsccdkrpLOr6W3HWP3iGAHYAL5IPZy/Kd3yxphqTRJjYWOLBWNtR9BNiUeaKkCZLGKw6m2yU9IWmmc67VRkWzpKMlPQ+Mds61Fm1PIQ4AukuaKqnZOfd+l7oe8tPUMZKOlT/kaApENkiaLekR59zq6KFzDuASSYslHSfpK2C+/KzznaTHi7A9M4B5tgi5BRhu158F9XsBbwNt/BtbgTeAS4By54ORniHAqhI6hgE32/W8rP3IMwL6WrlBUk+7DjvTX9LJdt0p6XNJ70haJOkN59yvSUiccx8Dg+WPyIZKukbSrsb1s4ntka0L+RwwyMqWUpXOuQ+AEZJ+l7TKOdeWlcg51yFpgaQFwMXyDgi5B2bVnQlAX+KTmf2BkXb9dR24vzauU4ED7boD6FO99b+RdRocJ7/4+MY5tyajjtxwzv0gHxC7STo3i47UDrDpaardPpmFtCBEq7+nrJxaTrASsoyACfILlm2S5mYhLRhz5G0ZCoxL2ziVA/Cfuu6w2wfCebtRcM59L+lBu70L6FlJPheAKyzobAB2D55HpzOFr9RK2PCTcQ0Nnu2O3zkCXFsr4p0D8qu71B0WROMeNTHA8+wYzD4HdKm73J5vrLa4yko+wQhaug4zc0671Q8qp6MAGw4t52hzTqvVT0yqM00MiKaZF51zW8MK59wWSSvs9uwUOtMi0v2hc669iw3bJD1jt+cXzmxDC+C0MvW3WX3NPlYA7xrHdWXqT49GadHEfYixZxmZQcH7ObxQA7z+EcHwL/maWTCM0FRKJiv50aZ0cxW5F0xuKQUeleOPwD803fOqyP5mckcWxR96v+K8b6PgT5O9vUD+WaazjS7Rv4TsapMdURS/gKNMadUtLPF01AlMKoB7SjCspySQj9JyhlSTTWNEv6BTVVdawJxA/vYsr4MN+zuDzt+foE0v4jhU3Dki/rg68mzVAGfGzwmMfw84KQXfycD7QfsHSJBqA5xk8r9kcXo15a+a8utTtJkWxASAt/DL6QFhh/CnwwOAK4FFgXxbkmEf6Jlp7V5P278kyqM0mC/TeBcYSJzQEKIDv6psseuudU+mGcb4xImvrP3l2XpZmaAPsNkIxqZse7i1aweWE6fUhOjET3UzgEMz2DfG9PxBsFErFMB9RrKKFN/kgQut3Uq73wUYjH/Xh+GDbOZtLH4f8KVxVA2WmQHsQ7wjfLB6i79z/T6xNrMSyPcFfgQW4s8fknCMMv0bgMwnxIkAnBsM2auqyPYCnjX5X6myiLE2exOv5p5NMtKM517gjDR9yQwjizDDnnXHL5lH4bM77ybO8NwOJN6hAecRz+drTNdk4Bz8oqyxH3XxEfeewAlLiXeLpbAs7dDEp+C0ltG3ET9LHJW3L5m/q+MjbbPiVBlJapP0vaRW+cTonyRNl9RD0reSxjvnPknB0Vt+bz9c0sHyidQHSYrScDslPS2fRF1xo1YogIOJ51yAl4EzKRHJ8VE+ehXagMkV9E4CPqLCTg7oaVyvBPwrgX4Fda8y8EHqOyNeD4xM2ObNwOC5BMnU+CA2N6hPtJABTiM+DP2CjF+HUgFYYIQtpMgOxQfJO4mDWzPQ3/6a7VkncAf+c3tSvf3NFoBXsvUqOdk4I2onOJZOqWMMfrMCfoMVbbJ+AcZk1Hk88aFs7aZC4lOZXPn6+P3BsmDILwNyfeEl/n+CxXn0VCIYGBicOzEan2o7y/5yp7rid5PgN1LFnQcGBJcawfLq0o0BsMJsvChpmzSHBodY+Wk6s+qKlVYm3kanccBuVq5L0abeiGxLnDqbxgHR1NReUaqxiP7BMvH3yYYmSv4X8L8DGm1Ao/G/AxptQKORxgFL5P85YkmNbCkCS+XPIt5J2uAvCtjUMQ/XEbsAAAAASUVORK5CYII=;rounded=1;" parent="S5ZDTjxf2J-4e3x-WdZ--54" vertex="1">
          <mxGeometry x="60" y="10" width="40" height="40" as="geometry" />
        </mxCell>
        <mxCell id="S5ZDTjxf2J-4e3x-WdZ--57" value="" style="rounded=1;whiteSpace=wrap;html=1;fillColor=#dae8fc;strokeColor=#6c8ebf;strokeWidth=2;container=0;glass=0;" parent="S5ZDTjxf2J-4e3x-WdZ--54" vertex="1">
          <mxGeometry y="70" width="160" height="70" as="geometry">
            <mxRectangle x="463" y="180" width="50" height="40" as="alternateBounds" />
          </mxGeometry>
        </mxCell>
        <mxCell id="S5ZDTjxf2J-4e3x-WdZ--58" value="Citoyen·ne" style="text;html=1;align=center;verticalAlign=middle;whiteSpace=wrap;rounded=1;fontStyle=1;fontSize=18;" parent="S5ZDTjxf2J-4e3x-WdZ--57" vertex="1">
          <mxGeometry x="26.987951807228917" y="15" width="106.02409638554217" height="40" as="geometry" />
        </mxCell>
        <UserObject label="" link="data:action/json,{&quot;actions&quot;:[{&quot;hide&quot;:{&quot;cells&quot;:[&quot;S5ZDTjxf2J-4e3x-WdZ--41&quot;,&quot;S5ZDTjxf2J-4e3x-WdZ--143&quot;,&quot;S5ZDTjxf2J-4e3x-WdZ--145&quot;,&quot;S5ZDTjxf2J-4e3x-WdZ--146&quot;,&quot;S5ZDTjxf2J-4e3x-WdZ--144&quot;]}},{&quot;show&quot;:{&quot;cells&quot;:[&quot;S5ZDTjxf2J-4e3x-WdZ--30&quot;]}}]}" id="S5ZDTjxf2J-4e3x-WdZ--59">
          <mxCell style="group;rounded=1;" parent="S5ZDTjxf2J-4e3x-WdZ--53" vertex="1" connectable="0">
            <mxGeometry x="430" y="-210" width="160" height="140" as="geometry" />
          </mxCell>
        </UserObject>
        <mxCell id="S5ZDTjxf2J-4e3x-WdZ--60" value="" style="rounded=1;whiteSpace=wrap;html=1;fillColor=#fad7ac;strokeColor=#b46504;strokeWidth=2;" parent="S5ZDTjxf2J-4e3x-WdZ--59" vertex="1">
          <mxGeometry x="50" width="60" height="60" as="geometry" />
        </mxCell>
        <mxCell id="S5ZDTjxf2J-4e3x-WdZ--61" value="" style="shape=image;verticalLabelPosition=bottom;labelBackgroundColor=default;verticalAlign=top;aspect=fixed;imageAspect=0;image=data:image/png,iVBORw0KGgoAAAANSUhEUgAAAEAAAABACAYAAACqaXHeAAAACXBIWXMAAA7DAAAOwwHHb6hkAAAAGXRFWHRTb2Z0d2FyZQB3d3cuaW5rc2NhcGUub3Jnm+48GgAACZhJREFUeJzlm3nsXFUVxz+nLW0ppZSytBQoqUgrqxaVnUoRZFEBJTYRGgKYEBFFoqCsIZrIliAgAYNFoyKgqIUoyiKgLG1FsSBLQKBslbYsLRRKC90+/nHv8Hu/15n5zczvTUH9JpP33l3OPXc795xzz0BFUPdTb1VfsTO8od6tTquKp1YQVRBRzwa+m+m9CbzSAZmNgE3y+/XAtIhYUwV/XYV6hLpGXZTfB/SD1h7qv/KKOKdKPrsCNdQn8wAcWBHN7fJ2WKZu0neN9xDqp/Js3VEx3e9nuqdVSbdyqD/MjFYquNSdM91ZVdKtHOpcdbW6eRdoP6+u6vY2GNRpRXVH4APAE8AuarPiK4AHImJZrrsp8JE+mngMGAccAvyiUz67BvX6Ns/5Kwt1Z7VR79Fu9qPjFQBsmZ83AS+3UP66wvvlwCN9lB8MHAOMUSMimi6xdQp1mLrcdPYP7GI79+RV0Nd26RidKi1TgKHAbRGxukJ+yrg1Pw/pVgOdDkCNoVubluo/bsnPg7vVQFMZoH4C2A9Yv5R1dH7upu7QBb6KWArso14CvFNIXw3MAW7sis2gHtmmlH+v0C+bodkKqCkgfwGuLOVtTZqZ1/rTeItYP7f3ZCn9YOB4YIOutKpuYTJKVqkn2w8rr2qoh2XeVqt7drOhw9V38lKbqX5W7Y/u0B9eQt1XnVFY/t03ltRd1PsLja7ITBynTlIrcao0aHs79Sj1KpPeUcNcKzK/W2LepOxMA64ChpSy3wIeB54G5gPzSB6hZSTv0BvA8lzudWAEMIy0tzfO78OAzYCxwFYkG2P7nN+LFZLn6cKIWN56NyuAenYe/ekmz8+C/L2kY/ndHEvVlfl3tPqtnP7LAk+jTPJpRB1+11NPUsc16M80ddeWl696H7A3MCEinlJnA3sAW5AUqvEk+2AsaTZrM1uc5RGklVBcHcvy7xVgIfAC8G/gufw9PCI2UAfnMkbEyMzT14FLgRMiYnqJ3wOAPwGXRcQppbwxwALgznYE2mb5+UI5IyLmk5Z/pbBgYkfECnUhMEEdHBErSAYThWcRtbT1muW1c7Q9k58fbsJwmATjgerIVoiqQ9XJ6l55lhuVGwlsA7yYO18J2hmAGfl5vrrWqKpDgdtI6untwNy8DBtCnQg8CtwNzATmqFs3KP49kgCe0SC/I7QzAD8DHgT2JxlBZftgFLAvaQCuIe33ffuguROwLfA70n7dAdiuVCbUnwJfIcmEC9rguVqoY9U5JWk9qZC/iVljVDe1BR1B3azB+wCTplfDC+qupbqn5byT6tA9NOddUSdvXM67uy31Ngu73YFvkM50SLNYy19Us8wi4tVWvDgR8Uq9d9J+H0DyJ54H7BwRc9rhtxW0rd9HxMqIuAQ4OSftVS1L7+LT+XlpRJwVEUu60Uh/DJw/AiuBqfUUkf4gb53j8+dNVdIuo+MBiIhFJGE3Cvhao3LqkHwsDiykTVbLam4RhwGTgPsjYnanPLaC/pq455G8NGeqZeldw/GkY3G2eo56M+nYO79e4byafpA/z+2j/bfzs2yf9IWaAriqzXprQz0zS9S/qeWjseZXuK10cjyhrqVQZUWqdt9wbQttfyKXvbFOXrNT4NicN72c1zbUQfa4r2dYx1+QO7an+iX1ALXujKkXZDrP2MKVmLq++myuc6oFp02jAVCnmII4Vqm7d9LneoyMyrOqenu7QlEdqF6e6y9SP9RG3f3Utwp15+Zf0Vqtpb1cWIXfab+nzRnZSn04E39T/XiL9cabLkJVF1pSdlqkMUG92RRT0AxL1XvVw9vvYWuMbGTyGGmy43+sTmhQdrR6fh6sGvaukJeGMqCISv17EbFEXUq6NVpOOgGOU/8B3AO8BIwk+RH2IZmqbwPPkzS/eVXys86hbplndIm6ofpN9akGy3GhSeiNsUeITqmQl+6vAHUD4BTSPf5koCa8BFZExMXAxXkb7AJsTrIhHgceqtkK9hhBd6kLgD+TLL/LImItB8x7CpOV92X1zsJ+r+ERU9CU6idbpDfGZPW9ZHK9ryzQW2PSL85UP9gmny2tgFaJhXqQ+mCpw4vzc6Y6Npc9Jqfd0hfdXP6iXP6i/D1C/UlOKx5bmkziY22gR5To9n8ATDb5MXlmi7jZ5MKanL9/Xqiznj2xfk0vLtTPmBSSN9TRhfRTc/2vqjuql5Taf9HkCxhWh+ZgdWN1ai57df5u7wrN5Nv7a6HRmerv8/sRucy+5QHI6bvao5xMN3lhi/nD1XNNy32NOrWU/+4A5O/x+XuO+lt7HCXP1XjJ5Y6z97FaxKoyn406Pki9MFdQnW2+fyvMRNMByHn7mPZ1rfFZ6q/Vu+xRWJapR9Wp22gA7srfE9UbCp271qQWP5YH9AH1n6aV9VT+fi2XbSxLMpFbcsHF6gn21q9bHoCcP8p01M0rzcZi09LcpkG9pgNQKHeAyW5Q/btpa9S18NQbc7le4TaDCgUGAr8hXTs/DBweEc81HK0WEBGLgdPVM0hXXrVj8PmI6LcpGhF3qLsBN5DCdtp2lxf1gLOBQ0lu6v2zw6MS5PN+Hl3Q9CLiVfUgkqd6f5IO0jJqHtxtgDNI11Wfq7Lz6wIRsRL4AsnB0dZtdW1/n0zyqlwcEU9Xy966Qd5uC0mxQy2jNgBHAmtI19//zWg7mDJMzsnFwKMRsXNDyroF6fZmR2AuSZgNByYCi0i3uY1wX+2G1qSQXEdPpGk9jCYJzXmkKNQhpPuHl4ApEfF4Ax4XkATtiXWyTyTFJ0+KiIeKlSbl46Gp+zmfpZ1iVoHOWHuUpE4w3wYXr65tm9RDr6DLQSS3NqRZbNT5ccBHgYeAA2lvn62OiDdqHxEx3xQtPrQNGjVcAXyRFKfwhzr5rwObAhfVyfs86d5xYTFxEMlBAdDs5mXD/HwxIl5tg+G6yOEtbYe4qM/m140aFHkbWBMRp9epO5E0AL3kxIACsa5cPb3fMYgOB0DdFqg5MBdHxJ1VMaV+jBRyAzC3jUvRISTB/u06ebWLm156QnEAXqc9XEu6KQZA3aGRdG4HJtvjXnpkxDJ1eIv/F9iYtKqbxRD0skxblQH1cBZJIEIKXiqHsnaEiFijnkA6bgEeaePPEovo+xhcUEzseAvkJV/Zsi/RvqbDqitJUWQ/Kmfk42+tP14MoGcFtLsF/icwgKTNQTKE/u8Q6q+AqaTgxEb29GCSarqMkiKxjjGKtGJfJoXrl7EVideXSAGZRYwmhdaPL/o5Qt2epJvvRMU3Re8zrACujoheAVX/AVqEAuBD2lymAAAAAElFTkSuQmCC;rounded=1;" parent="S5ZDTjxf2J-4e3x-WdZ--59" vertex="1">
          <mxGeometry x="60" y="10" width="40" height="40" as="geometry" />
        </mxCell>
        <mxCell id="S5ZDTjxf2J-4e3x-WdZ--62" value="" style="rounded=1;whiteSpace=wrap;html=1;fillColor=#fad7ac;strokeColor=#b46504;strokeWidth=2;container=0;" parent="S5ZDTjxf2J-4e3x-WdZ--59" vertex="1">
          <mxGeometry y="70" width="160" height="70" as="geometry">
            <mxRectangle x="463" y="180" width="50" height="40" as="alternateBounds" />
          </mxGeometry>
        </mxCell>
        <mxCell id="S5ZDTjxf2J-4e3x-WdZ--63" value="&lt;b style=&quot;font-size: 12px;&quot;&gt;&lt;font style=&quot;font-size: 17px;&quot;&gt;Pruducteur·rice&lt;/font&gt;&lt;/b&gt;" style="text;html=1;align=center;verticalAlign=middle;whiteSpace=wrap;rounded=1;fontStyle=1;fontSize=18;fontColor=default;" parent="S5ZDTjxf2J-4e3x-WdZ--62" vertex="1">
          <mxGeometry x="10" y="15" width="140" height="40" as="geometry" />
        </mxCell>
        <UserObject label="" link="data:action/json,{&quot;actions&quot;:[{&quot;show&quot;:{&quot;cells&quot;:[&quot;S5ZDTjxf2J-4e3x-WdZ--41&quot;]}},{&quot;hide&quot;:{&quot;cells&quot;:[&quot;S5ZDTjxf2J-4e3x-WdZ--143&quot;,&quot;S5ZDTjxf2J-4e3x-WdZ--145&quot;,&quot;S5ZDTjxf2J-4e3x-WdZ--146&quot;,&quot;S5ZDTjxf2J-4e3x-WdZ--144&quot;,&quot;S5ZDTjxf2J-4e3x-WdZ--30&quot;]}}]}" id="S5ZDTjxf2J-4e3x-WdZ--64">
          <mxCell style="group;rounded=1;" parent="S5ZDTjxf2J-4e3x-WdZ--53" vertex="1" connectable="0">
            <mxGeometry x="830" y="-210" width="160" height="140" as="geometry" />
          </mxCell>
        </UserObject>
        <mxCell id="S5ZDTjxf2J-4e3x-WdZ--65" value="&lt;b&gt;&lt;font style=&quot;font-size: 17px;&quot;&gt;Association&lt;/font&gt;&lt;/b&gt;" style="rounded=1;whiteSpace=wrap;html=1;fillColor=#f8cecc;strokeColor=#b85450;strokeWidth=2;" parent="S5ZDTjxf2J-4e3x-WdZ--64" vertex="1">
          <mxGeometry y="70" width="160" height="70" as="geometry" />
        </mxCell>
        <mxCell id="S5ZDTjxf2J-4e3x-WdZ--66" value="" style="rounded=1;whiteSpace=wrap;html=1;fillColor=#f8cecc;strokeColor=#b85450;strokeWidth=2;" parent="S5ZDTjxf2J-4e3x-WdZ--64" vertex="1">
          <mxGeometry x="48.117647058823536" y="0.00352941176471" width="60" height="60" as="geometry" />
        </mxCell>
        <mxCell id="S5ZDTjxf2J-4e3x-WdZ--67" value="" style="shape=image;verticalLabelPosition=bottom;labelBackgroundColor=default;verticalAlign=top;aspect=fixed;imageAspect=0;image=data:image/png,iVBORw0KGgoAAAANSUhEUgAAAEAAAABACAYAAACqaXHeAAAACXBIWXMAAA7DAAAOwwHHb6hkAAAAGXRFWHRTb2Z0d2FyZQB3d3cuaW5rc2NhcGUub3Jnm+48GgAABxNJREFUeJztm3+MHVUVxz+3Lm2hrVgQmi2B1iYCVUMxRfkRY0kpSlBTsBiqAmIVYwihGDCxMYSKGhKDtEqNikgMAS0UgxaJBZQqFLARsCiIP4ClthUQtEtlob92P/5x57G3w9t9M++9edvG/SaT7M7c83PO3HvOPffBKEbxf43QCSHqbOBjwEnAodntzcC9wA9CCC82oJ8ILAI+AMwAxgAvAH8AbgMeCCFYjfYtQJ2mrnF4vKperY6tQx/Uy9T/NOCxTj12JGwcEupJOcV3qevVm9Ufq3+qY8RbE/rx6k9zY55SV6k3qferO5Nnr6nzR9Lm16EerW7LFBtQv6tOrTPuBPWBxIj71XHZm785uf8X9TQ15OgPUq9SdyROPrljhtaDOkZ9NFOoXz23wfix2Rut4Rr1wuT/teqbG/A4Ve3Lxm9WD2yvVSWgnpso/7WCNGOTSNidRM8z6kEFeSxK5H65NStaQBbGqlvU/UvQzXTPb1r1gyVlP5zRPaeOKa99G5C8va83QXtDYvx9TdB/NqEfmVVBna9+o5nvUH1vYsA5TdDPSOg/V5Z+r4B6sXql2tUEbZdx4lW9vAhNaSFVI4Tw7RbIBfqJmWIh29o6URjX7xuziXBKO3kXxFRgv+zvf3RcujExGchC8IwRkL8gmQNO6bT8mhKL1K9YJ7fvgOw7MuP/rY7rtPwRhXqcMYlSXTHS+qAepn6yTDLUgqwuB9Pv7eqRVcssotS6TKG7q/4cjPVDDVdUKaswclndTeYquTbKSbO/DXvNt6/un0SB6jcrkHGWg/XDc+oR7ZbRErJl8c+JE1bYpiJFPdtY/2sshU9oB9+2Qz3CWNbW8JNW5wT108mM/4o6t136VgJ1qntuga1RJzXJa4mDydYr6px261sJ1Mnuuf21QT28BP2b1GsT+pfUE6vUue1QD1BXJ0b8U31PAboJ6s8Tuo3qzE7o3HZkb3JZYkyfumCY8d0O7vSo/lE9rJM6VwL1AgeXsAF1aZ0x71KfTYy/25Hc8Gw3jLu5WxMDbzBbIdR5am/y7Hp1v0Y8m1GiS51u3E6qd023id2ZEvLfqfYkhq5VL3Fwje9Xv1iVfNTf2Bh96o/UyRXpMEV9qI7cV9WzqpCZCi+DtVa03Wxsha1MZL1gB7K7oNa6qr8A7hhi3OlAre92J7ClAd8dwEbgMeDeEMJAEWWMBdNlwGxgSQihpwhdS0g8vnSYMRNKRkqKZ9RL1fGVG9ME6k5uxklvUghhK0AIoW8wUNiaXcNhEnBI9vfbgKuBi9QvAbfuVb38ehGg3mechU8dblwDvgcaa/XHcxHxYCe+7aIYakKbToyOwrl6HiGEl0MI1wPHAJ8Cns8enQg8ZNzAnNEs/3ZhqPV9DjATWNOqgGwCvFH9GbAEuAQYD3wYmKeuBnobsNkG/CqEcFer+rwBRUO77CcwDJ9pxj2BAcvjdvWQxlLqyu2yzgZtx1tjIYSNwMfV5cAXgFlAow2SqcSoOQM4QD2tyESqTgPOBs4EjgXGqRuB7wArQgjbOx4BzUCdZDxXVMPCYcZ2GxusDzaIstXqmL2uOVoPIYT/qp8BTiEes/sIsLL2XD0YWAAsJM5f+cn9SWKS9xIxImZnPC7eJxwAEEJ4Te0hOmCysSyeTzR6HoNN0Rp6iE66JYTwWO2mei3wCPAO4Px9xgFqN3FJBTiKuKzms8stwK1Eo9fX4xNC2K7eSXTAkR11QDYLdzdBOge4BqjN4mn+8CLxtOhKYF3BuqNG39sxB6hvAZ4gzuitohe4HbgF+HUIYXdBHbqAC4GPZrfu6mQETGTwnHAzkOjAy4FfhhB2FCaMzr8AuAiodY96gSs75oAQwmb1eOC4kqT9wCZgfQjh5TKE6tuBxcRUfGLyqAdYGELo2SfygLJQ52brfL974nFjgfZ6A7WZCBiZA4gNkBn1CeIbn5U+ItY0y4F73pBBNhEBA+rfjIeZz7HBOd6qoR6qXqE+n3vbfer31KMbMWjoAPXwYVLKrcZzfRPabdxwUI9Rf2g8EZJis7F/eHARPume4CPZlUcXMJe4RyBwHTAFeD+QHmTeBFwaQljVpE0NYdyQPZ1YUudPgT0MLANWhRB2lWG62+JYltB1qR9Sf5cbc496VBvsTXWcYDxC/9ecrN3qber7WmF+lfGXGE8PcT1lbGefNwR9UM8zbmPXsFP9lk22wBPe3epSYyc4xTb1++12dEswtr9X5CJqk3GiLLVyqMcbewS7coY/rS5u1bGVQn23sRZP8aRxa3zIPUDjIYrPG39XlMdv1TPLOrIIqjq5FYDzga8C+Vb2FuDvxCIGYDKxOMk7Zycx118eQni0Cj0rh/Gk2GL1iTpvdSg8a/zum6kaS6MjP5wEUGcBJxNrgenEsljgX8QldAOwFvh90VbaKEYxipbxP/1oxD38sJ/WAAAAAElFTkSuQmCC;rounded=1;" parent="S5ZDTjxf2J-4e3x-WdZ--64" vertex="1">
          <mxGeometry x="59.294117647058826" y="10.000000000000004" width="37.64705882352941" height="37.64705882352941" as="geometry" />
        </mxCell>
        <UserObject label="" link="data:action/json,{&quot;actions&quot;:[{&quot;show&quot;:{&quot;cells&quot;:[&quot;S5ZDTjxf2J-4e3x-WdZ--146&quot;]}},{&quot;hide&quot;:{&quot;cells&quot;:[&quot;S5ZDTjxf2J-4e3x-WdZ--143&quot;,&quot;S5ZDTjxf2J-4e3x-WdZ--145&quot;,&quot;S5ZDTjxf2J-4e3x-WdZ--41&quot;,&quot;S5ZDTjxf2J-4e3x-WdZ--144&quot;,&quot;S5ZDTjxf2J-4e3x-WdZ--30&quot;]}}]}" id="S5ZDTjxf2J-4e3x-WdZ--68">
          <mxCell style="group" parent="S5ZDTjxf2J-4e3x-WdZ--53" vertex="1" connectable="0">
            <mxGeometry x="1030" y="-210" width="160" height="140" as="geometry" />
          </mxCell>
        </UserObject>
        <mxCell id="S5ZDTjxf2J-4e3x-WdZ--69" value="&lt;b&gt;&lt;font style=&quot;font-size: 17px;&quot;&gt;Entreprise&lt;/font&gt;&lt;/b&gt;" style="rounded=1;whiteSpace=wrap;html=1;fillColor=#e1d5e7;strokeColor=#9673a6;strokeWidth=2;" parent="S5ZDTjxf2J-4e3x-WdZ--68" vertex="1">
          <mxGeometry y="70" width="160" height="70" as="geometry" />
        </mxCell>
        <mxCell id="S5ZDTjxf2J-4e3x-WdZ--70" value="" style="group;rounded=1;" parent="S5ZDTjxf2J-4e3x-WdZ--68" vertex="1" connectable="0">
          <mxGeometry x="51.08433734939759" width="57.83132530120482" height="60" as="geometry" />
        </mxCell>
        <mxCell id="S5ZDTjxf2J-4e3x-WdZ--71" value="" style="rounded=1;whiteSpace=wrap;html=1;fillColor=#e1d5e7;strokeColor=#9673a6;strokeWidth=2;" parent="S5ZDTjxf2J-4e3x-WdZ--70" vertex="1">
          <mxGeometry width="57.83132530120482" height="60" as="geometry" />
        </mxCell>
        <mxCell id="S5ZDTjxf2J-4e3x-WdZ--72" value="" style="shape=image;verticalLabelPosition=bottom;labelBackgroundColor=default;verticalAlign=top;aspect=fixed;imageAspect=0;image=data:image/png,iVBORw0KGgoAAAANSUhEUgAAAEAAAABACAYAAACqaXHeAAAACXBIWXMAAA7DAAAOwwHHb6hkAAAAGXRFWHRTb2Z0d2FyZQB3d3cuaW5rc2NhcGUub3Jnm+48GgAACPVJREFUeJzlm2usXFUVx3+blkJf9AEVpbRSiqJCkKCgPKzl6YsqVFolaj8YURASIQQMiaLRoKIIgkQDUYJQ3qm08iyFfpACAqVSH0jkVQFRWuyVFujz3p8f9j7MuXNn5pyZOVOj/SeTmXP2Wnuvtc4+e+211xrYzhG6YVbHAp8HJgOPhhAWVSLV/wLUcepfHYwru+xzf/Xb6o5VydkzqF9PSi9SP6euStf7ttnPVPVs9eGcIZeqw3sleyVQf5WEnZGuf5yuZ5fgnaKepT6kDuQU35r7vUAd0Ws9dqiAdyB996fvYY2I1d3UL6vLgFXAxcAHgeeBy4APAY8n8q3AbGCBunMXMhaip9NM3Q34ODAH+GhuvL8Bi4BbgAdCCCb6jPUq4FDgeOAudVYI4bVeyNgLA4xV5zFU6eeBhdQp3QSvAkcDS4CZwJ3q8SGEdVULW4kB1InAfunySmqvwQvArZRTehBCCGvUmcDdxNfjPvUjIYS1VcjcNdSb0mL1gLo5t3itVi9Vj1Db2meov099/DB3b1waQ3VFeq3+O1AnqPPU29T+nNIvqpepJ3eg9Dj1C6nPzCNcX0czWl2S2p5Q31atZsVCzlTvqnvSa5Ibm6m25U3UXYx7h0XqxlyfW9L3TxrwjFQXp/Y/qaOr07C1sF/NPZl/qJerMzpQeqQ6S71GfS2n9Np0b5b6WP0rUNfHTuodieaSajRsLfRkdUMSeI7a0Me34M8rvT6ndF9O6RE5+uWtDJBoJqRZs6oL1UorMC8J9KM2eHZuR+k63kIDJLosBul6p1jkBt+avp8tEGhn4Fii7z8BGJua3iC6wGuBxSGEzZ2LOgjZ7rOraBaKDdB0AGPE9glgLjALGJOa1gHziYovDiFsKiNIeprjSspVGboZ6ALgnPR7PXA9Uem7Qwgby3SQjHg00YgnABNS0zZzc90Y4DZgV+AO4K4QwoYyTMYw9yii0icCE1PTRuDfwHjiDnKboGMDhBDuB+4vQ5tc5mHENeIzwO6paRNwO3HmLASWAu/rVKZO0LN3rU7pudQW1H7gXuLCuCiE8GqOp1fiNEWlBqhTeg61d7kfeID4pK8LIbxS5bjdoGsD1Cl9ErBHasorfX0IYU23Y/UCHRtAnQKcTVR6crq9FbgHuBm4tZ3QVX0/sGe63Db7fLqbAecCZ1B7pzOlS09v9SDi+jAXmJZr+p8wwPeBh4mbndLTWz2QmtLT0+0B4usyFZgCrC7oZgCQ2o6wY3TjBl8i7vgKoe5HzQW+K9f0BHGNuCaE8Ky6nGiAInwHmBxC2NKe1EPRSzeYKT0XeHeuKVP62hDCM530HUK4sXsJI6p2g3sTlZ4HvCfXlCk9P4TwdJVjdosq3OA04JNExQ/PNWVKXxdCeKpkd1kUeaZ6egHtBmJ+oaFYwNPAhSGEx5vQFMNa+uu0Bm1HqisdjBXqeer0Rv21GGcv9Rx1k9Vig7p/q7G7mQHHAQcAK4lP+uY2njTqVGprxMEMDr3nA+cXdPE60GwR3AE4DfgucHr63T4KZsAwdY9GfC3621P9mrrMwTnB54xH6U+m65YnQiXHekfq655WdN24wX7gpRKC7EbM880jpruyw9Q302MhhGWJdnkD/sOBk4GilPkW4NchhKUZayZqK6aeuEF1V+JpUTfpMdRRxMzQmFZ0OXxR3bOdLXhlBqhK6TpMISq/HDivgPZ8Ygptb2DbGMCYEzyeoUp3mhNsJs864LEC3r6SY5QasBDqqcBPc328SPIGwMNllVYnAJ8ieoMD0u0sKlxNfLePotxTHaDEupRHNzNgC/AUMfy9BXiwDaXHUVP6WCA739+aZHoZIITQp34JOAUYWdDtZuDqFKNUg1ZusIO+RllLmLyec4GlU2NtjrdP6mtJK7peV4iMBI4hrhGzqcX5fcACasfoWxL9txr0MZ14ZF4k61bgjhDCk+3I2Mto8BLgVCCr8ekjrg83A/eVCWWNeYOHgEklh/2GOqWdcpqqKkRGAUcCK0MIL6bbM4ln/TcRlb63g9TY3kTlnwAuLaD9CnAQ8bxhyIaqGbrxAjsSo8C5RP8/GriRuGsDOASgikML4IUQQssiTPVYogHaQlWpsSwfeGHWWJHifcQt7VFqkRvM1pe2jty7McBviGmt22kjH9gOQgir1W8So7lRBeRrgatCCKvaGaObYGgZsKxT/jbGuYA423qChgYwJjveSVyEoII8fKdQdyJWlGbR4AbgdykaLYNd1GOI5wd/bllrqE4y1vy+XHey8ssulSg106yrEFGD+geH4u6Cfiaq1zbg26TeoL69EdMMY+VXRnifsfxN9YY2Fd7dWPo2PxmzX/2FBYVVDQwwPV2/oF6RPv8yHqY0XBOM1edPJb4txtrDK4x1javT/VfUg/NMh6hvpMafmYoR1TvLGEDd0Vgu9wP1VQef9mzKGfaINg2wb/0TtzYjxjbgH5br4yZjoJVvH6lelNr/ro5HHaE+k26eVcfQ0gDqoepCdZ2DsdFYTjdLHaN+L90/uVE/LQwwNffElqTP+mTUIVXkxkJN1d/a4rVTr05056Oeki4WNiBsagD1MGuFjeuNRY/nputH6mg7MkC6t6DOuAPq5U34b0k0xxWMMy3RrRxOzO4ClC6FS5hL9CJnAj8PIWxWJ5HbDFWBEMKnjaWxWTj8WgihWe4wO45/tKDP59TVwD7DgfcSY/sR6ofraCcO4R7atqLC8rcM441ZpkYYozY7I8yqzA5Wi6rTBoBRw6nV6yxtQbytqrbekr5PSZ9OsbgsYbZQDBArtOoxlrgBqfyPCk2QnQytISZc2sWM1EeZ47PxwA5vntyGEKbVU6h3Ah8j7qK2JR4MIZzQLpP6F2I4PLkoNlGfA/bq5k9T/xfY7g0wnBhz76p+ltpf3zJktX1T1Dl1bdl++gz1xPQ7c1VT1YtztNkO8APq1hbyZJub/er4yyJbRGerrc4jhhGrXPuCehGx2mt7xMXB+B+fk4jHSfVh72jgQGAFMQzNYxKDq0Ay7J5o6z1HP/AI8fy+GaYSZ8s/GToby2It8McSdCuJR3jbN/4D4IT6bffX+aQAAAAASUVORK5CYII=;rounded=1;" parent="S5ZDTjxf2J-4e3x-WdZ--70" vertex="1">
          <mxGeometry x="9.638554216867469" y="10" width="38.554216867469876" height="38.554216867469876" as="geometry" />
        </mxCell>
        <UserObject label="" link="data:action/json,{&quot;actions&quot;:[{&quot;show&quot;:{&quot;cells&quot;:[&quot;S5ZDTjxf2J-4e3x-WdZ--144&quot;]}},{&quot;hide&quot;:{&quot;cells&quot;:[&quot;S5ZDTjxf2J-4e3x-WdZ--143&quot;,&quot;S5ZDTjxf2J-4e3x-WdZ--145&quot;,&quot;S5ZDTjxf2J-4e3x-WdZ--41&quot;,&quot;S5ZDTjxf2J-4e3x-WdZ--146&quot;,&quot;S5ZDTjxf2J-4e3x-WdZ--30&quot;]}}]}" id="S5ZDTjxf2J-4e3x-WdZ--73">
          <mxCell style="group" parent="S5ZDTjxf2J-4e3x-WdZ--53" vertex="1" connectable="0">
            <mxGeometry x="1230" y="-210" width="160" height="140" as="geometry" />
          </mxCell>
        </UserObject>
        <mxCell id="S5ZDTjxf2J-4e3x-WdZ--74" value="&lt;b&gt;&lt;font style=&quot;font-size: 17px;&quot;&gt;Collectivité&lt;/font&gt;&lt;/b&gt;" style="rounded=1;whiteSpace=wrap;html=1;fillColor=#f5f5f5;strokeColor=#666666;strokeWidth=2;fontColor=#333333;" parent="S5ZDTjxf2J-4e3x-WdZ--73" vertex="1">
          <mxGeometry y="70" width="160" height="70" as="geometry" />
        </mxCell>
        <mxCell id="S5ZDTjxf2J-4e3x-WdZ--75" value="" style="group;rounded=1;" parent="S5ZDTjxf2J-4e3x-WdZ--73" vertex="1" connectable="0">
          <mxGeometry x="51.08433734939759" width="57.83132530120482" height="60" as="geometry" />
        </mxCell>
        <mxCell id="S5ZDTjxf2J-4e3x-WdZ--76" value="" style="rounded=1;whiteSpace=wrap;html=1;fillColor=#f5f5f5;strokeColor=#666666;strokeWidth=2;fontColor=#333333;" parent="S5ZDTjxf2J-4e3x-WdZ--75" vertex="1">
          <mxGeometry width="57.83132530120482" height="60" as="geometry" />
        </mxCell>
        <mxCell id="S5ZDTjxf2J-4e3x-WdZ--77" value="" style="shape=image;verticalLabelPosition=bottom;labelBackgroundColor=default;verticalAlign=top;aspect=fixed;imageAspect=0;image=data:image/png,iVBORw0KGgoAAAANSUhEUgAAAEAAAABACAYAAACqaXHeAAAACXBIWXMAAA7DAAAOwwHHb6hkAAAAGXRFWHRTb2Z0d2FyZQB3d3cuaW5rc2NhcGUub3Jnm+48GgAABT1JREFUeJztmt9vFUUUx88QIj9MoA2VCon80L5QQzRRePEFLS0JBIsSo775btDwgCZKlBjtHyBPPkB89gETAtL6I6hJ649IWvyB2PAiQURqLVWqJWg+PszZdrqd3Z27d7vdpveb3OzdOT/mzHfO2Zmde0UaqB5QlNHXkjI6qTIqQUDWjM9lRlSCgHoAbKjHfmlRgZQBHexDsc9dImLy+qw0AcATIvKw0/Rz0X3kZq5IOPXdI3ZWdyWojojIOedzQkTEGJN7HKUTAKyXmSm8TURaParjIvK9zBzwBWPM1MMwIq4eAkotAWBERFo8ot9lepDfiMg5Y8zlMmIqNQOcVO8TZ2aNMblqu4gMKBVFr+dF+Fvw+4B6Ma/LYNLsRSmdJS8CjQwIUZrrN7PQGZ+LOBoZEKIUn4G8NVjWO34tcTYyoB7jONNZ91l+8srrwaLPgJpquahnQFHreFLGxZHW36LPgHl9BszVTq+WfUMjA+oxjs9U1n2Wn7L2CS4aGVCPcVH7gNB+QuVJ9744Fn0GJAJYARwEvgbGgZtMY3lOnzNOcEhAll29/YYYtAOXkgIEvgO21BtIJQkANgHX1WYQ2AusAlbr90GV/QLcEzLAvANJmYC6kNXp56p3CrjDI18GnHb8jQFfAM8veAKATtW5CjSl6DUDv3p8XwDuzRpQ1gDzEpYFn7/4KvCsXo8aY24kOTLGjInIUb19T0S6RWRIRLaIyAD215+FB2BYSdoaoPuA6l7Ue7c0+oBZa27WDIfe14okf75BRUvdyrTAte1Obb7ptDUxXRqPLAQC4iUQzVpI3UU6Uz60bKLSeC7ARy6YGLLa0xAn4Kpe7wuwbdPrlVj7Kb1uCwlgvhEnoF+vTwfYRjoDsfZLet0YGkRmbZYFYKfGMoazDHpqqRm4oc2dMR+zng0pfmqq2SSiQtsziQYM8KnqnUb3/K4hsBw4o02feXxEq8NwaKAp8ZRLgCptBq6pbrQVjvA4MKTfrwGbPfavqvx4aKApsZRPgCreD/xEMoaBdo9ds0Peo6EBxTHvBKjyCuAFoD8W3xWg2aO/DPhAdT5J8FltAoAHgZPY9/8/gfeBNie23/R6HtiHfUNsArq1Dex7xKZaCMh7XygBwB7glmdC/na+twMXPToRfiTlnKCyBADrsEsfwDFgrX6OuaNT3ZXAi8CAI+oHDpBxUlRlAnpUdibWboDeWjtOQpUJ+FZlj3lkO32G2PovhIA4ah1APQREW+Fo73/eE/eQx/FSsecAIiI/eEe7QBD9LlDruf3bItIl9h+e3Xk7r8wfHLGnvAAdHlmnmzrAIb2dALbX2E8hJRPqN9RegMMq68U5ycE+BPuc8twP/Kef/aEDiQcAfAWMYvcbg8DrwNrQAajNhPr4sggCmpheBo8DrcDdwLvMxIReD+UY/F7SMRon1Q0YeCrDHmBPLgJUuBv4x+M03vZOwuDOYo/UxoGPgd2O/Engttr3YleWNdh3hw6mzxL/BY5gs27E6fMtbNahuh1quwZboh+q7DawLxcBqhBthSOcALY6933YFcC16SEZbwItzmCOpPT9WoqfCIdT7N9QnetASy4CspgDVsf0orS+BbwErMfOzEFgUmVTM5/Rp8GSPwm8AmwANmJfryeBkwFxf6R9TQB/OHF7CamZAI/eWRW97JEdiM3ejoB+24AuT3sX0OazientwI9R7FlG4QT8paJZP4QAS7Cv1K3AM8Cc/xSvfW7Hlt0qYBf2eQT2+VI4AeMqWlfwWAoF08+HWeOYt//mVAHGGNP4h8hix/9EedptIae7PgAAAABJRU5ErkJggg==;rounded=1;" parent="S5ZDTjxf2J-4e3x-WdZ--75" vertex="1">
          <mxGeometry x="9.638554216867469" y="10" width="38.554216867469876" height="38.554216867469876" as="geometry" />
        </mxCell>
        <UserObject label="" link="data:action/json,{&quot;actions&quot;:[{&quot;show&quot;:{&quot;cells&quot;:[&quot;S5ZDTjxf2J-4e3x-WdZ--145&quot;]}},{&quot;hide&quot;:{&quot;cells&quot;:[&quot;S5ZDTjxf2J-4e3x-WdZ--143&quot;,&quot;S5ZDTjxf2J-4e3x-WdZ--144&quot;,&quot;S5ZDTjxf2J-4e3x-WdZ--41&quot;,&quot;S5ZDTjxf2J-4e3x-WdZ--146&quot;,&quot;S5ZDTjxf2J-4e3x-WdZ--30&quot;]}}]}" id="S5ZDTjxf2J-4e3x-WdZ--78">
          <mxCell style="group" parent="S5ZDTjxf2J-4e3x-WdZ--53" vertex="1" connectable="0">
            <mxGeometry x="1430" y="-210" width="160" height="140" as="geometry" />
          </mxCell>
        </UserObject>
        <mxCell id="S5ZDTjxf2J-4e3x-WdZ--79" value="&lt;b&gt;&lt;font style=&quot;font-size: 17px;&quot;&gt;Chercheur·euse&lt;/font&gt;&lt;/b&gt;" style="rounded=1;whiteSpace=wrap;html=1;fillColor=#fff2cc;strokeColor=#d6b656;strokeWidth=2;" parent="S5ZDTjxf2J-4e3x-WdZ--78" vertex="1">
          <mxGeometry y="70" width="160" height="70" as="geometry" />
        </mxCell>
        <mxCell id="S5ZDTjxf2J-4e3x-WdZ--80" value="" style="group;rounded=1;" parent="S5ZDTjxf2J-4e3x-WdZ--78" vertex="1" connectable="0">
          <mxGeometry x="51.08433734939759" width="57.83132530120482" height="60" as="geometry" />
        </mxCell>
        <mxCell id="S5ZDTjxf2J-4e3x-WdZ--81" value="" style="rounded=1;whiteSpace=wrap;html=1;fillColor=#fff2cc;strokeColor=#d6b656;strokeWidth=2;" parent="S5ZDTjxf2J-4e3x-WdZ--80" vertex="1">
          <mxGeometry width="57.83132530120482" height="60" as="geometry" />
        </mxCell>
        <mxCell id="S5ZDTjxf2J-4e3x-WdZ--82" value="" style="shape=image;verticalLabelPosition=bottom;labelBackgroundColor=default;verticalAlign=top;aspect=fixed;imageAspect=0;image=data:image/png,iVBORw0KGgoAAAANSUhEUgAAAEAAAABACAYAAACqaXHeAAAACXBIWXMAAA7DAAAOwwHHb6hkAAAAGXRFWHRTb2Z0d2FyZQB3d3cuaW5rc2NhcGUub3Jnm+48GgAACZZJREFUeJzNm3uwV1UVx79LLu+XoIDvZ+ADSsLKUsiyxrFkipQBRcCmRogcHXCcscFqimzECXHyUc5Y4SsMwwdSY2k2lEVjjiS+zVBU3iog4IV7L/d++mOtM/fcc3/v3/mh35nf7PPbe5211l5nn73WXnsf0wEEcKikr0maKGmUpCMkDZC0U9I2SWslrZa03My2HkjdGgrgSOA3wH664n1gI7AnU78fuAs48sPWvS4ABwHzgQ+iY1uBW4EvAf0ztAdH/WJgW9BvAc76sPSvC0AfYGV05ANgATCgwnsHAD+Pe/cB74RRVgPXASc2Wv+6APQA/hAdeBEYWSOfeUBHvCLJKAJoAeYClrfuuQD4aSj6Qkx89fDqm7o+Efh+yhjX1a9tzgBOA9qAHcAJDZLxcWA70A6c3ggZNQNYEU/n8gbLmRVyljZSTlUAjo2nsgHo2WBZfYBd4UqbauVzUJ5KSTo/eN5jZm058+4CM9sn6SlJgyTVNMlK+Rvg7Cgfq4cJYMAYoJx+b0V5RK2y8jbASVE+XysDYLCkR4JHuXlkU5QfGQOMkLTPzN6t5WbgXEnPyNcKknQ10LvELc1R9i1BUxJ5G6CnpNZqbwJOBx6W9GdJJ0p6QNKjko5R6VGQdLy5BM2BA/B2xABlDQv0BKYAT6QivPXApGg/BWgFdgPHFeGxOO67MOeu1AbgqVDosApo7091fF349V4ZmgXRvhroU4DHQ9H+6Tz7UTOApaHQOeGnTwamA7cAT0cIOzFoLwPuA84rNmKAXsA/gufDQL9M+4vRNvhA9K8s8MULQDO+iMliAzC+Sp7DgFfj/jXE8hgYGK/bm43pTZUARgL/TnW2A3+/bwKmAsfWwXso8HiK93Z8bgD4bZ79qFXB4/GQFOCN6PzGnGX0AGYCf8+MrmeBo/KUVYtyydp/IXBUXK9uoLz3Yvi/HLLWAwMbJa+cMk345LYpntKoUOpPDZT535DRD7g7rq+vhVcegdDBkvpJ2mhm7ZKSyK3qgKgKpBda34tyQi2M6jZAhL0bJY2JiY68eJdAjyj3S9ohqUNSTZmnvJS8XVIfSX+UNCbq6kqFlcFA+Qhrk3SxvB9rGiivNGIeeDDr8xskqxedSZdrYzIEmNYIedUqNwW4MybFDhoQoQGnZgzdmvIEQ/OWVxNIhcQN4D07eD+Pb7qMBO6NupvyllcTgMtDocUN4P374H1uqm4YHojto4KFWMMBDI+huZk6EpZF+LYA75JZHdK5NJ5VDc+GuCoz2yZPbhwm6ZIcWc+R1EvSkkiKprEiynP1UQBwRkyEm/IIU4HjYnLdCxxfoP3QGAFP1ysrN+Bb3ERZ8z4enj1KVoM/LEJj4R7X16xw3gBGhHsqqngFPAxYEjzWUiRJim+vA/ynPq1zBjAa3yfsAG6sZlIE+qdc3HpKHJgAxgfdQ/loniOACXgSI3mKZTdNgbHAK6nOn1yGfmHQXpmf5jkCuIZOtMS8cD6p6A04HJiMJzvbg3YbZSI8YBCeI2gpNUoKoaLhGExHyBchWeyWtM3MysX+O6J8XNJnJM2Mn4AWuUtOb6hukbvRzWa2vQzvRZKGSvq1meWaiRLwDSrDRSV4HEJn/v+ueLdn4MmM53BXuQF4BrgDmBRPFTy6+3IJ3lcF3WbgkFw7HwJOwvNwydB9L/Vrifp/AqML3NsrFEzef4DbK5TbM2PglaTmAfwc0W3Rtgc4M89+Z5X5ZAh6MFO/LOrPKHDPwfFEwZesz8b1/Apl9gr6duC1uG4FrgB+gJ8gS558TdkgqfJQOKHryNS3l+Bzq6Rxkv4i6ROSflG1dp0yRku6Wp4BulnSAknDJN0taZyZPVkj74oNkKSg2jP17Zn2JPi5SdI0SVslTTKzl2tVUJLMrNXMbpSULHc3S7rYzC41s8318K7XAMmIaMK3uB6Q9LakuZJM0h1m9kE9CmZwvaRdkg6XtAzfGptXz+SX1yuwTL6dfYGkPVG3SVKux9jMbE+K53ZJp0paLGkjvs94DlWuOSo1QBIv9AVOSH7qjAuGyf37VEn/irprzaylAK9R1SqZwS2SNkgaImmSfE5olnSRpCckvQRMrYN/d+A7vKUwL0W7Az+91ZThMStF/xxwJfCxArKOBb6T8iDZ107AT6LtW/G/T+j4t5SMJVkd6jHAt4PpOnxZmvz+F/WzU7TJsvWKIgZIVocJduEx/2thvCzaMnwOwQMngDHKAPg88Ga035yXAZKjr5dm6pORcUOq7jQ8emsGjilggPnAOOAGPIDamersbvyQxSLgC1HXmpGZ5Bh+VULfo/H4oAP4XB4GeCSEfipTPzbqH83U/zjqrypkgAL8e9P9lUkCodZUXR88K7SFMlmm1MNZUYqukrM8TfJ9t2ZJL2SaX5Ivhs6i6/GW5CzAO+X4S5KZtZjZ/gpIW+ReZrB8T7IUfiePQ74KjChGVIkXODOErcomIs2sVdJf5d5gvOQJEEnT5Z/A5JqcMDPUuQ33ozK0++VGaJJ7p4KoxAAzoyw2lFZk6CbLA6eF4bfzxiL5N0aTKe9O70npVBAlDQAMkltvj9yahXC/PDqbgicu3o/6/Jemjn7x2x0johTWyPMKZ1Dka5VyI2C2/KuupWa2qxBBhLp3yw8tzpEbpE3SLAocbcsBl8n3Bsoekw8DrQr6qg5nJevxt/Dl6CllaI/Hl7xbgb7A8piBL0nRFPUCRXgW8gI98DiinQo/xsCP40GRr0tKjYDpko6WtKLcas7M3pAfbx0unwtui6a8P5r4utzDPGpmr1d4T3Jwu2RStQvwXPwLYbmKMi14ANSBR4s98N1biE9achoBSVrtK/F/QsgZW4LPkLin4An2YiNgojwJ8aSZVXTay8zWyl3iCfJFSpL6mlPJ/eUQr+EXJa2T7ztKvhocI/9Qo5heO+TxyMhCXqOYAeZGuahKPX8W5Tz5xLhL0jTyObjwXXmO4ZdmlizLX42y5Bwl6V354a1uk3I3A+DncSdIel3SyiqVfEzSK5I+G//vlXuHb1bJJ6vTAEkzJO2VdGeq6ZUoR5VhsTvKbuFzoRHQO+pNHnJWg0HqzO33lOcFUefTqxXTQ5f7zOy9VP3OKPt1v6ULEgMMyjYUVApYLulC+UmsalJag+XGS983UB6Otsr9cbM8pk+wyswuAIbIkynDU21DomyXR5e71D0tNyTqCsYpgUEhc5iZdfm4oljCYIY8pXWeqjvu1hw802uGvZL6hwJt6nrIUan/HereubaoPyjauiVHgn+5iHCdpGuynZek/wMTYyE/B6KCuQAAAABJRU5ErkJggg==;rounded=1;" parent="S5ZDTjxf2J-4e3x-WdZ--80" vertex="1">
          <mxGeometry x="9.638554216867469" y="10" width="39" height="39" as="geometry" />
        </mxCell>
      </root>
    </mxGraphModel>
  </diagram>
</mxfile>
